solid lüfter_1zoll
facet normal 0.0 0.0 -1.0
  outer loop
    vertex 1615.0775579928081 1816.6390466538658 0.0
    vertex 1617.177557992808 1814.639046653867 0.0
    vertex 1615.0775579928081 1772.6390466538678 0.0
  endloop
endfacet
facet normal 0.0 0.0 -1.0
  outer loop
    vertex 1617.177557992808 1814.639046653867 0.0
    vertex 1615.0775579928081 1816.6390466538658 0.0
    vertex 1647.0775579928081 1816.6390466538658 0.0
  endloop
endfacet
facet normal 0.0 0.0 -1.0
  outer loop
    vertex 1617.177557992808 1814.639046653867 0.0
    vertex 1647.0775579928081 1816.6390466538658 0.0
    vertex 1644.9775579928082 1814.639046653867 0.0
  endloop
endfacet
facet normal 0.0 0.0 -1.0
  outer loop
    vertex 1644.9775579928082 1814.639046653867 0.0
    vertex 1647.0775579928081 1816.6390466538658 0.0
    vertex 1644.9775579928082 1774.6390466538667 0.0
  endloop
endfacet
facet normal 0.0 0.0 -1.0
  outer loop
    vertex 1615.0775579928081 1772.6390466538678 0.0
    vertex 1617.177557992808 1774.6390466538667 0.0
    vertex 1647.0775579928081 1772.6390466538678 0.0
  endloop
endfacet
facet normal 0.0 0.0 -1.0
  outer loop
    vertex 1617.177557992808 1774.6390466538667 0.0
    vertex 1615.0775579928081 1772.6390466538678 0.0
    vertex 1617.177557992808 1814.639046653867 0.0
  endloop
endfacet
facet normal 0.0 0.0 -1.0
  outer loop
    vertex 1647.0775579928081 1772.6390466538678 0.0
    vertex 1617.177557992808 1774.6390466538667 0.0
    vertex 1644.9775579928082 1774.6390466538667 0.0
  endloop
endfacet
facet normal 0.0 0.0 -1.0
  outer loop
    vertex 1647.0775579928081 1772.6390466538678 0.0
    vertex 1644.9775579928082 1774.6390466538667 0.0
    vertex 1647.0775579928081 1816.6390466538658 0.0
  endloop
endfacet
facet normal 0.0 0.0 1.0
  outer loop
    vertex 1615.0775579928081 1772.6390466538678 3.0
    vertex 1615.876257206878 1794.7527193171218 3.0
    vertex 1615.0775579928081 1816.6390466538658 3.0
  endloop
endfacet
facet normal 0.0 0.0 1.0
  outer loop
    vertex 1615.876257206878 1794.7527193171218 3.0
    vertex 1615.0775579928081 1772.6390466538678 3.0
    vertex 1616.364808320332 1790.8144598613173 3.0
  endloop
endfacet
facet normal 0.0 0.0 1.0
  outer loop
    vertex 1616.364808320332 1790.8144598613173 3.0
    vertex 1615.0775579928081 1772.6390466538678 3.0
    vertex 1617.8560090099968 1787.1368396749967 3.0
  endloop
endfacet
facet normal 0.0 0.0 1.0
  outer loop
    vertex 1617.8560090099968 1787.1368396749967 3.0
    vertex 1615.0775579928081 1772.6390466538678 3.0
    vertex 1620.2482364131977 1783.970482496302 3.0
  endloop
endfacet
facet normal 0.0 0.0 1.0
  outer loop
    vertex 1620.2482364131977 1783.970482496302 3.0
    vertex 1615.0775579928081 1772.6390466538678 3.0
    vertex 1623.3784641857485 1781.5311703343107 3.0
  endloop
endfacet
facet normal 0.0 0.0 1.0
  outer loop
    vertex 1623.3784641857485 1781.5311703343107 3.0
    vertex 1615.0775579928081 1772.6390466538678 3.0
    vertex 1627.0333724778961 1779.985138281707 3.0
  endloop
endfacet
facet normal 0.0 0.0 1.0
  outer loop
    vertex 1627.0333724778961 1779.985138281707 3.0
    vertex 1615.0775579928081 1772.6390466538678 3.0
    vertex 1647.0775579928081 1772.6390466538678 3.0
  endloop
endfacet
facet normal 0.0 0.0 1.0
  outer loop
    vertex 1627.0333724778961 1779.985138281707 3.0
    vertex 1647.0775579928081 1772.6390466538678 3.0
    vertex 1630.9638853295523 1779.437745867937 3.0
  endloop
endfacet
facet normal 0.0 0.0 1.0
  outer loop
    vertex 1630.9638853295523 1779.437745867937 3.0
    vertex 1647.0775579928081 1772.6390466538678 3.0
    vertex 1634.9021447853577 1779.9262969813908 3.0
  endloop
endfacet
facet normal 0.0 0.0 1.0
  outer loop
    vertex 1634.9021447853577 1779.9262969813908 3.0
    vertex 1647.0775579928081 1772.6390466538678 3.0
    vertex 1638.5797649716783 1781.4174976710556 3.0
  endloop
endfacet
facet normal 0.0 0.0 1.0
  outer loop
    vertex 1638.5797649716783 1781.4174976710556 3.0
    vertex 1647.0775579928081 1772.6390466538678 3.0
    vertex 1641.7461221503731 1783.8097250742567 3.0
  endloop
endfacet
facet normal 0.0 0.0 1.0
  outer loop
    vertex 1641.7461221503731 1783.8097250742567 3.0
    vertex 1647.0775579928081 1772.6390466538678 3.0
    vertex 1644.1854343123644 1786.9399528468073 3.0
  endloop
endfacet
facet normal 0.0 0.0 1.0
  outer loop
    vertex 1644.1854343123644 1786.9399528468073 3.0
    vertex 1647.0775579928081 1772.6390466538678 3.0
    vertex 1645.731466364968 1790.5948611389547 3.0
  endloop
endfacet
facet normal 0.0 0.0 1.0
  outer loop
    vertex 1645.731466364968 1790.5948611389547 3.0
    vertex 1647.0775579928081 1772.6390466538678 3.0
    vertex 1646.278858778738 1794.5253739906111 3.0
  endloop
endfacet
facet normal 0.0 0.0 1.0
  outer loop
    vertex 1615.0775579928081 1816.6390466538658 3.0
    vertex 1627.2529712002588 1809.3517963263428 3.0
    vertex 1647.0775579928081 1816.6390466538658 3.0
  endloop
endfacet
facet normal 0.0 0.0 1.0
  outer loop
    vertex 1627.2529712002588 1809.3517963263428 3.0
    vertex 1615.0775579928081 1816.6390466538658 3.0
    vertex 1623.575351013938 1807.860595636678 3.0
  endloop
endfacet
facet normal 0.0 0.0 1.0
  outer loop
    vertex 1623.575351013938 1807.860595636678 3.0
    vertex 1615.0775579928081 1816.6390466538658 3.0
    vertex 1620.4089938352433 1805.4683682334771 3.0
  endloop
endfacet
facet normal 0.0 0.0 1.0
  outer loop
    vertex 1620.4089938352433 1805.4683682334771 3.0
    vertex 1615.0775579928081 1816.6390466538658 3.0
    vertex 1617.9696816732521 1802.338140460927 3.0
  endloop
endfacet
facet normal 0.0 0.0 1.0
  outer loop
    vertex 1617.9696816732521 1802.338140460927 3.0
    vertex 1615.0775579928081 1816.6390466538658 3.0
    vertex 1616.423649620648 1798.6832321687784 3.0
  endloop
endfacet
facet normal 0.0 0.0 1.0
  outer loop
    vertex 1616.423649620648 1798.6832321687784 3.0
    vertex 1615.0775579928081 1816.6390466538658 3.0
    vertex 1615.876257206878 1794.7527193171218 3.0
  endloop
endfacet
facet normal 0.0 0.0 1.0
  outer loop
    vertex 1647.0775579928081 1816.6390466538658 3.0
    vertex 1627.2529712002588 1809.3517963263428 3.0
    vertex 1631.191230656064 1809.8403474397965 3.0
  endloop
endfacet
facet normal 0.0 0.0 1.0
  outer loop
    vertex 1647.0775579928081 1816.6390466538658 3.0
    vertex 1631.191230656064 1809.8403474397965 3.0
    vertex 1635.1217435077203 1809.2929550260267 3.0
  endloop
endfacet
facet normal 0.0 0.0 1.0
  outer loop
    vertex 1647.0775579928081 1816.6390466538658 3.0
    vertex 1635.1217435077203 1809.2929550260267 3.0
    vertex 1638.7766517998678 1807.746922973423 3.0
  endloop
endfacet
facet normal 0.0 0.0 1.0
  outer loop
    vertex 1647.0775579928081 1816.6390466538658 3.0
    vertex 1638.7766517998678 1807.746922973423 3.0
    vertex 1641.9068795724181 1805.3076108114317 3.0
  endloop
endfacet
facet normal 0.0 0.0 1.0
  outer loop
    vertex 1647.0775579928081 1816.6390466538658 3.0
    vertex 1641.9068795724181 1805.3076108114317 3.0
    vertex 1644.2991069756192 1802.1412536327368 3.0
  endloop
endfacet
facet normal 0.0 0.0 1.0
  outer loop
    vertex 1647.0775579928081 1816.6390466538658 3.0
    vertex 1644.2991069756192 1802.1412536327368 3.0
    vertex 1645.7903076652842 1798.4636334464162 3.0
  endloop
endfacet
facet normal 0.0 0.0 1.0
  outer loop
    vertex 1647.0775579928081 1816.6390466538658 3.0
    vertex 1645.7903076652842 1798.4636334464162 3.0
    vertex 1646.278858778738 1794.5253739906111 3.0
  endloop
endfacet
facet normal 0.0 0.0 1.0
  outer loop
    vertex 1647.0775579928081 1816.6390466538658 3.0
    vertex 1646.278858778738 1794.5253739906111 3.0
    vertex 1647.0775579928081 1772.6390466538678 3.0
  endloop
endfacet
facet normal -1.0 0.0 0.0
  outer loop
    vertex 1615.0775579928081 1816.6390466538658 3.0
    vertex 1615.0775579928081 1772.6390466538678 0.0
    vertex 1615.0775579928081 1772.6390466538678 3.0
  endloop
endfacet
facet normal -1.0 0.0 0.0
  outer loop
    vertex 1615.0775579928081 1772.6390466538678 0.0
    vertex 1615.0775579928081 1816.6390466538658 3.0
    vertex 1615.0775579928081 1816.6390466538658 0.0
  endloop
endfacet
facet normal 0.0 1.0 0.0
  outer loop
    vertex 1615.0775579928081 1816.6390466538658 3.0
    vertex 1647.0775579928081 1816.6390466538658 0.0
    vertex 1615.0775579928081 1816.6390466538658 0.0
  endloop
endfacet
facet normal 0.0 1.0 0.0
  outer loop
    vertex 1647.0775579928081 1816.6390466538658 0.0
    vertex 1615.0775579928081 1816.6390466538658 3.0
    vertex 1647.0775579928081 1816.6390466538658 3.0
  endloop
endfacet
facet normal 1.0 0.0 0.0
  outer loop
    vertex 1647.0775579928081 1816.6390466538658 0.0
    vertex 1647.0775579928081 1772.6390466538678 3.0
    vertex 1647.0775579928081 1772.6390466538678 0.0
  endloop
endfacet
facet normal 1.0 0.0 0.0
  outer loop
    vertex 1647.0775579928081 1772.6390466538678 3.0
    vertex 1647.0775579928081 1816.6390466538658 0.0
    vertex 1647.0775579928081 1816.6390466538658 3.0
  endloop
endfacet
facet normal -0.0 -1.0 -0.0
  outer loop
    vertex 1647.0775579928081 1772.6390466538678 3.0
    vertex 1615.0775579928081 1772.6390466538678 0.0
    vertex 1647.0775579928081 1772.6390466538678 0.0
  endloop
endfacet
facet normal -0.0 -1.0 -0.0
  outer loop
    vertex 1615.0775579928081 1772.6390466538678 0.0
    vertex 1647.0775579928081 1772.6390466538678 3.0
    vertex 1615.0775579928081 1772.6390466538678 3.0
  endloop
endfacet
facet normal 0.0 0.0 -1.0
  outer loop
    vertex 1617.177557992808 1816.6390466538671 -9.999999999999998
    vertex 1618.677557992808 1811.639046653867 -9.999999999999998
    vertex 1617.177557992808 1774.6390466538667 -9.999999999999998
  endloop
endfacet
facet normal 0.0 0.0 -1.0
  outer loop
    vertex 1618.677557992808 1811.639046653867 -9.999999999999998
    vertex 1617.177557992808 1816.6390466538671 -9.999999999999998
    vertex 1644.9775579928082 1816.6390466538671 -9.999999999999998
  endloop
endfacet
facet normal 0.0 0.0 -1.0
  outer loop
    vertex 1618.677557992808 1811.639046653867 -9.999999999999998
    vertex 1644.9775579928082 1816.6390466538671 -9.999999999999998
    vertex 1643.4775579928082 1811.639046653867 -9.999999999999998
  endloop
endfacet
facet normal 0.0 0.0 -1.0
  outer loop
    vertex 1643.4775579928082 1811.639046653867 -9.999999999999998
    vertex 1644.9775579928082 1816.6390466538671 -9.999999999999998
    vertex 1643.4775579928082 1794.639046653867 -9.999999999999998
  endloop
endfacet
facet normal 0.0 0.0 -1.0
  outer loop
    vertex 1643.4775579928082 1794.639046653867 -9.999999999999998
    vertex 1644.9775579928082 1816.6390466538671 -9.999999999999998
    vertex 1643.4775579928082 1777.6390466538667 -9.999999999999998
  endloop
endfacet
facet normal 0.0 0.0 -1.0
  outer loop
    vertex 1617.177557992808 1774.6390466538667 -9.999999999999998
    vertex 1618.677557992808 1777.6390466538667 -9.999999999999998
    vertex 1644.9775579928082 1774.6390466538667 -9.999999999999998
  endloop
endfacet
facet normal 0.0 0.0 -1.0
  outer loop
    vertex 1618.677557992808 1777.6390466538667 -9.999999999999998
    vertex 1617.177557992808 1774.6390466538667 -9.999999999999998
    vertex 1618.677557992808 1811.639046653867 -9.999999999999998
  endloop
endfacet
facet normal 0.0 0.0 -1.0
  outer loop
    vertex 1618.677557992808 1777.6390466538667 -9.999999999999998
    vertex 1618.677557992808 1811.639046653867 -9.999999999999998
    vertex 1618.677557992808 1794.639046653867 -9.999999999999998
  endloop
endfacet
facet normal 0.0 0.0 -1.0
  outer loop
    vertex 1644.9775579928082 1774.6390466538667 -9.999999999999998
    vertex 1618.677557992808 1777.6390466538667 -9.999999999999998
    vertex 1643.4775579928082 1777.6390466538667 -9.999999999999998
  endloop
endfacet
facet normal 0.0 0.0 -1.0
  outer loop
    vertex 1644.9775579928082 1774.6390466538667 -9.999999999999998
    vertex 1643.4775579928082 1777.6390466538667 -9.999999999999998
    vertex 1644.9775579928082 1816.6390466538671 -9.999999999999998
  endloop
endfacet
facet normal 1.0 -0.0 -0.0
  outer loop
    vertex 1644.9775579928082 1816.6390466538671 -9.999999999999998
    vertex 1644.9775579928082 1774.6390466538667 0.0
    vertex 1644.9775579928082 1774.6390466538667 -9.999999999999998
  endloop
endfacet
facet normal 1.0 -0.0 -0.0
  outer loop
    vertex 1644.9775579928082 1774.6390466538667 0.0
    vertex 1644.9775579928082 1816.6390466538671 -9.999999999999998
    vertex 1644.9775579928082 1814.639046653867 0.0
  endloop
endfacet
facet normal 1.0 -0.0 -0.0
  outer loop
    vertex 1644.9775579928082 1814.639046653867 0.0
    vertex 1644.9775579928082 1816.6390466538671 -9.999999999999998
    vertex 1644.9775579928082 1816.6390466538671 -4.999999999999999
  endloop
endfacet
facet normal -0.0 -1.0 -0.0
  outer loop
    vertex 1644.9775579928082 1774.6390466538667 0.0
    vertex 1617.177557992808 1774.6390466538667 -9.999999999999998
    vertex 1644.9775579928082 1774.6390466538667 -9.999999999999998
  endloop
endfacet
facet normal -0.0 -1.0 -0.0
  outer loop
    vertex 1617.177557992808 1774.6390466538667 -9.999999999999998
    vertex 1644.9775579928082 1774.6390466538667 0.0
    vertex 1617.177557992808 1774.6390466538667 0.0
  endloop
endfacet
facet normal -1.0 0.0 0.0
  outer loop
    vertex 1617.177557992808 1814.639046653867 0.0
    vertex 1617.177557992808 1774.6390466538667 -9.999999999999998
    vertex 1617.177557992808 1774.6390466538667 0.0
  endloop
endfacet
facet normal -1.0 0.0 0.0
  outer loop
    vertex 1617.177557992808 1774.6390466538667 -9.999999999999998
    vertex 1617.177557992808 1814.639046653867 0.0
    vertex 1617.177557992808 1816.6390466538671 -9.999999999999998
  endloop
endfacet
facet normal -1.0 0.0 0.0
  outer loop
    vertex 1617.177557992808 1816.6390466538671 -9.999999999999998
    vertex 1617.177557992808 1814.639046653867 0.0
    vertex 1617.177557992808 1816.6390466538671 -4.999999999999999
  endloop
endfacet
facet normal -0.0 0.9284766908852423 0.3713906763541466
  outer loop
    vertex 1617.177557992808 1814.639046653867 0.0
    vertex 1644.9775579928082 1816.6390466538671 -4.999999999999999
    vertex 1617.177557992808 1816.6390466538671 -4.999999999999999
  endloop
endfacet
facet normal -0.0 0.9284766908852423 0.3713906763541466
  outer loop
    vertex 1644.9775579928082 1816.6390466538671 -4.999999999999999
    vertex 1617.177557992808 1814.639046653867 0.0
    vertex 1644.9775579928082 1814.639046653867 0.0
  endloop
endfacet
facet normal -0.0 0.9284766908852539 -0.37139067635411765
  outer loop
    vertex 1618.677557992808 1781.639046653867 0.0
    vertex 1643.4775579928082 1777.6390466538667 -9.999999999999998
    vertex 1618.677557992808 1777.6390466538667 -9.999999999999998
  endloop
endfacet
facet normal -0.0 0.9284766908852539 -0.37139067635411765
  outer loop
    vertex 1643.4775579928082 1777.6390466538667 -9.999999999999998
    vertex 1618.677557992808 1781.639046653867 0.0
    vertex 1643.4775579928082 1781.639046653867 0.0
  endloop
endfacet
facet normal 0.9914448613738109 -0.1305261922200472 -0.0
  outer loop
    vertex 1619.1000777468237 1797.8484028131381 0.0
    vertex 1618.677557992808 1794.639046653867 21.000000000000007
    vertex 1618.677557992808 1794.639046653867 0.0
  endloop
endfacet
facet normal 0.9914448613738109 -0.1305261922200472 -0.0
  outer loop
    vertex 1618.677557992808 1794.639046653867 21.000000000000007
    vertex 1619.1000777468237 1797.8484028131381 0.0
    vertex 1619.1000777468237 1797.8484028131381 21.000000000000007
  endloop
endfacet
facet normal 0.3826834323651225 -0.9238795325112733 -0.0
  outer loop
    vertex 1627.8682018335367 1806.6165268998516 21.000000000000007
    vertex 1624.877557992808 1805.377761660794 0.0
    vertex 1627.8682018335367 1806.6165268998516 0.0
  endloop
endfacet
facet normal 0.3826834323651225 -0.9238795325112733 -0.0
  outer loop
    vertex 1624.877557992808 1805.377761660794 0.0
    vertex 1627.8682018335367 1806.6165268998516 21.000000000000007
    vertex 1624.877557992808 1805.377761660794 21.000000000000007
  endloop
endfacet
facet normal 0.6087614290087329 -0.7933533402912258 -0.0
  outer loop
    vertex 1624.877557992808 1805.377761660794 21.000000000000007
    vertex 1622.309433906095 1803.40717074058 0.0
    vertex 1624.877557992808 1805.377761660794 0.0
  endloop
endfacet
facet normal 0.6087614290087329 -0.7933533402912258 -0.0
  outer loop
    vertex 1622.309433906095 1803.40717074058 0.0
    vertex 1624.877557992808 1805.377761660794 21.000000000000007
    vertex 1622.309433906095 1803.40717074058 21.000000000000007
  endloop
endfacet
facet normal -0.9914448613738182 0.13052619221999237 0.0
  outer loop
    vertex 1643.4775579928082 1794.639046653867 21.000000000000007
    vertex 1643.0550382387928 1791.4296904945954 0.0
    vertex 1643.0550382387928 1791.4296904945954 21.000000000000007
  endloop
endfacet
facet normal -0.9914448613738182 0.13052619221999237 0.0
  outer loop
    vertex 1643.0550382387928 1791.4296904945954 0.0
    vertex 1643.4775579928082 1794.639046653867 21.000000000000007
    vertex 1643.4775579928082 1794.639046653867 0.0
  endloop
endfacet
facet normal -0.7933533402912258 -0.6087614290087329 -0.0
  outer loop
    vertex 1639.8456820795213 1803.40717074058 21.000000000000007
    vertex 1641.8162729997355 1800.8390466538667 0.0
    vertex 1641.8162729997355 1800.8390466538667 21.000000000000007
  endloop
endfacet
facet normal -0.7933533402912258 -0.6087614290087329 -0.0
  outer loop
    vertex 1641.8162729997355 1800.8390466538667 0.0
    vertex 1639.8456820795213 1803.40717074058 21.000000000000007
    vertex 1639.8456820795213 1803.40717074058 0.0
  endloop
endfacet
facet normal -0.6087614290087329 -0.7933533402912258 -0.0
  outer loop
    vertex 1639.8456820795213 1803.40717074058 21.000000000000007
    vertex 1637.2775579928082 1805.377761660794 0.0
    vertex 1639.8456820795213 1803.40717074058 0.0
  endloop
endfacet
facet normal -0.6087614290087329 -0.7933533402912258 -0.0
  outer loop
    vertex 1637.2775579928082 1805.377761660794 0.0
    vertex 1639.8456820795213 1803.40717074058 21.000000000000007
    vertex 1637.2775579928082 1805.377761660794 21.000000000000007
  endloop
endfacet
facet normal 0.9914448613738109 0.1305261922200472 -0.0
  outer loop
    vertex 1618.677557992808 1794.639046653867 0.0
    vertex 1619.1000777468237 1791.4296904945954 21.000000000000007
    vertex 1619.1000777468237 1791.4296904945954 0.0
  endloop
endfacet
facet normal 0.9914448613738109 0.1305261922200472 -0.0
  outer loop
    vertex 1619.1000777468237 1791.4296904945954 21.000000000000007
    vertex 1618.677557992808 1794.639046653867 0.0
    vertex 1618.677557992808 1794.639046653867 21.000000000000007
  endloop
endfacet
facet normal 0.7933533402912527 -0.6087614290086978 -0.0
  outer loop
    vertex 1622.309433906095 1803.40717074058 0.0
    vertex 1620.3388429858812 1800.8390466538667 21.000000000000007
    vertex 1620.3388429858812 1800.8390466538667 0.0
  endloop
endfacet
facet normal 0.7933533402912527 -0.6087614290086978 -0.0
  outer loop
    vertex 1620.3388429858812 1800.8390466538667 21.000000000000007
    vertex 1622.309433906095 1803.40717074058 0.0
    vertex 1622.309433906095 1803.40717074058 21.000000000000007
  endloop
endfacet
facet normal 0.9238795325112733 0.3826834323651225 0.0
  outer loop
    vertex 1619.1000777468237 1791.4296904945954 0.0
    vertex 1620.3388429858812 1788.4390466538669 21.000000000000007
    vertex 1620.3388429858812 1788.4390466538669 0.0
  endloop
endfacet
facet normal 0.9238795325112733 0.3826834323651225 0.0
  outer loop
    vertex 1620.3388429858812 1788.4390466538669 21.000000000000007
    vertex 1619.1000777468237 1791.4296904945954 0.0
    vertex 1619.1000777468237 1791.4296904945954 21.000000000000007
  endloop
endfacet
facet normal 0.9238795325112733 -0.3826834323651225 -0.0
  outer loop
    vertex 1620.3388429858812 1800.8390466538667 0.0
    vertex 1619.1000777468237 1797.8484028131381 21.000000000000007
    vertex 1619.1000777468237 1797.8484028131381 0.0
  endloop
endfacet
facet normal 0.9238795325112733 -0.3826834323651225 -0.0
  outer loop
    vertex 1619.1000777468237 1797.8484028131381 21.000000000000007
    vertex 1620.3388429858812 1800.8390466538667 0.0
    vertex 1620.3388429858812 1800.8390466538667 21.000000000000007
  endloop
endfacet
facet normal 0.1305261922199924 -0.9914448613738182 -0.0
  outer loop
    vertex 1631.0775579928081 1807.0390466538668 21.000000000000007
    vertex 1627.8682018335367 1806.6165268998516 0.0
    vertex 1631.0775579928081 1807.0390466538668 0.0
  endloop
endfacet
facet normal 0.1305261922199924 -0.9914448613738182 -0.0
  outer loop
    vertex 1627.8682018335367 1806.6165268998516 0.0
    vertex 1631.0775579928081 1807.0390466538668 21.000000000000007
    vertex 1627.8682018335367 1806.6165268998516 21.000000000000007
  endloop
endfacet
facet normal -0.1305261922199924 -0.9914448613738182 -0.0
  outer loop
    vertex 1634.2869141520796 1806.6165268998516 21.000000000000007
    vertex 1631.0775579928081 1807.0390466538668 0.0
    vertex 1634.2869141520796 1806.6165268998516 0.0
  endloop
endfacet
facet normal -0.1305261922199924 -0.9914448613738182 -0.0
  outer loop
    vertex 1631.0775579928081 1807.0390466538668 0.0
    vertex 1634.2869141520796 1806.6165268998516 21.000000000000007
    vertex 1631.0775579928081 1807.0390466538668 21.000000000000007
  endloop
endfacet
facet normal -0.3826834323651225 -0.9238795325112733 -0.0
  outer loop
    vertex 1637.2775579928082 1805.377761660794 21.000000000000007
    vertex 1634.2869141520796 1806.6165268998516 0.0
    vertex 1637.2775579928082 1805.377761660794 0.0
  endloop
endfacet
facet normal -0.3826834323651225 -0.9238795325112733 -0.0
  outer loop
    vertex 1634.2869141520796 1806.6165268998516 0.0
    vertex 1637.2775579928082 1805.377761660794 21.000000000000007
    vertex 1634.2869141520796 1806.6165268998516 21.000000000000007
  endloop
endfacet
facet normal -0.9914448613738182 -0.13052619221999237 0.0
  outer loop
    vertex 1643.0550382387928 1797.8484028131381 21.000000000000007
    vertex 1643.4775579928082 1794.639046653867 0.0
    vertex 1643.4775579928082 1794.639046653867 21.000000000000007
  endloop
endfacet
facet normal -0.9914448613738182 -0.13052619221999237 0.0
  outer loop
    vertex 1643.4775579928082 1794.639046653867 0.0
    vertex 1643.0550382387928 1797.8484028131381 21.000000000000007
    vertex 1643.0550382387928 1797.8484028131381 0.0
  endloop
endfacet
facet normal -0.9238795325112733 0.3826834323651225 -0.0
  outer loop
    vertex 1643.0550382387928 1791.4296904945954 21.000000000000007
    vertex 1641.8162729997355 1788.4390466538669 0.0
    vertex 1641.8162729997355 1788.4390466538669 21.000000000000007
  endloop
endfacet
facet normal -0.9238795325112733 0.3826834323651225 -0.0
  outer loop
    vertex 1641.8162729997355 1788.4390466538669 0.0
    vertex 1643.0550382387928 1791.4296904945954 21.000000000000007
    vertex 1643.0550382387928 1791.4296904945954 0.0
  endloop
endfacet
facet normal -0.7933533402912258 0.6087614290087329 -0.0
  outer loop
    vertex 1641.8162729997355 1788.4390466538669 21.000000000000007
    vertex 1639.8456820795213 1785.8709225671535 0.0
    vertex 1639.8456820795213 1785.8709225671535 21.000000000000007
  endloop
endfacet
facet normal -0.7933533402912258 0.6087614290087329 -0.0
  outer loop
    vertex 1639.8456820795213 1785.8709225671535 0.0
    vertex 1641.8162729997355 1788.4390466538669 21.000000000000007
    vertex 1641.8162729997355 1788.4390466538669 0.0
  endloop
endfacet
facet normal -0.9238795325112733 -0.3826834323651225 -0.0
  outer loop
    vertex 1641.8162729997355 1800.8390466538667 21.000000000000007
    vertex 1643.0550382387928 1797.8484028131381 0.0
    vertex 1643.0550382387928 1797.8484028131381 21.000000000000007
  endloop
endfacet
facet normal -0.9238795325112733 -0.3826834323651225 -0.0
  outer loop
    vertex 1643.0550382387928 1797.8484028131381 0.0
    vertex 1641.8162729997355 1800.8390466538667 21.000000000000007
    vertex 1641.8162729997355 1800.8390466538667 0.0
  endloop
endfacet
facet normal -0.6087614290087329 0.7933533402912258 -0.0
  outer loop
    vertex 1637.2775579928082 1783.9003316469395 21.000000000000007
    vertex 1639.8456820795213 1785.8709225671535 0.0
    vertex 1637.2775579928082 1783.9003316469395 0.0
  endloop
endfacet
facet normal -0.6087614290087329 0.7933533402912258 -0.0
  outer loop
    vertex 1639.8456820795213 1785.8709225671535 0.0
    vertex 1637.2775579928082 1783.9003316469395 21.000000000000007
    vertex 1639.8456820795213 1785.8709225671535 21.000000000000007
  endloop
endfacet
facet normal 1.0 -0.0 -0.0
  outer loop
    vertex 1618.677557992808 1811.639046653867 -9.999999999999998
    vertex 1618.677557992808 1794.639046653867 0.0
    vertex 1618.677557992808 1794.639046653867 -9.999999999999998
  endloop
endfacet
facet normal 1.0 -0.0 -0.0
  outer loop
    vertex 1618.677557992808 1794.639046653867 0.0
    vertex 1618.677557992808 1811.639046653867 -9.999999999999998
    vertex 1618.677557992808 1807.6390466538667 0.0
  endloop
endfacet
facet normal 0.3826834323651225 0.9238795325112733 0.0
  outer loop
    vertex 1624.877557992808 1783.9003316469395 21.000000000000007
    vertex 1627.8682018335367 1782.661566407882 0.0
    vertex 1624.877557992808 1783.9003316469395 0.0
  endloop
endfacet
facet normal 0.3826834323651225 0.9238795325112733 0.0
  outer loop
    vertex 1627.8682018335367 1782.661566407882 0.0
    vertex 1624.877557992808 1783.9003316469395 21.000000000000007
    vertex 1627.8682018335367 1782.661566407882 21.000000000000007
  endloop
endfacet
facet normal 0.7933533402912527 0.6087614290086978 0.0
  outer loop
    vertex 1620.3388429858812 1788.4390466538669 0.0
    vertex 1622.309433906095 1785.8709225671535 21.000000000000007
    vertex 1622.309433906095 1785.8709225671535 0.0
  endloop
endfacet
facet normal 0.7933533402912527 0.6087614290086978 0.0
  outer loop
    vertex 1622.309433906095 1785.8709225671535 21.000000000000007
    vertex 1620.3388429858812 1788.4390466538669 0.0
    vertex 1620.3388429858812 1788.4390466538669 21.000000000000007
  endloop
endfacet
facet normal -0.1305261922199924 0.9914448613738182 -0.0
  outer loop
    vertex 1631.0775579928081 1782.2390466538668 21.000000000000007
    vertex 1634.2869141520796 1782.661566407882 0.0
    vertex 1631.0775579928081 1782.2390466538668 0.0
  endloop
endfacet
facet normal -0.1305261922199924 0.9914448613738182 -0.0
  outer loop
    vertex 1634.2869141520796 1782.661566407882 0.0
    vertex 1631.0775579928081 1782.2390466538668 21.000000000000007
    vertex 1634.2869141520796 1782.661566407882 21.000000000000007
  endloop
endfacet
facet normal 1.0 -0.0 -0.0
  outer loop
    vertex 1618.677557992808 1794.639046653867 -9.999999999999998
    vertex 1618.677557992808 1781.639046653867 0.0
    vertex 1618.677557992808 1777.6390466538667 -9.999999999999998
  endloop
endfacet
facet normal 1.0 -0.0 -0.0
  outer loop
    vertex 1618.677557992808 1781.639046653867 0.0
    vertex 1618.677557992808 1794.639046653867 -9.999999999999998
    vertex 1618.677557992808 1794.639046653867 0.0
  endloop
endfacet
facet normal -1.0 0.0 0.0
  outer loop
    vertex 1643.4775579928082 1781.639046653867 0.0
    vertex 1643.4775579928082 1794.639046653867 -9.999999999999998
    vertex 1643.4775579928082 1777.6390466538667 -9.999999999999998
  endloop
endfacet
facet normal -1.0 0.0 0.0
  outer loop
    vertex 1643.4775579928082 1794.639046653867 -9.999999999999998
    vertex 1643.4775579928082 1781.639046653867 0.0
    vertex 1643.4775579928082 1794.639046653867 0.0
  endloop
endfacet
facet normal 0.0 0.0 -1.0
  outer loop
    vertex 1619.1000777468237 1791.4296904945954 0.0
    vertex 1618.677557992808 1781.639046653867 0.0
    vertex 1618.677557992808 1794.639046653867 0.0
  endloop
endfacet
facet normal 0.0 0.0 -1.0
  outer loop
    vertex 1618.677557992808 1781.639046653867 0.0
    vertex 1619.1000777468237 1791.4296904945954 0.0
    vertex 1620.3388429858812 1788.4390466538669 0.0
  endloop
endfacet
facet normal 0.0 0.0 -1.0
  outer loop
    vertex 1618.677557992808 1781.639046653867 0.0
    vertex 1620.3388429858812 1788.4390466538669 0.0
    vertex 1622.309433906095 1785.8709225671535 0.0
  endloop
endfacet
facet normal 0.0 0.0 -1.0
  outer loop
    vertex 1618.677557992808 1781.639046653867 0.0
    vertex 1622.309433906095 1785.8709225671535 0.0
    vertex 1624.877557992808 1783.9003316469395 0.0
  endloop
endfacet
facet normal 0.0 0.0 -1.0
  outer loop
    vertex 1618.677557992808 1781.639046653867 0.0
    vertex 1624.877557992808 1783.9003316469395 0.0
    vertex 1627.8682018335367 1782.661566407882 0.0
  endloop
endfacet
facet normal 0.0 0.0 -1.0
  outer loop
    vertex 1618.677557992808 1781.639046653867 0.0
    vertex 1627.8682018335367 1782.661566407882 0.0
    vertex 1631.0775579928081 1782.2390466538668 0.0
  endloop
endfacet
facet normal 0.0 0.0 -1.0
  outer loop
    vertex 1618.677557992808 1781.639046653867 0.0
    vertex 1631.0775579928081 1782.2390466538668 0.0
    vertex 1643.4775579928082 1781.639046653867 0.0
  endloop
endfacet
facet normal 0.0 0.0 -1.0
  outer loop
    vertex 1643.4775579928082 1781.639046653867 0.0
    vertex 1631.0775579928081 1782.2390466538668 0.0
    vertex 1634.2869141520796 1782.661566407882 0.0
  endloop
endfacet
facet normal 0.0 0.0 -1.0
  outer loop
    vertex 1643.4775579928082 1781.639046653867 0.0
    vertex 1634.2869141520796 1782.661566407882 0.0
    vertex 1637.2775579928082 1783.9003316469395 0.0
  endloop
endfacet
facet normal 0.0 0.0 -1.0
  outer loop
    vertex 1643.4775579928082 1781.639046653867 0.0
    vertex 1637.2775579928082 1783.9003316469395 0.0
    vertex 1639.8456820795213 1785.8709225671535 0.0
  endloop
endfacet
facet normal 0.0 0.0 -1.0
  outer loop
    vertex 1643.4775579928082 1781.639046653867 0.0
    vertex 1639.8456820795213 1785.8709225671535 0.0
    vertex 1641.8162729997355 1788.4390466538669 0.0
  endloop
endfacet
facet normal 0.0 0.0 -1.0
  outer loop
    vertex 1643.4775579928082 1781.639046653867 0.0
    vertex 1641.8162729997355 1788.4390466538669 0.0
    vertex 1643.0550382387928 1791.4296904945954 0.0
  endloop
endfacet
facet normal 0.0 0.0 -1.0
  outer loop
    vertex 1643.4775579928082 1781.639046653867 0.0
    vertex 1643.0550382387928 1791.4296904945954 0.0
    vertex 1643.4775579928082 1794.639046653867 0.0
  endloop
endfacet
facet normal 0.1305261922199924 0.9914448613738182 0.0
  outer loop
    vertex 1627.8682018335367 1782.661566407882 21.000000000000007
    vertex 1631.0775579928081 1782.2390466538668 0.0
    vertex 1627.8682018335367 1782.661566407882 0.0
  endloop
endfacet
facet normal 0.1305261922199924 0.9914448613738182 0.0
  outer loop
    vertex 1631.0775579928081 1782.2390466538668 0.0
    vertex 1627.8682018335367 1782.661566407882 21.000000000000007
    vertex 1631.0775579928081 1782.2390466538668 21.000000000000007
  endloop
endfacet
facet normal 0.6087614290087329 0.7933533402912258 0.0
  outer loop
    vertex 1622.309433906095 1785.8709225671535 21.000000000000007
    vertex 1624.877557992808 1783.9003316469395 0.0
    vertex 1622.309433906095 1785.8709225671535 0.0
  endloop
endfacet
facet normal 0.6087614290087329 0.7933533402912258 0.0
  outer loop
    vertex 1624.877557992808 1783.9003316469395 0.0
    vertex 1622.309433906095 1785.8709225671535 21.000000000000007
    vertex 1624.877557992808 1783.9003316469395 21.000000000000007
  endloop
endfacet
facet normal -0.3826834323651225 0.9238795325112733 -0.0
  outer loop
    vertex 1634.2869141520796 1782.661566407882 21.000000000000007
    vertex 1637.2775579928082 1783.9003316469395 0.0
    vertex 1634.2869141520796 1782.661566407882 0.0
  endloop
endfacet
facet normal -0.3826834323651225 0.9238795325112733 -0.0
  outer loop
    vertex 1637.2775579928082 1783.9003316469395 0.0
    vertex 1634.2869141520796 1782.661566407882 21.000000000000007
    vertex 1637.2775579928082 1783.9003316469395 21.000000000000007
  endloop
endfacet
facet normal 0.0 -0.9284766908852539 -0.37139067635411765
  outer loop
    vertex 1643.4775579928082 1807.6390466538667 0.0
    vertex 1618.677557992808 1811.639046653867 -9.999999999999998
    vertex 1643.4775579928082 1811.639046653867 -9.999999999999998
  endloop
endfacet
facet normal 0.0 -0.9284766908852539 -0.37139067635411765
  outer loop
    vertex 1618.677557992808 1811.639046653867 -9.999999999999998
    vertex 1643.4775579928082 1807.6390466538667 0.0
    vertex 1618.677557992808 1807.6390466538667 0.0
  endloop
endfacet
facet normal 0.0 0.0 -1.0
  outer loop
    vertex 1618.677557992808 1807.6390466538667 0.0
    vertex 1619.1000777468237 1797.8484028131381 0.0
    vertex 1618.677557992808 1794.639046653867 0.0
  endloop
endfacet
facet normal 0.0 0.0 -1.0
  outer loop
    vertex 1619.1000777468237 1797.8484028131381 0.0
    vertex 1618.677557992808 1807.6390466538667 0.0
    vertex 1620.3388429858812 1800.8390466538667 0.0
  endloop
endfacet
facet normal 0.0 0.0 -1.0
  outer loop
    vertex 1620.3388429858812 1800.8390466538667 0.0
    vertex 1618.677557992808 1807.6390466538667 0.0
    vertex 1622.309433906095 1803.40717074058 0.0
  endloop
endfacet
facet normal 0.0 0.0 -1.0
  outer loop
    vertex 1622.309433906095 1803.40717074058 0.0
    vertex 1618.677557992808 1807.6390466538667 0.0
    vertex 1624.877557992808 1805.377761660794 0.0
  endloop
endfacet
facet normal 0.0 0.0 -1.0
  outer loop
    vertex 1624.877557992808 1805.377761660794 0.0
    vertex 1618.677557992808 1807.6390466538667 0.0
    vertex 1627.8682018335367 1806.6165268998516 0.0
  endloop
endfacet
facet normal 0.0 0.0 -1.0
  outer loop
    vertex 1627.8682018335367 1806.6165268998516 0.0
    vertex 1618.677557992808 1807.6390466538667 0.0
    vertex 1631.0775579928081 1807.0390466538668 0.0
  endloop
endfacet
facet normal 0.0 0.0 -1.0
  outer loop
    vertex 1631.0775579928081 1807.0390466538668 0.0
    vertex 1618.677557992808 1807.6390466538667 0.0
    vertex 1643.4775579928082 1807.6390466538667 0.0
  endloop
endfacet
facet normal 0.0 0.0 -1.0
  outer loop
    vertex 1631.0775579928081 1807.0390466538668 0.0
    vertex 1643.4775579928082 1807.6390466538667 0.0
    vertex 1634.2869141520796 1806.6165268998516 0.0
  endloop
endfacet
facet normal 0.0 0.0 -1.0
  outer loop
    vertex 1634.2869141520796 1806.6165268998516 0.0
    vertex 1643.4775579928082 1807.6390466538667 0.0
    vertex 1637.2775579928082 1805.377761660794 0.0
  endloop
endfacet
facet normal 0.0 0.0 -1.0
  outer loop
    vertex 1637.2775579928082 1805.377761660794 0.0
    vertex 1643.4775579928082 1807.6390466538667 0.0
    vertex 1639.8456820795213 1803.40717074058 0.0
  endloop
endfacet
facet normal 0.0 0.0 -1.0
  outer loop
    vertex 1639.8456820795213 1803.40717074058 0.0
    vertex 1643.4775579928082 1807.6390466538667 0.0
    vertex 1641.8162729997355 1800.8390466538667 0.0
  endloop
endfacet
facet normal 0.0 0.0 -1.0
  outer loop
    vertex 1641.8162729997355 1800.8390466538667 0.0
    vertex 1643.4775579928082 1807.6390466538667 0.0
    vertex 1643.0550382387928 1797.8484028131381 0.0
  endloop
endfacet
facet normal 0.0 0.0 -1.0
  outer loop
    vertex 1643.0550382387928 1797.8484028131381 0.0
    vertex 1643.4775579928082 1807.6390466538667 0.0
    vertex 1643.4775579928082 1794.639046653867 0.0
  endloop
endfacet
facet normal -1.0 0.0 0.0
  outer loop
    vertex 1643.4775579928082 1807.6390466538667 0.0
    vertex 1643.4775579928082 1794.639046653867 -9.999999999999998
    vertex 1643.4775579928082 1794.639046653867 0.0
  endloop
endfacet
facet normal -1.0 0.0 0.0
  outer loop
    vertex 1643.4775579928082 1794.639046653867 -9.999999999999998
    vertex 1643.4775579928082 1807.6390466538667 0.0
    vertex 1643.4775579928082 1811.639046653867 -9.999999999999998
  endloop
endfacet
facet normal 0.0 0.0 1.0
  outer loop
    vertex 1616.364808320332 1790.8144598613173 20.999999999999996
    vertex 1616.423649620648 1798.6832321687784 20.999999999999996
    vertex 1615.876257206878 1794.7527193171218 20.999999999999996
  endloop
endfacet
facet normal 0.0 0.0 1.0
  outer loop
    vertex 1616.423649620648 1798.6832321687784 20.999999999999996
    vertex 1616.364808320332 1790.8144598613173 20.999999999999996
    vertex 1617.8560090099968 1787.1368396749967 20.999999999999996
  endloop
endfacet
facet normal 0.0 0.0 1.0
  outer loop
    vertex 1616.423649620648 1798.6832321687784 20.999999999999996
    vertex 1617.8560090099968 1787.1368396749967 20.999999999999996
    vertex 1617.9696816732521 1802.338140460927 20.999999999999996
  endloop
endfacet
facet normal 0.0 0.0 1.0
  outer loop
    vertex 1617.9696816732521 1802.338140460927 20.999999999999996
    vertex 1617.8560090099968 1787.1368396749967 20.999999999999996
    vertex 1618.677557992808 1794.639046653867 21.000000000000007
  endloop
endfacet
facet normal 0.0 0.0 1.0
  outer loop
    vertex 1618.677557992808 1794.639046653867 21.000000000000007
    vertex 1617.8560090099968 1787.1368396749967 20.999999999999996
    vertex 1619.1000777468237 1791.4296904945954 21.000000000000007
  endloop
endfacet
facet normal 0.0 0.0 1.0
  outer loop
    vertex 1619.1000777468237 1791.4296904945954 21.000000000000007
    vertex 1617.8560090099968 1787.1368396749967 20.999999999999996
    vertex 1620.2482364131977 1783.970482496302 20.999999999999996
  endloop
endfacet
facet normal 0.0 0.0 1.0
  outer loop
    vertex 1619.1000777468237 1791.4296904945954 21.000000000000007
    vertex 1620.2482364131977 1783.970482496302 20.999999999999996
    vertex 1620.3388429858812 1788.4390466538669 21.000000000000007
  endloop
endfacet
facet normal 0.0 0.0 1.0
  outer loop
    vertex 1620.3388429858812 1788.4390466538669 21.000000000000007
    vertex 1620.2482364131977 1783.970482496302 20.999999999999996
    vertex 1623.3784641857485 1781.5311703343107 20.999999999999996
  endloop
endfacet
facet normal 0.0 0.0 1.0
  outer loop
    vertex 1620.3388429858812 1788.4390466538669 21.000000000000007
    vertex 1623.3784641857485 1781.5311703343107 20.999999999999996
    vertex 1622.309433906095 1785.8709225671535 21.000000000000007
  endloop
endfacet
facet normal 0.0 0.0 1.0
  outer loop
    vertex 1622.309433906095 1785.8709225671535 21.000000000000007
    vertex 1623.3784641857485 1781.5311703343107 20.999999999999996
    vertex 1624.877557992808 1783.9003316469395 21.000000000000007
  endloop
endfacet
facet normal 0.0 0.0 1.0
  outer loop
    vertex 1624.877557992808 1783.9003316469395 21.000000000000007
    vertex 1623.3784641857485 1781.5311703343107 20.999999999999996
    vertex 1627.0333724778961 1779.985138281707 20.999999999999996
  endloop
endfacet
facet normal 0.0 0.0 1.0
  outer loop
    vertex 1624.877557992808 1783.9003316469395 21.000000000000007
    vertex 1627.0333724778961 1779.985138281707 20.999999999999996
    vertex 1627.8682018335367 1782.661566407882 21.000000000000007
  endloop
endfacet
facet normal 0.0 0.0 1.0
  outer loop
    vertex 1627.8682018335367 1782.661566407882 21.000000000000007
    vertex 1627.0333724778961 1779.985138281707 20.999999999999996
    vertex 1630.9638853295523 1779.437745867937 20.999999999999996
  endloop
endfacet
facet normal 0.0 0.0 1.0
  outer loop
    vertex 1627.8682018335367 1782.661566407882 21.000000000000007
    vertex 1630.9638853295523 1779.437745867937 20.999999999999996
    vertex 1631.0775579928081 1782.2390466538668 21.000000000000007
  endloop
endfacet
facet normal 0.0 0.0 1.0
  outer loop
    vertex 1631.0775579928081 1782.2390466538668 21.000000000000007
    vertex 1630.9638853295523 1779.437745867937 20.999999999999996
    vertex 1634.9021447853577 1779.9262969813908 20.999999999999996
  endloop
endfacet
facet normal 0.0 0.0 1.0
  outer loop
    vertex 1631.0775579928081 1782.2390466538668 21.000000000000007
    vertex 1634.9021447853577 1779.9262969813908 20.999999999999996
    vertex 1634.2869141520796 1782.661566407882 21.000000000000007
  endloop
endfacet
facet normal 0.0 0.0 1.0
  outer loop
    vertex 1634.2869141520796 1782.661566407882 21.000000000000007
    vertex 1634.9021447853577 1779.9262969813908 20.999999999999996
    vertex 1637.2775579928082 1783.9003316469395 21.000000000000007
  endloop
endfacet
facet normal 0.0 0.0 1.0
  outer loop
    vertex 1637.2775579928082 1783.9003316469395 21.000000000000007
    vertex 1634.9021447853577 1779.9262969813908 20.999999999999996
    vertex 1638.5797649716783 1781.4174976710556 20.999999999999996
  endloop
endfacet
facet normal 0.0 0.0 1.0
  outer loop
    vertex 1637.2775579928082 1783.9003316469395 21.000000000000007
    vertex 1638.5797649716783 1781.4174976710556 20.999999999999996
    vertex 1639.8456820795213 1785.8709225671535 21.000000000000007
  endloop
endfacet
facet normal 0.0 0.0 1.0
  outer loop
    vertex 1639.8456820795213 1785.8709225671535 21.000000000000007
    vertex 1638.5797649716783 1781.4174976710556 20.999999999999996
    vertex 1641.7461221503731 1783.8097250742567 20.999999999999996
  endloop
endfacet
facet normal 0.0 0.0 1.0
  outer loop
    vertex 1639.8456820795213 1785.8709225671535 21.000000000000007
    vertex 1641.7461221503731 1783.8097250742567 20.999999999999996
    vertex 1641.8162729997355 1788.4390466538669 21.000000000000007
  endloop
endfacet
facet normal 0.0 0.0 1.0
  outer loop
    vertex 1641.8162729997355 1788.4390466538669 21.000000000000007
    vertex 1641.7461221503731 1783.8097250742567 20.999999999999996
    vertex 1644.1854343123644 1786.9399528468073 20.999999999999996
  endloop
endfacet
facet normal 0.0 0.0 1.0
  outer loop
    vertex 1641.8162729997355 1788.4390466538669 21.000000000000007
    vertex 1644.1854343123644 1786.9399528468073 20.999999999999996
    vertex 1643.0550382387928 1791.4296904945954 21.000000000000007
  endloop
endfacet
facet normal 0.0 0.0 1.0
  outer loop
    vertex 1643.0550382387928 1791.4296904945954 21.000000000000007
    vertex 1644.1854343123644 1786.9399528468073 20.999999999999996
    vertex 1643.4775579928082 1794.639046653867 21.000000000000007
  endloop
endfacet
facet normal 0.0 0.0 1.0
  outer loop
    vertex 1617.9696816732521 1802.338140460927 20.999999999999996
    vertex 1619.1000777468237 1797.8484028131381 21.000000000000007
    vertex 1620.4089938352433 1805.4683682334771 20.999999999999996
  endloop
endfacet
facet normal 0.0 0.0 1.0
  outer loop
    vertex 1619.1000777468237 1797.8484028131381 21.000000000000007
    vertex 1617.9696816732521 1802.338140460927 20.999999999999996
    vertex 1618.677557992808 1794.639046653867 21.000000000000007
  endloop
endfacet
facet normal 0.0 0.0 1.0
  outer loop
    vertex 1620.4089938352433 1805.4683682334771 20.999999999999996
    vertex 1619.1000777468237 1797.8484028131381 21.000000000000007
    vertex 1620.3388429858812 1800.8390466538667 21.000000000000007
  endloop
endfacet
facet normal 0.0 0.0 1.0
  outer loop
    vertex 1620.4089938352433 1805.4683682334771 20.999999999999996
    vertex 1620.3388429858812 1800.8390466538667 21.000000000000007
    vertex 1622.309433906095 1803.40717074058 21.000000000000007
  endloop
endfacet
facet normal 0.0 0.0 1.0
  outer loop
    vertex 1620.4089938352433 1805.4683682334771 20.999999999999996
    vertex 1622.309433906095 1803.40717074058 21.000000000000007
    vertex 1623.575351013938 1807.860595636678 20.999999999999996
  endloop
endfacet
facet normal 0.0 0.0 1.0
  outer loop
    vertex 1623.575351013938 1807.860595636678 20.999999999999996
    vertex 1622.309433906095 1803.40717074058 21.000000000000007
    vertex 1624.877557992808 1805.377761660794 21.000000000000007
  endloop
endfacet
facet normal 0.0 0.0 1.0
  outer loop
    vertex 1623.575351013938 1807.860595636678 20.999999999999996
    vertex 1624.877557992808 1805.377761660794 21.000000000000007
    vertex 1627.2529712002588 1809.3517963263428 20.999999999999996
  endloop
endfacet
facet normal 0.0 0.0 1.0
  outer loop
    vertex 1627.2529712002588 1809.3517963263428 20.999999999999996
    vertex 1624.877557992808 1805.377761660794 21.000000000000007
    vertex 1627.8682018335367 1806.6165268998516 21.000000000000007
  endloop
endfacet
facet normal 0.0 0.0 1.0
  outer loop
    vertex 1627.2529712002588 1809.3517963263428 20.999999999999996
    vertex 1627.8682018335367 1806.6165268998516 21.000000000000007
    vertex 1631.191230656064 1809.8403474397965 20.999999999999996
  endloop
endfacet
facet normal 0.0 0.0 1.0
  outer loop
    vertex 1631.191230656064 1809.8403474397965 20.999999999999996
    vertex 1627.8682018335367 1806.6165268998516 21.000000000000007
    vertex 1631.0775579928081 1807.0390466538668 21.000000000000007
  endloop
endfacet
facet normal 0.0 0.0 1.0
  outer loop
    vertex 1631.191230656064 1809.8403474397965 20.999999999999996
    vertex 1631.0775579928081 1807.0390466538668 21.000000000000007
    vertex 1634.2869141520796 1806.6165268998516 21.000000000000007
  endloop
endfacet
facet normal 0.0 0.0 1.0
  outer loop
    vertex 1631.191230656064 1809.8403474397965 20.999999999999996
    vertex 1634.2869141520796 1806.6165268998516 21.000000000000007
    vertex 1635.1217435077203 1809.2929550260267 20.999999999999996
  endloop
endfacet
facet normal 0.0 0.0 1.0
  outer loop
    vertex 1635.1217435077203 1809.2929550260267 20.999999999999996
    vertex 1634.2869141520796 1806.6165268998516 21.000000000000007
    vertex 1637.2775579928082 1805.377761660794 21.000000000000007
  endloop
endfacet
facet normal 0.0 0.0 1.0
  outer loop
    vertex 1635.1217435077203 1809.2929550260267 20.999999999999996
    vertex 1637.2775579928082 1805.377761660794 21.000000000000007
    vertex 1638.7766517998678 1807.746922973423 20.999999999999996
  endloop
endfacet
facet normal 0.0 0.0 1.0
  outer loop
    vertex 1638.7766517998678 1807.746922973423 20.999999999999996
    vertex 1637.2775579928082 1805.377761660794 21.000000000000007
    vertex 1639.8456820795213 1803.40717074058 21.000000000000007
  endloop
endfacet
facet normal 0.0 0.0 1.0
  outer loop
    vertex 1638.7766517998678 1807.746922973423 20.999999999999996
    vertex 1639.8456820795213 1803.40717074058 21.000000000000007
    vertex 1641.9068795724181 1805.3076108114317 20.999999999999996
  endloop
endfacet
facet normal 0.0 0.0 1.0
  outer loop
    vertex 1641.9068795724181 1805.3076108114317 20.999999999999996
    vertex 1639.8456820795213 1803.40717074058 21.000000000000007
    vertex 1641.8162729997355 1800.8390466538667 21.000000000000007
  endloop
endfacet
facet normal 0.0 0.0 1.0
  outer loop
    vertex 1641.9068795724181 1805.3076108114317 20.999999999999996
    vertex 1641.8162729997355 1800.8390466538667 21.000000000000007
    vertex 1643.0550382387928 1797.8484028131381 21.000000000000007
  endloop
endfacet
facet normal 0.0 0.0 1.0
  outer loop
    vertex 1641.9068795724181 1805.3076108114317 20.999999999999996
    vertex 1643.0550382387928 1797.8484028131381 21.000000000000007
    vertex 1644.2991069756192 1802.1412536327368 20.999999999999996
  endloop
endfacet
facet normal 0.0 0.0 1.0
  outer loop
    vertex 1644.2991069756192 1802.1412536327368 20.999999999999996
    vertex 1643.0550382387928 1797.8484028131381 21.000000000000007
    vertex 1643.4775579928082 1794.639046653867 21.000000000000007
  endloop
endfacet
facet normal 0.0 0.0 1.0
  outer loop
    vertex 1644.2991069756192 1802.1412536327368 20.999999999999996
    vertex 1643.4775579928082 1794.639046653867 21.000000000000007
    vertex 1644.1854343123644 1786.9399528468073 20.999999999999996
  endloop
endfacet
facet normal 0.0 0.0 1.0
  outer loop
    vertex 1644.2991069756192 1802.1412536327368 20.999999999999996
    vertex 1644.1854343123644 1786.9399528468073 20.999999999999996
    vertex 1645.731466364968 1790.5948611389547 20.999999999999996
  endloop
endfacet
facet normal 0.0 0.0 1.0
  outer loop
    vertex 1644.2991069756192 1802.1412536327368 20.999999999999996
    vertex 1645.731466364968 1790.5948611389547 20.999999999999996
    vertex 1645.7903076652842 1798.4636334464162 20.999999999999996
  endloop
endfacet
facet normal 0.0 0.0 1.0
  outer loop
    vertex 1645.7903076652842 1798.4636334464162 20.999999999999996
    vertex 1645.731466364968 1790.5948611389547 20.999999999999996
    vertex 1646.278858778738 1794.5253739906111 20.999999999999996
  endloop
endfacet
facet normal 0.9209921432729028 -0.3895811494792642 0.0
  outer loop
    vertex 1645.731466364968 1790.5948611389547 3.0
    vertex 1644.1854343123644 1786.9399528468073 20.999999999999996
    vertex 1644.1854343123644 1786.9399528468073 3.0
  endloop
endfacet
facet normal 0.9209921432729028 -0.3895811494792642 0.0
  outer loop
    vertex 1644.1854343123644 1786.9399528468073 20.999999999999996
    vertex 1645.731466364968 1790.5948611389547 3.0
    vertex 1645.731466364968 1790.5948611389547 20.999999999999996
  endloop
endfacet
facet normal 0.9904411180947835 -0.13793618664859145 0.0
  outer loop
    vertex 1646.278858778738 1794.5253739906111 3.0
    vertex 1645.731466364968 1790.5948611389547 20.999999999999996
    vertex 1645.731466364968 1790.5948611389547 3.0
  endloop
endfacet
facet normal 0.9904411180947835 -0.13793618664859145 0.0
  outer loop
    vertex 1645.731466364968 1790.5948611389547 20.999999999999996
    vertex 1646.278858778738 1794.5253739906111 3.0
    vertex 1646.278858778738 1794.5253739906111 20.999999999999996
  endloop
endfacet
facet normal 0.9923931674998561 0.12310889935176417 0.0
  outer loop
    vertex 1645.7903076652842 1798.4636334464162 3.0
    vertex 1646.278858778738 1794.5253739906111 20.999999999999996
    vertex 1646.278858778738 1794.5253739906111 3.0
  endloop
endfacet
facet normal 0.9923931674998561 0.12310889935176417 0.0
  outer loop
    vertex 1646.278858778738 1794.5253739906111 20.999999999999996
    vertex 1645.7903076652842 1798.4636334464162 3.0
    vertex 1645.7903076652842 1798.4636334464162 20.999999999999996
  endloop
endfacet
facet normal 0.92671526254703 0.3757643173085881 0.0
  outer loop
    vertex 1644.2991069756192 1802.1412536327368 3.0
    vertex 1645.7903076652842 1798.4636334464162 20.999999999999996
    vertex 1645.7903076652842 1798.4636334464162 3.0
  endloop
endfacet
facet normal 0.92671526254703 0.3757643173085881 0.0
  outer loop
    vertex 1645.7903076652842 1798.4636334464162 20.999999999999996
    vertex 1644.2991069756192 1802.1412536327368 3.0
    vertex 1644.2991069756192 1802.1412536327368 20.999999999999996
  endloop
endfacet
facet normal 0.7978832439210523 0.6028120180205592 0.0
  outer loop
    vertex 1641.9068795724181 1805.3076108114317 3.0
    vertex 1644.2991069756192 1802.1412536327368 20.999999999999996
    vertex 1644.2991069756192 1802.1412536327368 3.0
  endloop
endfacet
facet normal 0.7978832439210523 0.6028120180205592 0.0
  outer loop
    vertex 1644.2991069756192 1802.1412536327368 20.999999999999996
    vertex 1641.9068795724181 1805.3076108114317 3.0
    vertex 1641.9068795724181 1805.3076108114317 20.999999999999996
  endloop
endfacet
facet normal 0.6146768007861693 0.7887790758984928 0.0
  outer loop
    vertex 1638.7766517998678 1807.746922973423 20.999999999999996
    vertex 1641.9068795724181 1805.3076108114317 3.0
    vertex 1638.7766517998678 1807.746922973423 3.0
  endloop
endfacet
facet normal 0.6146768007861693 0.7887790758984928 0.0
  outer loop
    vertex 1641.9068795724181 1805.3076108114317 3.0
    vertex 1638.7766517998678 1807.746922973423 20.999999999999996
    vertex 1641.9068795724181 1805.3076108114317 20.999999999999996
  endloop
endfacet
facet normal 0.3895811494792642 0.9209921432729028 0.0
  outer loop
    vertex 1635.1217435077203 1809.2929550260267 20.999999999999996
    vertex 1638.7766517998678 1807.746922973423 3.0
    vertex 1635.1217435077203 1809.2929550260267 3.0
  endloop
endfacet
facet normal 0.3895811494792642 0.9209921432729028 0.0
  outer loop
    vertex 1638.7766517998678 1807.746922973423 3.0
    vertex 1635.1217435077203 1809.2929550260267 20.999999999999996
    vertex 1638.7766517998678 1807.746922973423 20.999999999999996
  endloop
endfacet
facet normal 0.13793618664859145 0.9904411180947835 0.0
  outer loop
    vertex 1631.191230656064 1809.8403474397965 20.999999999999996
    vertex 1635.1217435077203 1809.2929550260267 3.0
    vertex 1631.191230656064 1809.8403474397965 3.0
  endloop
endfacet
facet normal 0.13793618664859145 0.9904411180947835 0.0
  outer loop
    vertex 1635.1217435077203 1809.2929550260267 3.0
    vertex 1631.191230656064 1809.8403474397965 20.999999999999996
    vertex 1635.1217435077203 1809.2929550260267 20.999999999999996
  endloop
endfacet
facet normal -0.12310889935176417 0.9923931674998561 0.0
  outer loop
    vertex 1627.2529712002588 1809.3517963263428 20.999999999999996
    vertex 1631.191230656064 1809.8403474397965 3.0
    vertex 1627.2529712002588 1809.3517963263428 3.0
  endloop
endfacet
facet normal -0.12310889935176417 0.9923931674998561 0.0
  outer loop
    vertex 1631.191230656064 1809.8403474397965 3.0
    vertex 1627.2529712002588 1809.3517963263428 20.999999999999996
    vertex 1631.191230656064 1809.8403474397965 20.999999999999996
  endloop
endfacet
facet normal -0.3757643173085881 0.92671526254703 0.0
  outer loop
    vertex 1623.575351013938 1807.860595636678 20.999999999999996
    vertex 1627.2529712002588 1809.3517963263428 3.0
    vertex 1623.575351013938 1807.860595636678 3.0
  endloop
endfacet
facet normal -0.3757643173085881 0.92671526254703 0.0
  outer loop
    vertex 1627.2529712002588 1809.3517963263428 3.0
    vertex 1623.575351013938 1807.860595636678 20.999999999999996
    vertex 1627.2529712002588 1809.3517963263428 20.999999999999996
  endloop
endfacet
facet normal -0.6028120180205231 0.7978832439210795 0.0
  outer loop
    vertex 1620.4089938352433 1805.4683682334771 20.999999999999996
    vertex 1623.575351013938 1807.860595636678 3.0
    vertex 1620.4089938352433 1805.4683682334771 3.0
  endloop
endfacet
facet normal -0.6028120180205231 0.7978832439210795 0.0
  outer loop
    vertex 1623.575351013938 1807.860595636678 3.0
    vertex 1620.4089938352433 1805.4683682334771 20.999999999999996
    vertex 1623.575351013938 1807.860595636678 20.999999999999996
  endloop
endfacet
facet normal -0.7887790758984584 0.6146768007862133 0.0
  outer loop
    vertex 1620.4089938352433 1805.4683682334771 20.999999999999996
    vertex 1617.9696816732521 1802.338140460927 3.0
    vertex 1617.9696816732521 1802.338140460927 20.999999999999996
  endloop
endfacet
facet normal -0.7887790758984584 0.6146768007862133 0.0
  outer loop
    vertex 1617.9696816732521 1802.338140460927 3.0
    vertex 1620.4089938352433 1805.4683682334771 20.999999999999996
    vertex 1620.4089938352433 1805.4683682334771 3.0
  endloop
endfacet
facet normal -0.9209921432728954 0.3895811494792821 0.0
  outer loop
    vertex 1617.9696816732521 1802.338140460927 20.999999999999996
    vertex 1616.423649620648 1798.6832321687784 3.0
    vertex 1616.423649620648 1798.6832321687784 20.999999999999996
  endloop
endfacet
facet normal -0.9209921432728954 0.3895811494792821 0.0
  outer loop
    vertex 1616.423649620648 1798.6832321687784 3.0
    vertex 1617.9696816732521 1802.338140460927 20.999999999999996
    vertex 1617.9696816732521 1802.338140460927 3.0
  endloop
endfacet
facet normal -0.9904411180947853 0.137936186648579 0.0
  outer loop
    vertex 1616.423649620648 1798.6832321687784 20.999999999999996
    vertex 1615.876257206878 1794.7527193171218 3.0
    vertex 1615.876257206878 1794.7527193171218 20.999999999999996
  endloop
endfacet
facet normal -0.9904411180947853 0.137936186648579 0.0
  outer loop
    vertex 1615.876257206878 1794.7527193171218 3.0
    vertex 1616.423649620648 1798.6832321687784 20.999999999999996
    vertex 1616.423649620648 1798.6832321687784 3.0
  endloop
endfacet
facet normal -0.9923931674998476 -0.12310889935183117 -0.0
  outer loop
    vertex 1615.876257206878 1794.7527193171218 20.999999999999996
    vertex 1616.364808320332 1790.8144598613173 3.0
    vertex 1616.364808320332 1790.8144598613173 20.999999999999996
  endloop
endfacet
facet normal -0.9923931674998476 -0.12310889935183117 -0.0
  outer loop
    vertex 1616.364808320332 1790.8144598613173 3.0
    vertex 1615.876257206878 1794.7527193171218 20.999999999999996
    vertex 1615.876257206878 1794.7527193171218 3.0
  endloop
endfacet
facet normal -0.92671526254703 -0.3757643173085881 -0.0
  outer loop
    vertex 1616.364808320332 1790.8144598613173 20.999999999999996
    vertex 1617.8560090099968 1787.1368396749967 3.0
    vertex 1617.8560090099968 1787.1368396749967 20.999999999999996
  endloop
endfacet
facet normal -0.92671526254703 -0.3757643173085881 -0.0
  outer loop
    vertex 1617.8560090099968 1787.1368396749967 3.0
    vertex 1616.364808320332 1790.8144598613173 20.999999999999996
    vertex 1616.364808320332 1790.8144598613173 3.0
  endloop
endfacet
facet normal -0.7978832439210629 -0.602812018020545 -0.0
  outer loop
    vertex 1617.8560090099968 1787.1368396749967 20.999999999999996
    vertex 1620.2482364131977 1783.970482496302 3.0
    vertex 1620.2482364131977 1783.970482496302 20.999999999999996
  endloop
endfacet
facet normal -0.7978832439210629 -0.602812018020545 -0.0
  outer loop
    vertex 1620.2482364131977 1783.970482496302 3.0
    vertex 1617.8560090099968 1787.1368396749967 20.999999999999996
    vertex 1617.8560090099968 1787.1368396749967 3.0
  endloop
endfacet
facet normal -0.6146768007861817 -0.788779075898483 -0.0
  outer loop
    vertex 1623.3784641857485 1781.5311703343107 20.999999999999996
    vertex 1620.2482364131977 1783.970482496302 3.0
    vertex 1623.3784641857485 1781.5311703343107 3.0
  endloop
endfacet
facet normal -0.6146768007861817 -0.788779075898483 -0.0
  outer loop
    vertex 1620.2482364131977 1783.970482496302 3.0
    vertex 1623.3784641857485 1781.5311703343107 20.999999999999996
    vertex 1620.2482364131977 1783.970482496302 20.999999999999996
  endloop
endfacet
facet normal -0.3895811494792479 -0.9209921432729098 -0.0
  outer loop
    vertex 1627.0333724778961 1779.985138281707 20.999999999999996
    vertex 1623.3784641857485 1781.5311703343107 3.0
    vertex 1627.0333724778961 1779.985138281707 3.0
  endloop
endfacet
facet normal -0.3895811494792479 -0.9209921432729098 -0.0
  outer loop
    vertex 1623.3784641857485 1781.5311703343107 3.0
    vertex 1627.0333724778961 1779.985138281707 20.999999999999996
    vertex 1623.3784641857485 1781.5311703343107 20.999999999999996
  endloop
endfacet
facet normal -0.13793618664859145 -0.9904411180947835 -0.0
  outer loop
    vertex 1630.9638853295523 1779.437745867937 20.999999999999996
    vertex 1627.0333724778961 1779.985138281707 3.0
    vertex 1630.9638853295523 1779.437745867937 3.0
  endloop
endfacet
facet normal -0.13793618664859145 -0.9904411180947835 -0.0
  outer loop
    vertex 1627.0333724778961 1779.985138281707 3.0
    vertex 1630.9638853295523 1779.437745867937 20.999999999999996
    vertex 1627.0333724778961 1779.985138281707 20.999999999999996
  endloop
endfacet
facet normal 0.12310889935176417 -0.9923931674998561 0.0
  outer loop
    vertex 1634.9021447853577 1779.9262969813908 20.999999999999996
    vertex 1630.9638853295523 1779.437745867937 3.0
    vertex 1634.9021447853577 1779.9262969813908 3.0
  endloop
endfacet
facet normal 0.12310889935176417 -0.9923931674998561 0.0
  outer loop
    vertex 1630.9638853295523 1779.437745867937 3.0
    vertex 1634.9021447853577 1779.9262969813908 20.999999999999996
    vertex 1630.9638853295523 1779.437745867937 20.999999999999996
  endloop
endfacet
facet normal 0.3757643173085881 -0.92671526254703 0.0
  outer loop
    vertex 1638.5797649716783 1781.4174976710556 20.999999999999996
    vertex 1634.9021447853577 1779.9262969813908 3.0
    vertex 1638.5797649716783 1781.4174976710556 3.0
  endloop
endfacet
facet normal 0.3757643173085881 -0.92671526254703 0.0
  outer loop
    vertex 1634.9021447853577 1779.9262969813908 3.0
    vertex 1638.5797649716783 1781.4174976710556 20.999999999999996
    vertex 1634.9021447853577 1779.9262969813908 20.999999999999996
  endloop
endfacet
facet normal 0.6028120180205592 -0.7978832439210523 0.0
  outer loop
    vertex 1641.7461221503731 1783.8097250742567 20.999999999999996
    vertex 1638.5797649716783 1781.4174976710556 3.0
    vertex 1641.7461221503731 1783.8097250742567 3.0
  endloop
endfacet
facet normal 0.6028120180205592 -0.7978832439210523 0.0
  outer loop
    vertex 1638.5797649716783 1781.4174976710556 3.0
    vertex 1641.7461221503731 1783.8097250742567 20.999999999999996
    vertex 1638.5797649716783 1781.4174976710556 20.999999999999996
  endloop
endfacet
facet normal 0.7887790758984928 -0.6146768007861693 0.0
  outer loop
    vertex 1644.1854343123644 1786.9399528468073 3.0
    vertex 1641.7461221503731 1783.8097250742567 20.999999999999996
    vertex 1641.7461221503731 1783.8097250742567 3.0
  endloop
endfacet
facet normal 0.7887790758984928 -0.6146768007861693 0.0
  outer loop
    vertex 1641.7461221503731 1783.8097250742567 20.999999999999996
    vertex 1644.1854343123644 1786.9399528468073 3.0
    vertex 1644.1854343123644 1786.9399528468073 20.999999999999996
  endloop
endfacet
facet normal -0.0 1.0 -0.0
  outer loop
    vertex 1617.177557992808 1816.6390466538671 -4.999999999999999
    vertex 1644.9775579928082 1816.6390466538671 -9.999999999999998
    vertex 1617.177557992808 1816.6390466538671 -9.999999999999998
  endloop
endfacet
facet normal -0.0 1.0 -0.0
  outer loop
    vertex 1644.9775579928082 1816.6390466538671 -9.999999999999998
    vertex 1617.177557992808 1816.6390466538671 -4.999999999999999
    vertex 1644.9775579928082 1816.6390466538671 -4.999999999999999
  endloop
endfacet
endsolid lüfter_1zoll
