G75*
%MOIN*%
%OFA0B0*%
%FSLAX25Y25*%
%IPPOS*%
%LPD*%
%AMOC8*
5,1,8,0,0,1.08239X$1,22.5*
%
%ADD10C,0.06000*%
%ADD11C,0.08400*%
%ADD12C,0.13398*%
%ADD13C,0.06800*%
%ADD14OC8,0.06000*%
%ADD15OC8,0.06800*%
%ADD16C,0.07400*%
%ADD17C,0.13800*%
%ADD18OC8,0.07100*%
%ADD19C,0.08674*%
%ADD20C,0.06400*%
%ADD21C,0.05131*%
D10*
X0131500Y0046400D02*
X0131500Y0051600D01*
X0141500Y0051600D02*
X0141500Y0046400D01*
X0151500Y0046400D02*
X0151500Y0051600D01*
X0161500Y0051600D02*
X0161500Y0046400D01*
X0171500Y0046400D02*
X0171500Y0051600D01*
X0181500Y0051600D02*
X0181500Y0046400D01*
X0191500Y0046400D02*
X0191500Y0051600D01*
X0201500Y0051600D02*
X0201500Y0046400D01*
X0201500Y0076400D02*
X0201500Y0081600D01*
X0191500Y0081600D02*
X0191500Y0076400D01*
X0181500Y0076400D02*
X0181500Y0081600D01*
X0171500Y0081600D02*
X0171500Y0076400D01*
X0161500Y0076400D02*
X0161500Y0081600D01*
X0151500Y0081600D02*
X0151500Y0076400D01*
X0141500Y0076400D02*
X0141500Y0081600D01*
X0131500Y0081600D02*
X0131500Y0076400D01*
D11*
X0146500Y0109000D03*
X0156500Y0109000D03*
X0166500Y0109000D03*
X0176500Y0109000D03*
X0186500Y0109000D03*
X0196500Y0109000D03*
X0206500Y0109000D03*
X0216500Y0109000D03*
X0226500Y0109000D03*
X0236500Y0109000D03*
X0246500Y0109000D03*
X0256500Y0109000D03*
X0266500Y0109000D03*
X0276500Y0109000D03*
X0286500Y0109000D03*
X0286500Y0199000D03*
X0276500Y0199000D03*
X0266500Y0199000D03*
X0256500Y0199000D03*
X0246500Y0199000D03*
X0236500Y0199000D03*
X0226500Y0199000D03*
X0216500Y0199000D03*
X0206500Y0199000D03*
X0196500Y0199000D03*
X0186500Y0199000D03*
X0176500Y0199000D03*
X0166500Y0199000D03*
X0156500Y0199000D03*
X0146500Y0199000D03*
D12*
X0131500Y0194000D03*
X0131500Y0114000D03*
X0301500Y0114000D03*
X0301500Y0194000D03*
D13*
X0266500Y0216000D02*
X0266500Y0222000D01*
X0266500Y0228500D02*
X0266500Y0234500D01*
X0256500Y0234500D02*
X0256500Y0228500D01*
X0256500Y0222000D02*
X0256500Y0216000D01*
X0246500Y0216000D02*
X0246500Y0222000D01*
X0246500Y0228500D02*
X0246500Y0234500D01*
X0236500Y0222000D02*
X0236500Y0216000D01*
X0226500Y0216000D02*
X0226500Y0222000D01*
X0216500Y0222000D02*
X0216500Y0216000D01*
X0206500Y0216000D02*
X0206500Y0222000D01*
X0196500Y0222000D02*
X0196500Y0216000D01*
X0186500Y0216000D02*
X0186500Y0222000D01*
X0176500Y0222000D02*
X0176500Y0216000D01*
X0166500Y0216000D02*
X0166500Y0222000D01*
X0156500Y0222000D02*
X0156500Y0216000D01*
X0146500Y0216000D02*
X0146500Y0222000D01*
X0136500Y0222000D02*
X0136500Y0216000D01*
X0126500Y0216000D02*
X0126500Y0222000D01*
X0116500Y0222000D02*
X0116500Y0216000D01*
X0226500Y0087000D02*
X0226500Y0081000D01*
X0236500Y0081000D02*
X0236500Y0087000D01*
X0246500Y0087000D02*
X0246500Y0081000D01*
X0256500Y0081000D02*
X0256500Y0087000D01*
X0266500Y0087000D02*
X0266500Y0081000D01*
X0276500Y0081000D02*
X0276500Y0087000D01*
X0286500Y0087000D02*
X0286500Y0081000D01*
X0296500Y0081000D02*
X0296500Y0087000D01*
X0289500Y0059000D02*
X0283500Y0059000D01*
X0283500Y0049000D02*
X0289500Y0049000D01*
X0289500Y0039000D02*
X0283500Y0039000D01*
X0254500Y0029000D02*
X0248500Y0029000D01*
X0248500Y0019000D02*
X0254500Y0019000D01*
X0109500Y0014000D02*
X0103500Y0014000D01*
X0103500Y0024000D02*
X0109500Y0024000D01*
X0076500Y0017000D02*
X0076500Y0011000D01*
X0066500Y0011000D02*
X0066500Y0017000D01*
D14*
X0061500Y0031500D03*
X0061500Y0044000D03*
X0061500Y0056500D03*
X0061500Y0069000D03*
X0061500Y0081500D03*
X0061500Y0094000D03*
X0101500Y0094000D03*
X0101500Y0081500D03*
X0101500Y0069000D03*
X0101500Y0056500D03*
X0101500Y0044000D03*
X0101500Y0031500D03*
X0116500Y0019000D03*
X0156500Y0019000D03*
X0161500Y0019000D03*
X0161500Y0034000D03*
X0201500Y0034000D03*
X0201500Y0019000D03*
X0211500Y0051500D03*
X0211500Y0066500D03*
X0251500Y0066500D03*
X0251500Y0051500D03*
X0226500Y0171500D03*
X0186500Y0171500D03*
D15*
X0114500Y0094000D03*
X0136500Y0089000D03*
X0146500Y0034000D03*
D16*
X0096500Y0160700D02*
X0096500Y0167300D01*
X0086500Y0167300D02*
X0086500Y0160700D01*
X0076500Y0160700D02*
X0076500Y0167300D01*
D17*
X0086500Y0223000D03*
D18*
X0076500Y0144000D03*
X0096500Y0144000D03*
X0096500Y0124000D03*
X0076500Y0124000D03*
D19*
X0047937Y0210102D02*
X0040063Y0210102D01*
X0032189Y0225063D02*
X0032189Y0232937D01*
X0056205Y0232937D02*
X0056205Y0225063D01*
D20*
X0036426Y0022898D02*
X0030826Y0022898D01*
X0038700Y0029000D02*
X0044300Y0029000D01*
X0040363Y0037858D02*
X0034763Y0037858D01*
X0036426Y0072898D02*
X0030826Y0072898D01*
X0038700Y0079000D02*
X0044300Y0079000D01*
X0040363Y0087858D02*
X0034763Y0087858D01*
X0036426Y0122898D02*
X0030826Y0122898D01*
X0038700Y0129000D02*
X0044300Y0129000D01*
X0040363Y0137858D02*
X0034763Y0137858D01*
X0036426Y0172898D02*
X0030826Y0172898D01*
X0038700Y0179000D02*
X0044300Y0179000D01*
X0040363Y0187858D02*
X0034763Y0187858D01*
D21*
X0011972Y0180378D03*
X0011972Y0130378D03*
X0011972Y0080378D03*
X0011972Y0030378D03*
M02*
