%
M48
M72
T01C0.03150
T02C0.03200
T03C0.03937
T04C0.04000
T05C0.04331
T06C0.04400
T07C0.12598
T08C0.13000
%
T01
X33626Y22898
X41500Y29000
X37563Y37858
X33626Y72898
X41500Y79000
X37563Y87858
X33626Y122898
X41500Y129000
X37563Y137858
X33626Y172898
X41500Y179000
X37563Y187858
X146500Y199000
X156500Y199000
X166500Y199000
X176500Y199000
X186500Y199000
X196500Y199000
X206500Y199000
X216500Y199000
X226500Y199000
X236500Y199000
X246500Y199000
X256500Y199000
X266500Y199000
X276500Y199000
X286500Y199000
X286500Y109000
X276500Y109000
X266500Y109000
X256500Y109000
X246500Y109000
X236500Y109000
X226500Y109000
X216500Y109000
X206500Y109000
X196500Y109000
X186500Y109000
X176500Y109000
X166500Y109000
X156500Y109000
X146500Y109000
T02
X61500Y44000
X61500Y31500
X61500Y56500
X61500Y69000
X61500Y81500
X61500Y94000
X76500Y144000
X96500Y144000
X96500Y124000
X76500Y124000
X101500Y94000
X101500Y81500
X101500Y69000
X101500Y56500
X101500Y44000
X101500Y31500
X116500Y19000
X131500Y49000
X141500Y49000
X151500Y49000
X161500Y49000
X171500Y49000
X181500Y49000
X191500Y49000
X201500Y49000
X211500Y51500
X211500Y66500
X201500Y79000
X191500Y79000
X181500Y79000
X171500Y79000
X161500Y79000
X151500Y79000
X141500Y79000
X131500Y79000
X161500Y34000
X161500Y19000
X156500Y19000
X201500Y19000
X201500Y34000
X251500Y51500
X251500Y66500
X226500Y171500
X186500Y171500
T03
X44000Y210102
X56205Y229000
X32189Y229000
T04
X66500Y14000
X76500Y14000
X106500Y14000
X106500Y24000
X146500Y34000
X136500Y89000
X114500Y94000
X116500Y219000
X126500Y219000
X136500Y219000
X146500Y219000
X156500Y219000
X166500Y219000
X176500Y219000
X186500Y219000
X196500Y219000
X206500Y219000
X216500Y219000
X226500Y219000
X236500Y219000
X246500Y219000
X256500Y219000
X266500Y219000
X266500Y231500
X256500Y231500
X246500Y231500
X246500Y84000
X236500Y84000
X226500Y84000
X256500Y84000
X266500Y84000
X276500Y84000
X286500Y84000
X296500Y84000
X286500Y59000
X286500Y49000
X286500Y39000
X251500Y29000
X251500Y19000
T05
X11972Y30378
X11972Y80378
X11972Y130378
X11972Y180378
T06
X76500Y164000
X86500Y164000
X96500Y164000
T07
X131500Y194000
X131500Y114000
X301500Y114000
X301500Y194000
T08
X86500Y223000
M30
