G75*
%MOIN*%
%OFA0B0*%
%FSLAX25Y25*%
%IPPOS*%
%LPD*%
%AMOC8*
5,1,8,0,0,1.08239X$1,22.5*
%
%ADD10C,0.00000*%
%ADD11C,0.00600*%
%ADD12C,0.00500*%
%ADD13R,0.03400X0.02400*%
%ADD14C,0.00200*%
%ADD15C,0.00700*%
%ADD16R,0.03000X0.02500*%
%ADD17R,0.05000X0.11000*%
%ADD18C,0.01200*%
%ADD19C,0.00800*%
%ADD20C,0.00400*%
%ADD21C,0.00197*%
%ADD22C,0.02000*%
%ADD23R,0.03000X0.42000*%
%ADD24R,0.02000X0.07500*%
%ADD25R,0.02000X0.03000*%
D10*
X0001500Y0001500D02*
X0001500Y0258961D01*
X0337701Y0258961D01*
X0337701Y0001500D01*
X0001500Y0001500D01*
X0009807Y0030378D02*
X0009809Y0030471D01*
X0009815Y0030563D01*
X0009825Y0030655D01*
X0009839Y0030746D01*
X0009856Y0030837D01*
X0009878Y0030927D01*
X0009903Y0031016D01*
X0009932Y0031104D01*
X0009965Y0031190D01*
X0010002Y0031275D01*
X0010042Y0031359D01*
X0010086Y0031440D01*
X0010133Y0031520D01*
X0010183Y0031598D01*
X0010237Y0031673D01*
X0010294Y0031746D01*
X0010354Y0031816D01*
X0010417Y0031884D01*
X0010483Y0031949D01*
X0010551Y0032011D01*
X0010622Y0032071D01*
X0010696Y0032127D01*
X0010772Y0032180D01*
X0010850Y0032229D01*
X0010930Y0032276D01*
X0011012Y0032318D01*
X0011096Y0032358D01*
X0011181Y0032393D01*
X0011268Y0032425D01*
X0011356Y0032454D01*
X0011445Y0032478D01*
X0011535Y0032499D01*
X0011626Y0032515D01*
X0011718Y0032528D01*
X0011810Y0032537D01*
X0011903Y0032542D01*
X0011995Y0032543D01*
X0012088Y0032540D01*
X0012180Y0032533D01*
X0012272Y0032522D01*
X0012363Y0032507D01*
X0012454Y0032489D01*
X0012544Y0032466D01*
X0012632Y0032440D01*
X0012720Y0032410D01*
X0012806Y0032376D01*
X0012890Y0032339D01*
X0012973Y0032297D01*
X0013054Y0032253D01*
X0013134Y0032205D01*
X0013211Y0032154D01*
X0013285Y0032099D01*
X0013358Y0032041D01*
X0013428Y0031981D01*
X0013495Y0031917D01*
X0013559Y0031851D01*
X0013621Y0031781D01*
X0013679Y0031710D01*
X0013734Y0031636D01*
X0013786Y0031559D01*
X0013835Y0031480D01*
X0013881Y0031400D01*
X0013923Y0031317D01*
X0013961Y0031233D01*
X0013996Y0031147D01*
X0014027Y0031060D01*
X0014054Y0030972D01*
X0014077Y0030882D01*
X0014097Y0030792D01*
X0014113Y0030701D01*
X0014125Y0030609D01*
X0014133Y0030517D01*
X0014137Y0030424D01*
X0014137Y0030332D01*
X0014133Y0030239D01*
X0014125Y0030147D01*
X0014113Y0030055D01*
X0014097Y0029964D01*
X0014077Y0029874D01*
X0014054Y0029784D01*
X0014027Y0029696D01*
X0013996Y0029609D01*
X0013961Y0029523D01*
X0013923Y0029439D01*
X0013881Y0029356D01*
X0013835Y0029276D01*
X0013786Y0029197D01*
X0013734Y0029120D01*
X0013679Y0029046D01*
X0013621Y0028975D01*
X0013559Y0028905D01*
X0013495Y0028839D01*
X0013428Y0028775D01*
X0013358Y0028715D01*
X0013285Y0028657D01*
X0013211Y0028602D01*
X0013134Y0028551D01*
X0013055Y0028503D01*
X0012973Y0028459D01*
X0012890Y0028417D01*
X0012806Y0028380D01*
X0012720Y0028346D01*
X0012632Y0028316D01*
X0012544Y0028290D01*
X0012454Y0028267D01*
X0012363Y0028249D01*
X0012272Y0028234D01*
X0012180Y0028223D01*
X0012088Y0028216D01*
X0011995Y0028213D01*
X0011903Y0028214D01*
X0011810Y0028219D01*
X0011718Y0028228D01*
X0011626Y0028241D01*
X0011535Y0028257D01*
X0011445Y0028278D01*
X0011356Y0028302D01*
X0011268Y0028331D01*
X0011181Y0028363D01*
X0011096Y0028398D01*
X0011012Y0028438D01*
X0010930Y0028480D01*
X0010850Y0028527D01*
X0010772Y0028576D01*
X0010696Y0028629D01*
X0010622Y0028685D01*
X0010551Y0028745D01*
X0010483Y0028807D01*
X0010417Y0028872D01*
X0010354Y0028940D01*
X0010294Y0029010D01*
X0010237Y0029083D01*
X0010183Y0029158D01*
X0010133Y0029236D01*
X0010086Y0029316D01*
X0010042Y0029397D01*
X0010002Y0029481D01*
X0009965Y0029566D01*
X0009932Y0029652D01*
X0009903Y0029740D01*
X0009878Y0029829D01*
X0009856Y0029919D01*
X0009839Y0030010D01*
X0009825Y0030101D01*
X0009815Y0030193D01*
X0009809Y0030285D01*
X0009807Y0030378D01*
X0009807Y0080378D02*
X0009809Y0080471D01*
X0009815Y0080563D01*
X0009825Y0080655D01*
X0009839Y0080746D01*
X0009856Y0080837D01*
X0009878Y0080927D01*
X0009903Y0081016D01*
X0009932Y0081104D01*
X0009965Y0081190D01*
X0010002Y0081275D01*
X0010042Y0081359D01*
X0010086Y0081440D01*
X0010133Y0081520D01*
X0010183Y0081598D01*
X0010237Y0081673D01*
X0010294Y0081746D01*
X0010354Y0081816D01*
X0010417Y0081884D01*
X0010483Y0081949D01*
X0010551Y0082011D01*
X0010622Y0082071D01*
X0010696Y0082127D01*
X0010772Y0082180D01*
X0010850Y0082229D01*
X0010930Y0082276D01*
X0011012Y0082318D01*
X0011096Y0082358D01*
X0011181Y0082393D01*
X0011268Y0082425D01*
X0011356Y0082454D01*
X0011445Y0082478D01*
X0011535Y0082499D01*
X0011626Y0082515D01*
X0011718Y0082528D01*
X0011810Y0082537D01*
X0011903Y0082542D01*
X0011995Y0082543D01*
X0012088Y0082540D01*
X0012180Y0082533D01*
X0012272Y0082522D01*
X0012363Y0082507D01*
X0012454Y0082489D01*
X0012544Y0082466D01*
X0012632Y0082440D01*
X0012720Y0082410D01*
X0012806Y0082376D01*
X0012890Y0082339D01*
X0012973Y0082297D01*
X0013054Y0082253D01*
X0013134Y0082205D01*
X0013211Y0082154D01*
X0013285Y0082099D01*
X0013358Y0082041D01*
X0013428Y0081981D01*
X0013495Y0081917D01*
X0013559Y0081851D01*
X0013621Y0081781D01*
X0013679Y0081710D01*
X0013734Y0081636D01*
X0013786Y0081559D01*
X0013835Y0081480D01*
X0013881Y0081400D01*
X0013923Y0081317D01*
X0013961Y0081233D01*
X0013996Y0081147D01*
X0014027Y0081060D01*
X0014054Y0080972D01*
X0014077Y0080882D01*
X0014097Y0080792D01*
X0014113Y0080701D01*
X0014125Y0080609D01*
X0014133Y0080517D01*
X0014137Y0080424D01*
X0014137Y0080332D01*
X0014133Y0080239D01*
X0014125Y0080147D01*
X0014113Y0080055D01*
X0014097Y0079964D01*
X0014077Y0079874D01*
X0014054Y0079784D01*
X0014027Y0079696D01*
X0013996Y0079609D01*
X0013961Y0079523D01*
X0013923Y0079439D01*
X0013881Y0079356D01*
X0013835Y0079276D01*
X0013786Y0079197D01*
X0013734Y0079120D01*
X0013679Y0079046D01*
X0013621Y0078975D01*
X0013559Y0078905D01*
X0013495Y0078839D01*
X0013428Y0078775D01*
X0013358Y0078715D01*
X0013285Y0078657D01*
X0013211Y0078602D01*
X0013134Y0078551D01*
X0013055Y0078503D01*
X0012973Y0078459D01*
X0012890Y0078417D01*
X0012806Y0078380D01*
X0012720Y0078346D01*
X0012632Y0078316D01*
X0012544Y0078290D01*
X0012454Y0078267D01*
X0012363Y0078249D01*
X0012272Y0078234D01*
X0012180Y0078223D01*
X0012088Y0078216D01*
X0011995Y0078213D01*
X0011903Y0078214D01*
X0011810Y0078219D01*
X0011718Y0078228D01*
X0011626Y0078241D01*
X0011535Y0078257D01*
X0011445Y0078278D01*
X0011356Y0078302D01*
X0011268Y0078331D01*
X0011181Y0078363D01*
X0011096Y0078398D01*
X0011012Y0078438D01*
X0010930Y0078480D01*
X0010850Y0078527D01*
X0010772Y0078576D01*
X0010696Y0078629D01*
X0010622Y0078685D01*
X0010551Y0078745D01*
X0010483Y0078807D01*
X0010417Y0078872D01*
X0010354Y0078940D01*
X0010294Y0079010D01*
X0010237Y0079083D01*
X0010183Y0079158D01*
X0010133Y0079236D01*
X0010086Y0079316D01*
X0010042Y0079397D01*
X0010002Y0079481D01*
X0009965Y0079566D01*
X0009932Y0079652D01*
X0009903Y0079740D01*
X0009878Y0079829D01*
X0009856Y0079919D01*
X0009839Y0080010D01*
X0009825Y0080101D01*
X0009815Y0080193D01*
X0009809Y0080285D01*
X0009807Y0080378D01*
X0009807Y0130378D02*
X0009809Y0130471D01*
X0009815Y0130563D01*
X0009825Y0130655D01*
X0009839Y0130746D01*
X0009856Y0130837D01*
X0009878Y0130927D01*
X0009903Y0131016D01*
X0009932Y0131104D01*
X0009965Y0131190D01*
X0010002Y0131275D01*
X0010042Y0131359D01*
X0010086Y0131440D01*
X0010133Y0131520D01*
X0010183Y0131598D01*
X0010237Y0131673D01*
X0010294Y0131746D01*
X0010354Y0131816D01*
X0010417Y0131884D01*
X0010483Y0131949D01*
X0010551Y0132011D01*
X0010622Y0132071D01*
X0010696Y0132127D01*
X0010772Y0132180D01*
X0010850Y0132229D01*
X0010930Y0132276D01*
X0011012Y0132318D01*
X0011096Y0132358D01*
X0011181Y0132393D01*
X0011268Y0132425D01*
X0011356Y0132454D01*
X0011445Y0132478D01*
X0011535Y0132499D01*
X0011626Y0132515D01*
X0011718Y0132528D01*
X0011810Y0132537D01*
X0011903Y0132542D01*
X0011995Y0132543D01*
X0012088Y0132540D01*
X0012180Y0132533D01*
X0012272Y0132522D01*
X0012363Y0132507D01*
X0012454Y0132489D01*
X0012544Y0132466D01*
X0012632Y0132440D01*
X0012720Y0132410D01*
X0012806Y0132376D01*
X0012890Y0132339D01*
X0012973Y0132297D01*
X0013054Y0132253D01*
X0013134Y0132205D01*
X0013211Y0132154D01*
X0013285Y0132099D01*
X0013358Y0132041D01*
X0013428Y0131981D01*
X0013495Y0131917D01*
X0013559Y0131851D01*
X0013621Y0131781D01*
X0013679Y0131710D01*
X0013734Y0131636D01*
X0013786Y0131559D01*
X0013835Y0131480D01*
X0013881Y0131400D01*
X0013923Y0131317D01*
X0013961Y0131233D01*
X0013996Y0131147D01*
X0014027Y0131060D01*
X0014054Y0130972D01*
X0014077Y0130882D01*
X0014097Y0130792D01*
X0014113Y0130701D01*
X0014125Y0130609D01*
X0014133Y0130517D01*
X0014137Y0130424D01*
X0014137Y0130332D01*
X0014133Y0130239D01*
X0014125Y0130147D01*
X0014113Y0130055D01*
X0014097Y0129964D01*
X0014077Y0129874D01*
X0014054Y0129784D01*
X0014027Y0129696D01*
X0013996Y0129609D01*
X0013961Y0129523D01*
X0013923Y0129439D01*
X0013881Y0129356D01*
X0013835Y0129276D01*
X0013786Y0129197D01*
X0013734Y0129120D01*
X0013679Y0129046D01*
X0013621Y0128975D01*
X0013559Y0128905D01*
X0013495Y0128839D01*
X0013428Y0128775D01*
X0013358Y0128715D01*
X0013285Y0128657D01*
X0013211Y0128602D01*
X0013134Y0128551D01*
X0013055Y0128503D01*
X0012973Y0128459D01*
X0012890Y0128417D01*
X0012806Y0128380D01*
X0012720Y0128346D01*
X0012632Y0128316D01*
X0012544Y0128290D01*
X0012454Y0128267D01*
X0012363Y0128249D01*
X0012272Y0128234D01*
X0012180Y0128223D01*
X0012088Y0128216D01*
X0011995Y0128213D01*
X0011903Y0128214D01*
X0011810Y0128219D01*
X0011718Y0128228D01*
X0011626Y0128241D01*
X0011535Y0128257D01*
X0011445Y0128278D01*
X0011356Y0128302D01*
X0011268Y0128331D01*
X0011181Y0128363D01*
X0011096Y0128398D01*
X0011012Y0128438D01*
X0010930Y0128480D01*
X0010850Y0128527D01*
X0010772Y0128576D01*
X0010696Y0128629D01*
X0010622Y0128685D01*
X0010551Y0128745D01*
X0010483Y0128807D01*
X0010417Y0128872D01*
X0010354Y0128940D01*
X0010294Y0129010D01*
X0010237Y0129083D01*
X0010183Y0129158D01*
X0010133Y0129236D01*
X0010086Y0129316D01*
X0010042Y0129397D01*
X0010002Y0129481D01*
X0009965Y0129566D01*
X0009932Y0129652D01*
X0009903Y0129740D01*
X0009878Y0129829D01*
X0009856Y0129919D01*
X0009839Y0130010D01*
X0009825Y0130101D01*
X0009815Y0130193D01*
X0009809Y0130285D01*
X0009807Y0130378D01*
X0009807Y0180378D02*
X0009809Y0180471D01*
X0009815Y0180563D01*
X0009825Y0180655D01*
X0009839Y0180746D01*
X0009856Y0180837D01*
X0009878Y0180927D01*
X0009903Y0181016D01*
X0009932Y0181104D01*
X0009965Y0181190D01*
X0010002Y0181275D01*
X0010042Y0181359D01*
X0010086Y0181440D01*
X0010133Y0181520D01*
X0010183Y0181598D01*
X0010237Y0181673D01*
X0010294Y0181746D01*
X0010354Y0181816D01*
X0010417Y0181884D01*
X0010483Y0181949D01*
X0010551Y0182011D01*
X0010622Y0182071D01*
X0010696Y0182127D01*
X0010772Y0182180D01*
X0010850Y0182229D01*
X0010930Y0182276D01*
X0011012Y0182318D01*
X0011096Y0182358D01*
X0011181Y0182393D01*
X0011268Y0182425D01*
X0011356Y0182454D01*
X0011445Y0182478D01*
X0011535Y0182499D01*
X0011626Y0182515D01*
X0011718Y0182528D01*
X0011810Y0182537D01*
X0011903Y0182542D01*
X0011995Y0182543D01*
X0012088Y0182540D01*
X0012180Y0182533D01*
X0012272Y0182522D01*
X0012363Y0182507D01*
X0012454Y0182489D01*
X0012544Y0182466D01*
X0012632Y0182440D01*
X0012720Y0182410D01*
X0012806Y0182376D01*
X0012890Y0182339D01*
X0012973Y0182297D01*
X0013054Y0182253D01*
X0013134Y0182205D01*
X0013211Y0182154D01*
X0013285Y0182099D01*
X0013358Y0182041D01*
X0013428Y0181981D01*
X0013495Y0181917D01*
X0013559Y0181851D01*
X0013621Y0181781D01*
X0013679Y0181710D01*
X0013734Y0181636D01*
X0013786Y0181559D01*
X0013835Y0181480D01*
X0013881Y0181400D01*
X0013923Y0181317D01*
X0013961Y0181233D01*
X0013996Y0181147D01*
X0014027Y0181060D01*
X0014054Y0180972D01*
X0014077Y0180882D01*
X0014097Y0180792D01*
X0014113Y0180701D01*
X0014125Y0180609D01*
X0014133Y0180517D01*
X0014137Y0180424D01*
X0014137Y0180332D01*
X0014133Y0180239D01*
X0014125Y0180147D01*
X0014113Y0180055D01*
X0014097Y0179964D01*
X0014077Y0179874D01*
X0014054Y0179784D01*
X0014027Y0179696D01*
X0013996Y0179609D01*
X0013961Y0179523D01*
X0013923Y0179439D01*
X0013881Y0179356D01*
X0013835Y0179276D01*
X0013786Y0179197D01*
X0013734Y0179120D01*
X0013679Y0179046D01*
X0013621Y0178975D01*
X0013559Y0178905D01*
X0013495Y0178839D01*
X0013428Y0178775D01*
X0013358Y0178715D01*
X0013285Y0178657D01*
X0013211Y0178602D01*
X0013134Y0178551D01*
X0013055Y0178503D01*
X0012973Y0178459D01*
X0012890Y0178417D01*
X0012806Y0178380D01*
X0012720Y0178346D01*
X0012632Y0178316D01*
X0012544Y0178290D01*
X0012454Y0178267D01*
X0012363Y0178249D01*
X0012272Y0178234D01*
X0012180Y0178223D01*
X0012088Y0178216D01*
X0011995Y0178213D01*
X0011903Y0178214D01*
X0011810Y0178219D01*
X0011718Y0178228D01*
X0011626Y0178241D01*
X0011535Y0178257D01*
X0011445Y0178278D01*
X0011356Y0178302D01*
X0011268Y0178331D01*
X0011181Y0178363D01*
X0011096Y0178398D01*
X0011012Y0178438D01*
X0010930Y0178480D01*
X0010850Y0178527D01*
X0010772Y0178576D01*
X0010696Y0178629D01*
X0010622Y0178685D01*
X0010551Y0178745D01*
X0010483Y0178807D01*
X0010417Y0178872D01*
X0010354Y0178940D01*
X0010294Y0179010D01*
X0010237Y0179083D01*
X0010183Y0179158D01*
X0010133Y0179236D01*
X0010086Y0179316D01*
X0010042Y0179397D01*
X0010002Y0179481D01*
X0009965Y0179566D01*
X0009932Y0179652D01*
X0009903Y0179740D01*
X0009878Y0179829D01*
X0009856Y0179919D01*
X0009839Y0180010D01*
X0009825Y0180101D01*
X0009815Y0180193D01*
X0009809Y0180285D01*
X0009807Y0180378D01*
X0080000Y0223000D02*
X0080002Y0223161D01*
X0080008Y0223321D01*
X0080018Y0223482D01*
X0080032Y0223642D01*
X0080050Y0223802D01*
X0080071Y0223961D01*
X0080097Y0224120D01*
X0080127Y0224278D01*
X0080160Y0224435D01*
X0080198Y0224592D01*
X0080239Y0224747D01*
X0080284Y0224901D01*
X0080333Y0225054D01*
X0080386Y0225206D01*
X0080442Y0225357D01*
X0080503Y0225506D01*
X0080566Y0225654D01*
X0080634Y0225800D01*
X0080705Y0225944D01*
X0080779Y0226086D01*
X0080857Y0226227D01*
X0080939Y0226365D01*
X0081024Y0226502D01*
X0081112Y0226636D01*
X0081204Y0226768D01*
X0081299Y0226898D01*
X0081397Y0227026D01*
X0081498Y0227151D01*
X0081602Y0227273D01*
X0081709Y0227393D01*
X0081819Y0227510D01*
X0081932Y0227625D01*
X0082048Y0227736D01*
X0082167Y0227845D01*
X0082288Y0227950D01*
X0082412Y0228053D01*
X0082538Y0228153D01*
X0082666Y0228249D01*
X0082797Y0228342D01*
X0082931Y0228432D01*
X0083066Y0228519D01*
X0083204Y0228602D01*
X0083343Y0228682D01*
X0083485Y0228758D01*
X0083628Y0228831D01*
X0083773Y0228900D01*
X0083920Y0228966D01*
X0084068Y0229028D01*
X0084218Y0229086D01*
X0084369Y0229141D01*
X0084522Y0229192D01*
X0084676Y0229239D01*
X0084831Y0229282D01*
X0084987Y0229321D01*
X0085143Y0229357D01*
X0085301Y0229388D01*
X0085459Y0229416D01*
X0085618Y0229440D01*
X0085778Y0229460D01*
X0085938Y0229476D01*
X0086098Y0229488D01*
X0086259Y0229496D01*
X0086420Y0229500D01*
X0086580Y0229500D01*
X0086741Y0229496D01*
X0086902Y0229488D01*
X0087062Y0229476D01*
X0087222Y0229460D01*
X0087382Y0229440D01*
X0087541Y0229416D01*
X0087699Y0229388D01*
X0087857Y0229357D01*
X0088013Y0229321D01*
X0088169Y0229282D01*
X0088324Y0229239D01*
X0088478Y0229192D01*
X0088631Y0229141D01*
X0088782Y0229086D01*
X0088932Y0229028D01*
X0089080Y0228966D01*
X0089227Y0228900D01*
X0089372Y0228831D01*
X0089515Y0228758D01*
X0089657Y0228682D01*
X0089796Y0228602D01*
X0089934Y0228519D01*
X0090069Y0228432D01*
X0090203Y0228342D01*
X0090334Y0228249D01*
X0090462Y0228153D01*
X0090588Y0228053D01*
X0090712Y0227950D01*
X0090833Y0227845D01*
X0090952Y0227736D01*
X0091068Y0227625D01*
X0091181Y0227510D01*
X0091291Y0227393D01*
X0091398Y0227273D01*
X0091502Y0227151D01*
X0091603Y0227026D01*
X0091701Y0226898D01*
X0091796Y0226768D01*
X0091888Y0226636D01*
X0091976Y0226502D01*
X0092061Y0226365D01*
X0092143Y0226227D01*
X0092221Y0226086D01*
X0092295Y0225944D01*
X0092366Y0225800D01*
X0092434Y0225654D01*
X0092497Y0225506D01*
X0092558Y0225357D01*
X0092614Y0225206D01*
X0092667Y0225054D01*
X0092716Y0224901D01*
X0092761Y0224747D01*
X0092802Y0224592D01*
X0092840Y0224435D01*
X0092873Y0224278D01*
X0092903Y0224120D01*
X0092929Y0223961D01*
X0092950Y0223802D01*
X0092968Y0223642D01*
X0092982Y0223482D01*
X0092992Y0223321D01*
X0092998Y0223161D01*
X0093000Y0223000D01*
X0092998Y0222839D01*
X0092992Y0222679D01*
X0092982Y0222518D01*
X0092968Y0222358D01*
X0092950Y0222198D01*
X0092929Y0222039D01*
X0092903Y0221880D01*
X0092873Y0221722D01*
X0092840Y0221565D01*
X0092802Y0221408D01*
X0092761Y0221253D01*
X0092716Y0221099D01*
X0092667Y0220946D01*
X0092614Y0220794D01*
X0092558Y0220643D01*
X0092497Y0220494D01*
X0092434Y0220346D01*
X0092366Y0220200D01*
X0092295Y0220056D01*
X0092221Y0219914D01*
X0092143Y0219773D01*
X0092061Y0219635D01*
X0091976Y0219498D01*
X0091888Y0219364D01*
X0091796Y0219232D01*
X0091701Y0219102D01*
X0091603Y0218974D01*
X0091502Y0218849D01*
X0091398Y0218727D01*
X0091291Y0218607D01*
X0091181Y0218490D01*
X0091068Y0218375D01*
X0090952Y0218264D01*
X0090833Y0218155D01*
X0090712Y0218050D01*
X0090588Y0217947D01*
X0090462Y0217847D01*
X0090334Y0217751D01*
X0090203Y0217658D01*
X0090069Y0217568D01*
X0089934Y0217481D01*
X0089796Y0217398D01*
X0089657Y0217318D01*
X0089515Y0217242D01*
X0089372Y0217169D01*
X0089227Y0217100D01*
X0089080Y0217034D01*
X0088932Y0216972D01*
X0088782Y0216914D01*
X0088631Y0216859D01*
X0088478Y0216808D01*
X0088324Y0216761D01*
X0088169Y0216718D01*
X0088013Y0216679D01*
X0087857Y0216643D01*
X0087699Y0216612D01*
X0087541Y0216584D01*
X0087382Y0216560D01*
X0087222Y0216540D01*
X0087062Y0216524D01*
X0086902Y0216512D01*
X0086741Y0216504D01*
X0086580Y0216500D01*
X0086420Y0216500D01*
X0086259Y0216504D01*
X0086098Y0216512D01*
X0085938Y0216524D01*
X0085778Y0216540D01*
X0085618Y0216560D01*
X0085459Y0216584D01*
X0085301Y0216612D01*
X0085143Y0216643D01*
X0084987Y0216679D01*
X0084831Y0216718D01*
X0084676Y0216761D01*
X0084522Y0216808D01*
X0084369Y0216859D01*
X0084218Y0216914D01*
X0084068Y0216972D01*
X0083920Y0217034D01*
X0083773Y0217100D01*
X0083628Y0217169D01*
X0083485Y0217242D01*
X0083343Y0217318D01*
X0083204Y0217398D01*
X0083066Y0217481D01*
X0082931Y0217568D01*
X0082797Y0217658D01*
X0082666Y0217751D01*
X0082538Y0217847D01*
X0082412Y0217947D01*
X0082288Y0218050D01*
X0082167Y0218155D01*
X0082048Y0218264D01*
X0081932Y0218375D01*
X0081819Y0218490D01*
X0081709Y0218607D01*
X0081602Y0218727D01*
X0081498Y0218849D01*
X0081397Y0218974D01*
X0081299Y0219102D01*
X0081204Y0219232D01*
X0081112Y0219364D01*
X0081024Y0219498D01*
X0080939Y0219635D01*
X0080857Y0219773D01*
X0080779Y0219914D01*
X0080705Y0220056D01*
X0080634Y0220200D01*
X0080566Y0220346D01*
X0080503Y0220494D01*
X0080442Y0220643D01*
X0080386Y0220794D01*
X0080333Y0220946D01*
X0080284Y0221099D01*
X0080239Y0221253D01*
X0080198Y0221408D01*
X0080160Y0221565D01*
X0080127Y0221722D01*
X0080097Y0221880D01*
X0080071Y0222039D01*
X0080050Y0222198D01*
X0080032Y0222358D01*
X0080018Y0222518D01*
X0080008Y0222679D01*
X0080002Y0222839D01*
X0080000Y0223000D01*
X0125201Y0194000D02*
X0125203Y0194158D01*
X0125209Y0194316D01*
X0125219Y0194474D01*
X0125233Y0194632D01*
X0125251Y0194789D01*
X0125272Y0194946D01*
X0125298Y0195102D01*
X0125328Y0195258D01*
X0125361Y0195413D01*
X0125399Y0195566D01*
X0125440Y0195719D01*
X0125485Y0195871D01*
X0125534Y0196022D01*
X0125587Y0196171D01*
X0125643Y0196319D01*
X0125703Y0196465D01*
X0125767Y0196610D01*
X0125835Y0196753D01*
X0125906Y0196895D01*
X0125980Y0197035D01*
X0126058Y0197172D01*
X0126140Y0197308D01*
X0126224Y0197442D01*
X0126313Y0197573D01*
X0126404Y0197702D01*
X0126499Y0197829D01*
X0126596Y0197954D01*
X0126697Y0198076D01*
X0126801Y0198195D01*
X0126908Y0198312D01*
X0127018Y0198426D01*
X0127131Y0198537D01*
X0127246Y0198646D01*
X0127364Y0198751D01*
X0127485Y0198853D01*
X0127608Y0198953D01*
X0127734Y0199049D01*
X0127862Y0199142D01*
X0127992Y0199232D01*
X0128125Y0199318D01*
X0128260Y0199402D01*
X0128396Y0199481D01*
X0128535Y0199558D01*
X0128676Y0199630D01*
X0128818Y0199700D01*
X0128962Y0199765D01*
X0129108Y0199827D01*
X0129255Y0199885D01*
X0129404Y0199940D01*
X0129554Y0199991D01*
X0129705Y0200038D01*
X0129857Y0200081D01*
X0130010Y0200120D01*
X0130165Y0200156D01*
X0130320Y0200187D01*
X0130476Y0200215D01*
X0130632Y0200239D01*
X0130789Y0200259D01*
X0130947Y0200275D01*
X0131104Y0200287D01*
X0131263Y0200295D01*
X0131421Y0200299D01*
X0131579Y0200299D01*
X0131737Y0200295D01*
X0131896Y0200287D01*
X0132053Y0200275D01*
X0132211Y0200259D01*
X0132368Y0200239D01*
X0132524Y0200215D01*
X0132680Y0200187D01*
X0132835Y0200156D01*
X0132990Y0200120D01*
X0133143Y0200081D01*
X0133295Y0200038D01*
X0133446Y0199991D01*
X0133596Y0199940D01*
X0133745Y0199885D01*
X0133892Y0199827D01*
X0134038Y0199765D01*
X0134182Y0199700D01*
X0134324Y0199630D01*
X0134465Y0199558D01*
X0134604Y0199481D01*
X0134740Y0199402D01*
X0134875Y0199318D01*
X0135008Y0199232D01*
X0135138Y0199142D01*
X0135266Y0199049D01*
X0135392Y0198953D01*
X0135515Y0198853D01*
X0135636Y0198751D01*
X0135754Y0198646D01*
X0135869Y0198537D01*
X0135982Y0198426D01*
X0136092Y0198312D01*
X0136199Y0198195D01*
X0136303Y0198076D01*
X0136404Y0197954D01*
X0136501Y0197829D01*
X0136596Y0197702D01*
X0136687Y0197573D01*
X0136776Y0197442D01*
X0136860Y0197308D01*
X0136942Y0197172D01*
X0137020Y0197035D01*
X0137094Y0196895D01*
X0137165Y0196753D01*
X0137233Y0196610D01*
X0137297Y0196465D01*
X0137357Y0196319D01*
X0137413Y0196171D01*
X0137466Y0196022D01*
X0137515Y0195871D01*
X0137560Y0195719D01*
X0137601Y0195566D01*
X0137639Y0195413D01*
X0137672Y0195258D01*
X0137702Y0195102D01*
X0137728Y0194946D01*
X0137749Y0194789D01*
X0137767Y0194632D01*
X0137781Y0194474D01*
X0137791Y0194316D01*
X0137797Y0194158D01*
X0137799Y0194000D01*
X0137797Y0193842D01*
X0137791Y0193684D01*
X0137781Y0193526D01*
X0137767Y0193368D01*
X0137749Y0193211D01*
X0137728Y0193054D01*
X0137702Y0192898D01*
X0137672Y0192742D01*
X0137639Y0192587D01*
X0137601Y0192434D01*
X0137560Y0192281D01*
X0137515Y0192129D01*
X0137466Y0191978D01*
X0137413Y0191829D01*
X0137357Y0191681D01*
X0137297Y0191535D01*
X0137233Y0191390D01*
X0137165Y0191247D01*
X0137094Y0191105D01*
X0137020Y0190965D01*
X0136942Y0190828D01*
X0136860Y0190692D01*
X0136776Y0190558D01*
X0136687Y0190427D01*
X0136596Y0190298D01*
X0136501Y0190171D01*
X0136404Y0190046D01*
X0136303Y0189924D01*
X0136199Y0189805D01*
X0136092Y0189688D01*
X0135982Y0189574D01*
X0135869Y0189463D01*
X0135754Y0189354D01*
X0135636Y0189249D01*
X0135515Y0189147D01*
X0135392Y0189047D01*
X0135266Y0188951D01*
X0135138Y0188858D01*
X0135008Y0188768D01*
X0134875Y0188682D01*
X0134740Y0188598D01*
X0134604Y0188519D01*
X0134465Y0188442D01*
X0134324Y0188370D01*
X0134182Y0188300D01*
X0134038Y0188235D01*
X0133892Y0188173D01*
X0133745Y0188115D01*
X0133596Y0188060D01*
X0133446Y0188009D01*
X0133295Y0187962D01*
X0133143Y0187919D01*
X0132990Y0187880D01*
X0132835Y0187844D01*
X0132680Y0187813D01*
X0132524Y0187785D01*
X0132368Y0187761D01*
X0132211Y0187741D01*
X0132053Y0187725D01*
X0131896Y0187713D01*
X0131737Y0187705D01*
X0131579Y0187701D01*
X0131421Y0187701D01*
X0131263Y0187705D01*
X0131104Y0187713D01*
X0130947Y0187725D01*
X0130789Y0187741D01*
X0130632Y0187761D01*
X0130476Y0187785D01*
X0130320Y0187813D01*
X0130165Y0187844D01*
X0130010Y0187880D01*
X0129857Y0187919D01*
X0129705Y0187962D01*
X0129554Y0188009D01*
X0129404Y0188060D01*
X0129255Y0188115D01*
X0129108Y0188173D01*
X0128962Y0188235D01*
X0128818Y0188300D01*
X0128676Y0188370D01*
X0128535Y0188442D01*
X0128396Y0188519D01*
X0128260Y0188598D01*
X0128125Y0188682D01*
X0127992Y0188768D01*
X0127862Y0188858D01*
X0127734Y0188951D01*
X0127608Y0189047D01*
X0127485Y0189147D01*
X0127364Y0189249D01*
X0127246Y0189354D01*
X0127131Y0189463D01*
X0127018Y0189574D01*
X0126908Y0189688D01*
X0126801Y0189805D01*
X0126697Y0189924D01*
X0126596Y0190046D01*
X0126499Y0190171D01*
X0126404Y0190298D01*
X0126313Y0190427D01*
X0126224Y0190558D01*
X0126140Y0190692D01*
X0126058Y0190828D01*
X0125980Y0190965D01*
X0125906Y0191105D01*
X0125835Y0191247D01*
X0125767Y0191390D01*
X0125703Y0191535D01*
X0125643Y0191681D01*
X0125587Y0191829D01*
X0125534Y0191978D01*
X0125485Y0192129D01*
X0125440Y0192281D01*
X0125399Y0192434D01*
X0125361Y0192587D01*
X0125328Y0192742D01*
X0125298Y0192898D01*
X0125272Y0193054D01*
X0125251Y0193211D01*
X0125233Y0193368D01*
X0125219Y0193526D01*
X0125209Y0193684D01*
X0125203Y0193842D01*
X0125201Y0194000D01*
X0125201Y0114000D02*
X0125203Y0114158D01*
X0125209Y0114316D01*
X0125219Y0114474D01*
X0125233Y0114632D01*
X0125251Y0114789D01*
X0125272Y0114946D01*
X0125298Y0115102D01*
X0125328Y0115258D01*
X0125361Y0115413D01*
X0125399Y0115566D01*
X0125440Y0115719D01*
X0125485Y0115871D01*
X0125534Y0116022D01*
X0125587Y0116171D01*
X0125643Y0116319D01*
X0125703Y0116465D01*
X0125767Y0116610D01*
X0125835Y0116753D01*
X0125906Y0116895D01*
X0125980Y0117035D01*
X0126058Y0117172D01*
X0126140Y0117308D01*
X0126224Y0117442D01*
X0126313Y0117573D01*
X0126404Y0117702D01*
X0126499Y0117829D01*
X0126596Y0117954D01*
X0126697Y0118076D01*
X0126801Y0118195D01*
X0126908Y0118312D01*
X0127018Y0118426D01*
X0127131Y0118537D01*
X0127246Y0118646D01*
X0127364Y0118751D01*
X0127485Y0118853D01*
X0127608Y0118953D01*
X0127734Y0119049D01*
X0127862Y0119142D01*
X0127992Y0119232D01*
X0128125Y0119318D01*
X0128260Y0119402D01*
X0128396Y0119481D01*
X0128535Y0119558D01*
X0128676Y0119630D01*
X0128818Y0119700D01*
X0128962Y0119765D01*
X0129108Y0119827D01*
X0129255Y0119885D01*
X0129404Y0119940D01*
X0129554Y0119991D01*
X0129705Y0120038D01*
X0129857Y0120081D01*
X0130010Y0120120D01*
X0130165Y0120156D01*
X0130320Y0120187D01*
X0130476Y0120215D01*
X0130632Y0120239D01*
X0130789Y0120259D01*
X0130947Y0120275D01*
X0131104Y0120287D01*
X0131263Y0120295D01*
X0131421Y0120299D01*
X0131579Y0120299D01*
X0131737Y0120295D01*
X0131896Y0120287D01*
X0132053Y0120275D01*
X0132211Y0120259D01*
X0132368Y0120239D01*
X0132524Y0120215D01*
X0132680Y0120187D01*
X0132835Y0120156D01*
X0132990Y0120120D01*
X0133143Y0120081D01*
X0133295Y0120038D01*
X0133446Y0119991D01*
X0133596Y0119940D01*
X0133745Y0119885D01*
X0133892Y0119827D01*
X0134038Y0119765D01*
X0134182Y0119700D01*
X0134324Y0119630D01*
X0134465Y0119558D01*
X0134604Y0119481D01*
X0134740Y0119402D01*
X0134875Y0119318D01*
X0135008Y0119232D01*
X0135138Y0119142D01*
X0135266Y0119049D01*
X0135392Y0118953D01*
X0135515Y0118853D01*
X0135636Y0118751D01*
X0135754Y0118646D01*
X0135869Y0118537D01*
X0135982Y0118426D01*
X0136092Y0118312D01*
X0136199Y0118195D01*
X0136303Y0118076D01*
X0136404Y0117954D01*
X0136501Y0117829D01*
X0136596Y0117702D01*
X0136687Y0117573D01*
X0136776Y0117442D01*
X0136860Y0117308D01*
X0136942Y0117172D01*
X0137020Y0117035D01*
X0137094Y0116895D01*
X0137165Y0116753D01*
X0137233Y0116610D01*
X0137297Y0116465D01*
X0137357Y0116319D01*
X0137413Y0116171D01*
X0137466Y0116022D01*
X0137515Y0115871D01*
X0137560Y0115719D01*
X0137601Y0115566D01*
X0137639Y0115413D01*
X0137672Y0115258D01*
X0137702Y0115102D01*
X0137728Y0114946D01*
X0137749Y0114789D01*
X0137767Y0114632D01*
X0137781Y0114474D01*
X0137791Y0114316D01*
X0137797Y0114158D01*
X0137799Y0114000D01*
X0137797Y0113842D01*
X0137791Y0113684D01*
X0137781Y0113526D01*
X0137767Y0113368D01*
X0137749Y0113211D01*
X0137728Y0113054D01*
X0137702Y0112898D01*
X0137672Y0112742D01*
X0137639Y0112587D01*
X0137601Y0112434D01*
X0137560Y0112281D01*
X0137515Y0112129D01*
X0137466Y0111978D01*
X0137413Y0111829D01*
X0137357Y0111681D01*
X0137297Y0111535D01*
X0137233Y0111390D01*
X0137165Y0111247D01*
X0137094Y0111105D01*
X0137020Y0110965D01*
X0136942Y0110828D01*
X0136860Y0110692D01*
X0136776Y0110558D01*
X0136687Y0110427D01*
X0136596Y0110298D01*
X0136501Y0110171D01*
X0136404Y0110046D01*
X0136303Y0109924D01*
X0136199Y0109805D01*
X0136092Y0109688D01*
X0135982Y0109574D01*
X0135869Y0109463D01*
X0135754Y0109354D01*
X0135636Y0109249D01*
X0135515Y0109147D01*
X0135392Y0109047D01*
X0135266Y0108951D01*
X0135138Y0108858D01*
X0135008Y0108768D01*
X0134875Y0108682D01*
X0134740Y0108598D01*
X0134604Y0108519D01*
X0134465Y0108442D01*
X0134324Y0108370D01*
X0134182Y0108300D01*
X0134038Y0108235D01*
X0133892Y0108173D01*
X0133745Y0108115D01*
X0133596Y0108060D01*
X0133446Y0108009D01*
X0133295Y0107962D01*
X0133143Y0107919D01*
X0132990Y0107880D01*
X0132835Y0107844D01*
X0132680Y0107813D01*
X0132524Y0107785D01*
X0132368Y0107761D01*
X0132211Y0107741D01*
X0132053Y0107725D01*
X0131896Y0107713D01*
X0131737Y0107705D01*
X0131579Y0107701D01*
X0131421Y0107701D01*
X0131263Y0107705D01*
X0131104Y0107713D01*
X0130947Y0107725D01*
X0130789Y0107741D01*
X0130632Y0107761D01*
X0130476Y0107785D01*
X0130320Y0107813D01*
X0130165Y0107844D01*
X0130010Y0107880D01*
X0129857Y0107919D01*
X0129705Y0107962D01*
X0129554Y0108009D01*
X0129404Y0108060D01*
X0129255Y0108115D01*
X0129108Y0108173D01*
X0128962Y0108235D01*
X0128818Y0108300D01*
X0128676Y0108370D01*
X0128535Y0108442D01*
X0128396Y0108519D01*
X0128260Y0108598D01*
X0128125Y0108682D01*
X0127992Y0108768D01*
X0127862Y0108858D01*
X0127734Y0108951D01*
X0127608Y0109047D01*
X0127485Y0109147D01*
X0127364Y0109249D01*
X0127246Y0109354D01*
X0127131Y0109463D01*
X0127018Y0109574D01*
X0126908Y0109688D01*
X0126801Y0109805D01*
X0126697Y0109924D01*
X0126596Y0110046D01*
X0126499Y0110171D01*
X0126404Y0110298D01*
X0126313Y0110427D01*
X0126224Y0110558D01*
X0126140Y0110692D01*
X0126058Y0110828D01*
X0125980Y0110965D01*
X0125906Y0111105D01*
X0125835Y0111247D01*
X0125767Y0111390D01*
X0125703Y0111535D01*
X0125643Y0111681D01*
X0125587Y0111829D01*
X0125534Y0111978D01*
X0125485Y0112129D01*
X0125440Y0112281D01*
X0125399Y0112434D01*
X0125361Y0112587D01*
X0125328Y0112742D01*
X0125298Y0112898D01*
X0125272Y0113054D01*
X0125251Y0113211D01*
X0125233Y0113368D01*
X0125219Y0113526D01*
X0125209Y0113684D01*
X0125203Y0113842D01*
X0125201Y0114000D01*
X0295201Y0114000D02*
X0295203Y0114158D01*
X0295209Y0114316D01*
X0295219Y0114474D01*
X0295233Y0114632D01*
X0295251Y0114789D01*
X0295272Y0114946D01*
X0295298Y0115102D01*
X0295328Y0115258D01*
X0295361Y0115413D01*
X0295399Y0115566D01*
X0295440Y0115719D01*
X0295485Y0115871D01*
X0295534Y0116022D01*
X0295587Y0116171D01*
X0295643Y0116319D01*
X0295703Y0116465D01*
X0295767Y0116610D01*
X0295835Y0116753D01*
X0295906Y0116895D01*
X0295980Y0117035D01*
X0296058Y0117172D01*
X0296140Y0117308D01*
X0296224Y0117442D01*
X0296313Y0117573D01*
X0296404Y0117702D01*
X0296499Y0117829D01*
X0296596Y0117954D01*
X0296697Y0118076D01*
X0296801Y0118195D01*
X0296908Y0118312D01*
X0297018Y0118426D01*
X0297131Y0118537D01*
X0297246Y0118646D01*
X0297364Y0118751D01*
X0297485Y0118853D01*
X0297608Y0118953D01*
X0297734Y0119049D01*
X0297862Y0119142D01*
X0297992Y0119232D01*
X0298125Y0119318D01*
X0298260Y0119402D01*
X0298396Y0119481D01*
X0298535Y0119558D01*
X0298676Y0119630D01*
X0298818Y0119700D01*
X0298962Y0119765D01*
X0299108Y0119827D01*
X0299255Y0119885D01*
X0299404Y0119940D01*
X0299554Y0119991D01*
X0299705Y0120038D01*
X0299857Y0120081D01*
X0300010Y0120120D01*
X0300165Y0120156D01*
X0300320Y0120187D01*
X0300476Y0120215D01*
X0300632Y0120239D01*
X0300789Y0120259D01*
X0300947Y0120275D01*
X0301104Y0120287D01*
X0301263Y0120295D01*
X0301421Y0120299D01*
X0301579Y0120299D01*
X0301737Y0120295D01*
X0301896Y0120287D01*
X0302053Y0120275D01*
X0302211Y0120259D01*
X0302368Y0120239D01*
X0302524Y0120215D01*
X0302680Y0120187D01*
X0302835Y0120156D01*
X0302990Y0120120D01*
X0303143Y0120081D01*
X0303295Y0120038D01*
X0303446Y0119991D01*
X0303596Y0119940D01*
X0303745Y0119885D01*
X0303892Y0119827D01*
X0304038Y0119765D01*
X0304182Y0119700D01*
X0304324Y0119630D01*
X0304465Y0119558D01*
X0304604Y0119481D01*
X0304740Y0119402D01*
X0304875Y0119318D01*
X0305008Y0119232D01*
X0305138Y0119142D01*
X0305266Y0119049D01*
X0305392Y0118953D01*
X0305515Y0118853D01*
X0305636Y0118751D01*
X0305754Y0118646D01*
X0305869Y0118537D01*
X0305982Y0118426D01*
X0306092Y0118312D01*
X0306199Y0118195D01*
X0306303Y0118076D01*
X0306404Y0117954D01*
X0306501Y0117829D01*
X0306596Y0117702D01*
X0306687Y0117573D01*
X0306776Y0117442D01*
X0306860Y0117308D01*
X0306942Y0117172D01*
X0307020Y0117035D01*
X0307094Y0116895D01*
X0307165Y0116753D01*
X0307233Y0116610D01*
X0307297Y0116465D01*
X0307357Y0116319D01*
X0307413Y0116171D01*
X0307466Y0116022D01*
X0307515Y0115871D01*
X0307560Y0115719D01*
X0307601Y0115566D01*
X0307639Y0115413D01*
X0307672Y0115258D01*
X0307702Y0115102D01*
X0307728Y0114946D01*
X0307749Y0114789D01*
X0307767Y0114632D01*
X0307781Y0114474D01*
X0307791Y0114316D01*
X0307797Y0114158D01*
X0307799Y0114000D01*
X0307797Y0113842D01*
X0307791Y0113684D01*
X0307781Y0113526D01*
X0307767Y0113368D01*
X0307749Y0113211D01*
X0307728Y0113054D01*
X0307702Y0112898D01*
X0307672Y0112742D01*
X0307639Y0112587D01*
X0307601Y0112434D01*
X0307560Y0112281D01*
X0307515Y0112129D01*
X0307466Y0111978D01*
X0307413Y0111829D01*
X0307357Y0111681D01*
X0307297Y0111535D01*
X0307233Y0111390D01*
X0307165Y0111247D01*
X0307094Y0111105D01*
X0307020Y0110965D01*
X0306942Y0110828D01*
X0306860Y0110692D01*
X0306776Y0110558D01*
X0306687Y0110427D01*
X0306596Y0110298D01*
X0306501Y0110171D01*
X0306404Y0110046D01*
X0306303Y0109924D01*
X0306199Y0109805D01*
X0306092Y0109688D01*
X0305982Y0109574D01*
X0305869Y0109463D01*
X0305754Y0109354D01*
X0305636Y0109249D01*
X0305515Y0109147D01*
X0305392Y0109047D01*
X0305266Y0108951D01*
X0305138Y0108858D01*
X0305008Y0108768D01*
X0304875Y0108682D01*
X0304740Y0108598D01*
X0304604Y0108519D01*
X0304465Y0108442D01*
X0304324Y0108370D01*
X0304182Y0108300D01*
X0304038Y0108235D01*
X0303892Y0108173D01*
X0303745Y0108115D01*
X0303596Y0108060D01*
X0303446Y0108009D01*
X0303295Y0107962D01*
X0303143Y0107919D01*
X0302990Y0107880D01*
X0302835Y0107844D01*
X0302680Y0107813D01*
X0302524Y0107785D01*
X0302368Y0107761D01*
X0302211Y0107741D01*
X0302053Y0107725D01*
X0301896Y0107713D01*
X0301737Y0107705D01*
X0301579Y0107701D01*
X0301421Y0107701D01*
X0301263Y0107705D01*
X0301104Y0107713D01*
X0300947Y0107725D01*
X0300789Y0107741D01*
X0300632Y0107761D01*
X0300476Y0107785D01*
X0300320Y0107813D01*
X0300165Y0107844D01*
X0300010Y0107880D01*
X0299857Y0107919D01*
X0299705Y0107962D01*
X0299554Y0108009D01*
X0299404Y0108060D01*
X0299255Y0108115D01*
X0299108Y0108173D01*
X0298962Y0108235D01*
X0298818Y0108300D01*
X0298676Y0108370D01*
X0298535Y0108442D01*
X0298396Y0108519D01*
X0298260Y0108598D01*
X0298125Y0108682D01*
X0297992Y0108768D01*
X0297862Y0108858D01*
X0297734Y0108951D01*
X0297608Y0109047D01*
X0297485Y0109147D01*
X0297364Y0109249D01*
X0297246Y0109354D01*
X0297131Y0109463D01*
X0297018Y0109574D01*
X0296908Y0109688D01*
X0296801Y0109805D01*
X0296697Y0109924D01*
X0296596Y0110046D01*
X0296499Y0110171D01*
X0296404Y0110298D01*
X0296313Y0110427D01*
X0296224Y0110558D01*
X0296140Y0110692D01*
X0296058Y0110828D01*
X0295980Y0110965D01*
X0295906Y0111105D01*
X0295835Y0111247D01*
X0295767Y0111390D01*
X0295703Y0111535D01*
X0295643Y0111681D01*
X0295587Y0111829D01*
X0295534Y0111978D01*
X0295485Y0112129D01*
X0295440Y0112281D01*
X0295399Y0112434D01*
X0295361Y0112587D01*
X0295328Y0112742D01*
X0295298Y0112898D01*
X0295272Y0113054D01*
X0295251Y0113211D01*
X0295233Y0113368D01*
X0295219Y0113526D01*
X0295209Y0113684D01*
X0295203Y0113842D01*
X0295201Y0114000D01*
X0295201Y0194000D02*
X0295203Y0194158D01*
X0295209Y0194316D01*
X0295219Y0194474D01*
X0295233Y0194632D01*
X0295251Y0194789D01*
X0295272Y0194946D01*
X0295298Y0195102D01*
X0295328Y0195258D01*
X0295361Y0195413D01*
X0295399Y0195566D01*
X0295440Y0195719D01*
X0295485Y0195871D01*
X0295534Y0196022D01*
X0295587Y0196171D01*
X0295643Y0196319D01*
X0295703Y0196465D01*
X0295767Y0196610D01*
X0295835Y0196753D01*
X0295906Y0196895D01*
X0295980Y0197035D01*
X0296058Y0197172D01*
X0296140Y0197308D01*
X0296224Y0197442D01*
X0296313Y0197573D01*
X0296404Y0197702D01*
X0296499Y0197829D01*
X0296596Y0197954D01*
X0296697Y0198076D01*
X0296801Y0198195D01*
X0296908Y0198312D01*
X0297018Y0198426D01*
X0297131Y0198537D01*
X0297246Y0198646D01*
X0297364Y0198751D01*
X0297485Y0198853D01*
X0297608Y0198953D01*
X0297734Y0199049D01*
X0297862Y0199142D01*
X0297992Y0199232D01*
X0298125Y0199318D01*
X0298260Y0199402D01*
X0298396Y0199481D01*
X0298535Y0199558D01*
X0298676Y0199630D01*
X0298818Y0199700D01*
X0298962Y0199765D01*
X0299108Y0199827D01*
X0299255Y0199885D01*
X0299404Y0199940D01*
X0299554Y0199991D01*
X0299705Y0200038D01*
X0299857Y0200081D01*
X0300010Y0200120D01*
X0300165Y0200156D01*
X0300320Y0200187D01*
X0300476Y0200215D01*
X0300632Y0200239D01*
X0300789Y0200259D01*
X0300947Y0200275D01*
X0301104Y0200287D01*
X0301263Y0200295D01*
X0301421Y0200299D01*
X0301579Y0200299D01*
X0301737Y0200295D01*
X0301896Y0200287D01*
X0302053Y0200275D01*
X0302211Y0200259D01*
X0302368Y0200239D01*
X0302524Y0200215D01*
X0302680Y0200187D01*
X0302835Y0200156D01*
X0302990Y0200120D01*
X0303143Y0200081D01*
X0303295Y0200038D01*
X0303446Y0199991D01*
X0303596Y0199940D01*
X0303745Y0199885D01*
X0303892Y0199827D01*
X0304038Y0199765D01*
X0304182Y0199700D01*
X0304324Y0199630D01*
X0304465Y0199558D01*
X0304604Y0199481D01*
X0304740Y0199402D01*
X0304875Y0199318D01*
X0305008Y0199232D01*
X0305138Y0199142D01*
X0305266Y0199049D01*
X0305392Y0198953D01*
X0305515Y0198853D01*
X0305636Y0198751D01*
X0305754Y0198646D01*
X0305869Y0198537D01*
X0305982Y0198426D01*
X0306092Y0198312D01*
X0306199Y0198195D01*
X0306303Y0198076D01*
X0306404Y0197954D01*
X0306501Y0197829D01*
X0306596Y0197702D01*
X0306687Y0197573D01*
X0306776Y0197442D01*
X0306860Y0197308D01*
X0306942Y0197172D01*
X0307020Y0197035D01*
X0307094Y0196895D01*
X0307165Y0196753D01*
X0307233Y0196610D01*
X0307297Y0196465D01*
X0307357Y0196319D01*
X0307413Y0196171D01*
X0307466Y0196022D01*
X0307515Y0195871D01*
X0307560Y0195719D01*
X0307601Y0195566D01*
X0307639Y0195413D01*
X0307672Y0195258D01*
X0307702Y0195102D01*
X0307728Y0194946D01*
X0307749Y0194789D01*
X0307767Y0194632D01*
X0307781Y0194474D01*
X0307791Y0194316D01*
X0307797Y0194158D01*
X0307799Y0194000D01*
X0307797Y0193842D01*
X0307791Y0193684D01*
X0307781Y0193526D01*
X0307767Y0193368D01*
X0307749Y0193211D01*
X0307728Y0193054D01*
X0307702Y0192898D01*
X0307672Y0192742D01*
X0307639Y0192587D01*
X0307601Y0192434D01*
X0307560Y0192281D01*
X0307515Y0192129D01*
X0307466Y0191978D01*
X0307413Y0191829D01*
X0307357Y0191681D01*
X0307297Y0191535D01*
X0307233Y0191390D01*
X0307165Y0191247D01*
X0307094Y0191105D01*
X0307020Y0190965D01*
X0306942Y0190828D01*
X0306860Y0190692D01*
X0306776Y0190558D01*
X0306687Y0190427D01*
X0306596Y0190298D01*
X0306501Y0190171D01*
X0306404Y0190046D01*
X0306303Y0189924D01*
X0306199Y0189805D01*
X0306092Y0189688D01*
X0305982Y0189574D01*
X0305869Y0189463D01*
X0305754Y0189354D01*
X0305636Y0189249D01*
X0305515Y0189147D01*
X0305392Y0189047D01*
X0305266Y0188951D01*
X0305138Y0188858D01*
X0305008Y0188768D01*
X0304875Y0188682D01*
X0304740Y0188598D01*
X0304604Y0188519D01*
X0304465Y0188442D01*
X0304324Y0188370D01*
X0304182Y0188300D01*
X0304038Y0188235D01*
X0303892Y0188173D01*
X0303745Y0188115D01*
X0303596Y0188060D01*
X0303446Y0188009D01*
X0303295Y0187962D01*
X0303143Y0187919D01*
X0302990Y0187880D01*
X0302835Y0187844D01*
X0302680Y0187813D01*
X0302524Y0187785D01*
X0302368Y0187761D01*
X0302211Y0187741D01*
X0302053Y0187725D01*
X0301896Y0187713D01*
X0301737Y0187705D01*
X0301579Y0187701D01*
X0301421Y0187701D01*
X0301263Y0187705D01*
X0301104Y0187713D01*
X0300947Y0187725D01*
X0300789Y0187741D01*
X0300632Y0187761D01*
X0300476Y0187785D01*
X0300320Y0187813D01*
X0300165Y0187844D01*
X0300010Y0187880D01*
X0299857Y0187919D01*
X0299705Y0187962D01*
X0299554Y0188009D01*
X0299404Y0188060D01*
X0299255Y0188115D01*
X0299108Y0188173D01*
X0298962Y0188235D01*
X0298818Y0188300D01*
X0298676Y0188370D01*
X0298535Y0188442D01*
X0298396Y0188519D01*
X0298260Y0188598D01*
X0298125Y0188682D01*
X0297992Y0188768D01*
X0297862Y0188858D01*
X0297734Y0188951D01*
X0297608Y0189047D01*
X0297485Y0189147D01*
X0297364Y0189249D01*
X0297246Y0189354D01*
X0297131Y0189463D01*
X0297018Y0189574D01*
X0296908Y0189688D01*
X0296801Y0189805D01*
X0296697Y0189924D01*
X0296596Y0190046D01*
X0296499Y0190171D01*
X0296404Y0190298D01*
X0296313Y0190427D01*
X0296224Y0190558D01*
X0296140Y0190692D01*
X0296058Y0190828D01*
X0295980Y0190965D01*
X0295906Y0191105D01*
X0295835Y0191247D01*
X0295767Y0191390D01*
X0295703Y0191535D01*
X0295643Y0191681D01*
X0295587Y0191829D01*
X0295534Y0191978D01*
X0295485Y0192129D01*
X0295440Y0192281D01*
X0295399Y0192434D01*
X0295361Y0192587D01*
X0295328Y0192742D01*
X0295298Y0192898D01*
X0295272Y0193054D01*
X0295251Y0193211D01*
X0295233Y0193368D01*
X0295219Y0193526D01*
X0295209Y0193684D01*
X0295203Y0193842D01*
X0295201Y0194000D01*
D11*
X0271500Y0216500D02*
X0269000Y0214000D01*
X0264000Y0214000D01*
X0261500Y0216500D01*
X0259000Y0214000D01*
X0254000Y0214000D01*
X0251500Y0216500D01*
X0249000Y0214000D01*
X0244000Y0214000D01*
X0241500Y0216500D01*
X0239000Y0214000D01*
X0234000Y0214000D01*
X0231500Y0216500D01*
X0229000Y0214000D01*
X0224000Y0214000D01*
X0221500Y0216500D01*
X0219000Y0214000D01*
X0214000Y0214000D01*
X0211500Y0216500D01*
X0209000Y0214000D01*
X0204000Y0214000D01*
X0201500Y0216500D01*
X0199000Y0214000D01*
X0194000Y0214000D01*
X0191500Y0216500D01*
X0189000Y0214000D01*
X0184000Y0214000D01*
X0181500Y0216500D01*
X0179000Y0214000D01*
X0174000Y0214000D01*
X0171500Y0216500D01*
X0169000Y0214000D01*
X0164000Y0214000D01*
X0161500Y0216500D01*
X0159000Y0214000D01*
X0154000Y0214000D01*
X0151500Y0216500D01*
X0151500Y0221500D01*
X0154000Y0224000D01*
X0159000Y0224000D01*
X0161500Y0221500D01*
X0164000Y0224000D01*
X0169000Y0224000D01*
X0171500Y0221500D01*
X0171500Y0216500D01*
X0171500Y0221500D02*
X0174000Y0224000D01*
X0179000Y0224000D01*
X0181500Y0221500D01*
X0184000Y0224000D01*
X0189000Y0224000D01*
X0191500Y0221500D01*
X0194000Y0224000D01*
X0199000Y0224000D01*
X0201500Y0221500D01*
X0201500Y0216500D01*
X0201500Y0221500D02*
X0204000Y0224000D01*
X0209000Y0224000D01*
X0211500Y0221500D01*
X0214000Y0224000D01*
X0219000Y0224000D01*
X0221500Y0221500D01*
X0224000Y0224000D01*
X0229000Y0224000D01*
X0231500Y0221500D01*
X0231500Y0216500D01*
X0231500Y0221500D02*
X0234000Y0224000D01*
X0239000Y0224000D01*
X0241500Y0221500D01*
X0244000Y0224000D01*
X0249000Y0224000D01*
X0251500Y0221500D01*
X0254000Y0224000D01*
X0259000Y0224000D01*
X0261500Y0221500D01*
X0264000Y0224000D01*
X0269000Y0224000D01*
X0271500Y0221500D01*
X0271500Y0216500D01*
X0261500Y0216500D02*
X0261500Y0221500D01*
X0259000Y0226500D02*
X0254000Y0226500D01*
X0251500Y0229000D01*
X0249000Y0226500D01*
X0244000Y0226500D01*
X0241500Y0229000D01*
X0241500Y0234000D01*
X0244000Y0236500D01*
X0249000Y0236500D01*
X0251500Y0234000D01*
X0254000Y0236500D01*
X0259000Y0236500D01*
X0261500Y0234000D01*
X0264000Y0236500D01*
X0269000Y0236500D01*
X0271500Y0234000D01*
X0271500Y0229000D01*
X0269000Y0226500D01*
X0264000Y0226500D01*
X0261500Y0229000D01*
X0259000Y0226500D01*
X0251500Y0221500D02*
X0251500Y0216500D01*
X0241500Y0216500D02*
X0241500Y0221500D01*
X0221500Y0221500D02*
X0221500Y0216500D01*
X0211500Y0216500D02*
X0211500Y0221500D01*
X0191500Y0221500D02*
X0191500Y0216500D01*
X0181500Y0216500D02*
X0181500Y0221500D01*
X0161500Y0221500D02*
X0161500Y0216500D01*
X0151500Y0216500D02*
X0149000Y0214000D01*
X0144000Y0214000D01*
X0141500Y0216500D01*
X0139000Y0214000D01*
X0134000Y0214000D01*
X0131500Y0216500D01*
X0129000Y0214000D01*
X0124000Y0214000D01*
X0121500Y0216500D01*
X0119000Y0214000D01*
X0114000Y0214000D01*
X0111500Y0216500D01*
X0111500Y0221500D01*
X0114000Y0224000D01*
X0119000Y0224000D01*
X0121500Y0221500D01*
X0124000Y0224000D01*
X0129000Y0224000D01*
X0131500Y0221500D01*
X0131500Y0216500D01*
X0131500Y0221500D02*
X0134000Y0224000D01*
X0139000Y0224000D01*
X0141500Y0221500D01*
X0144000Y0224000D01*
X0149000Y0224000D01*
X0151500Y0221500D01*
X0151500Y0216500D01*
X0141500Y0216500D02*
X0141500Y0221500D01*
X0121500Y0221500D02*
X0121500Y0216500D01*
X0107000Y0223000D02*
X0103500Y0223000D01*
X0103500Y0229000D01*
X0107000Y0229000D01*
X0107000Y0236500D01*
X0066000Y0236500D01*
X0066000Y0229000D01*
X0069500Y0229000D01*
X0069500Y0223000D01*
X0066000Y0223000D01*
X0066000Y0174000D01*
X0107000Y0174000D01*
X0107000Y0223000D01*
X0079400Y0223000D02*
X0079402Y0223174D01*
X0079409Y0223348D01*
X0079419Y0223522D01*
X0079434Y0223696D01*
X0079453Y0223869D01*
X0079477Y0224042D01*
X0079505Y0224214D01*
X0079536Y0224385D01*
X0079573Y0224556D01*
X0079613Y0224725D01*
X0079657Y0224894D01*
X0079706Y0225061D01*
X0079758Y0225227D01*
X0079815Y0225392D01*
X0079876Y0225555D01*
X0079940Y0225717D01*
X0080009Y0225877D01*
X0080082Y0226036D01*
X0080158Y0226192D01*
X0080238Y0226347D01*
X0080322Y0226500D01*
X0080410Y0226650D01*
X0080502Y0226798D01*
X0080597Y0226945D01*
X0080695Y0227088D01*
X0080797Y0227229D01*
X0080903Y0227368D01*
X0081012Y0227504D01*
X0081124Y0227638D01*
X0081239Y0227768D01*
X0081358Y0227896D01*
X0081480Y0228020D01*
X0081604Y0228142D01*
X0081732Y0228261D01*
X0081862Y0228376D01*
X0081996Y0228488D01*
X0082132Y0228597D01*
X0082271Y0228703D01*
X0082412Y0228805D01*
X0082555Y0228903D01*
X0082702Y0228998D01*
X0082850Y0229090D01*
X0083000Y0229178D01*
X0083153Y0229262D01*
X0083308Y0229342D01*
X0083464Y0229418D01*
X0083623Y0229491D01*
X0083783Y0229560D01*
X0083945Y0229624D01*
X0084108Y0229685D01*
X0084273Y0229742D01*
X0084439Y0229794D01*
X0084606Y0229843D01*
X0084775Y0229887D01*
X0084944Y0229927D01*
X0085115Y0229964D01*
X0085286Y0229995D01*
X0085458Y0230023D01*
X0085631Y0230047D01*
X0085804Y0230066D01*
X0085978Y0230081D01*
X0086152Y0230091D01*
X0086326Y0230098D01*
X0086500Y0230100D01*
X0086674Y0230098D01*
X0086848Y0230091D01*
X0087022Y0230081D01*
X0087196Y0230066D01*
X0087369Y0230047D01*
X0087542Y0230023D01*
X0087714Y0229995D01*
X0087885Y0229964D01*
X0088056Y0229927D01*
X0088225Y0229887D01*
X0088394Y0229843D01*
X0088561Y0229794D01*
X0088727Y0229742D01*
X0088892Y0229685D01*
X0089055Y0229624D01*
X0089217Y0229560D01*
X0089377Y0229491D01*
X0089536Y0229418D01*
X0089692Y0229342D01*
X0089847Y0229262D01*
X0090000Y0229178D01*
X0090150Y0229090D01*
X0090298Y0228998D01*
X0090445Y0228903D01*
X0090588Y0228805D01*
X0090729Y0228703D01*
X0090868Y0228597D01*
X0091004Y0228488D01*
X0091138Y0228376D01*
X0091268Y0228261D01*
X0091396Y0228142D01*
X0091520Y0228020D01*
X0091642Y0227896D01*
X0091761Y0227768D01*
X0091876Y0227638D01*
X0091988Y0227504D01*
X0092097Y0227368D01*
X0092203Y0227229D01*
X0092305Y0227088D01*
X0092403Y0226945D01*
X0092498Y0226798D01*
X0092590Y0226650D01*
X0092678Y0226500D01*
X0092762Y0226347D01*
X0092842Y0226192D01*
X0092918Y0226036D01*
X0092991Y0225877D01*
X0093060Y0225717D01*
X0093124Y0225555D01*
X0093185Y0225392D01*
X0093242Y0225227D01*
X0093294Y0225061D01*
X0093343Y0224894D01*
X0093387Y0224725D01*
X0093427Y0224556D01*
X0093464Y0224385D01*
X0093495Y0224214D01*
X0093523Y0224042D01*
X0093547Y0223869D01*
X0093566Y0223696D01*
X0093581Y0223522D01*
X0093591Y0223348D01*
X0093598Y0223174D01*
X0093600Y0223000D01*
X0093598Y0222826D01*
X0093591Y0222652D01*
X0093581Y0222478D01*
X0093566Y0222304D01*
X0093547Y0222131D01*
X0093523Y0221958D01*
X0093495Y0221786D01*
X0093464Y0221615D01*
X0093427Y0221444D01*
X0093387Y0221275D01*
X0093343Y0221106D01*
X0093294Y0220939D01*
X0093242Y0220773D01*
X0093185Y0220608D01*
X0093124Y0220445D01*
X0093060Y0220283D01*
X0092991Y0220123D01*
X0092918Y0219964D01*
X0092842Y0219808D01*
X0092762Y0219653D01*
X0092678Y0219500D01*
X0092590Y0219350D01*
X0092498Y0219202D01*
X0092403Y0219055D01*
X0092305Y0218912D01*
X0092203Y0218771D01*
X0092097Y0218632D01*
X0091988Y0218496D01*
X0091876Y0218362D01*
X0091761Y0218232D01*
X0091642Y0218104D01*
X0091520Y0217980D01*
X0091396Y0217858D01*
X0091268Y0217739D01*
X0091138Y0217624D01*
X0091004Y0217512D01*
X0090868Y0217403D01*
X0090729Y0217297D01*
X0090588Y0217195D01*
X0090445Y0217097D01*
X0090298Y0217002D01*
X0090150Y0216910D01*
X0090000Y0216822D01*
X0089847Y0216738D01*
X0089692Y0216658D01*
X0089536Y0216582D01*
X0089377Y0216509D01*
X0089217Y0216440D01*
X0089055Y0216376D01*
X0088892Y0216315D01*
X0088727Y0216258D01*
X0088561Y0216206D01*
X0088394Y0216157D01*
X0088225Y0216113D01*
X0088056Y0216073D01*
X0087885Y0216036D01*
X0087714Y0216005D01*
X0087542Y0215977D01*
X0087369Y0215953D01*
X0087196Y0215934D01*
X0087022Y0215919D01*
X0086848Y0215909D01*
X0086674Y0215902D01*
X0086500Y0215900D01*
X0086326Y0215902D01*
X0086152Y0215909D01*
X0085978Y0215919D01*
X0085804Y0215934D01*
X0085631Y0215953D01*
X0085458Y0215977D01*
X0085286Y0216005D01*
X0085115Y0216036D01*
X0084944Y0216073D01*
X0084775Y0216113D01*
X0084606Y0216157D01*
X0084439Y0216206D01*
X0084273Y0216258D01*
X0084108Y0216315D01*
X0083945Y0216376D01*
X0083783Y0216440D01*
X0083623Y0216509D01*
X0083464Y0216582D01*
X0083308Y0216658D01*
X0083153Y0216738D01*
X0083000Y0216822D01*
X0082850Y0216910D01*
X0082702Y0217002D01*
X0082555Y0217097D01*
X0082412Y0217195D01*
X0082271Y0217297D01*
X0082132Y0217403D01*
X0081996Y0217512D01*
X0081862Y0217624D01*
X0081732Y0217739D01*
X0081604Y0217858D01*
X0081480Y0217980D01*
X0081358Y0218104D01*
X0081239Y0218232D01*
X0081124Y0218362D01*
X0081012Y0218496D01*
X0080903Y0218632D01*
X0080797Y0218771D01*
X0080695Y0218912D01*
X0080597Y0219055D01*
X0080502Y0219202D01*
X0080410Y0219350D01*
X0080322Y0219500D01*
X0080238Y0219653D01*
X0080158Y0219808D01*
X0080082Y0219964D01*
X0080009Y0220123D01*
X0079940Y0220283D01*
X0079876Y0220445D01*
X0079815Y0220608D01*
X0079758Y0220773D01*
X0079706Y0220939D01*
X0079657Y0221106D01*
X0079613Y0221275D01*
X0079573Y0221444D01*
X0079536Y0221615D01*
X0079505Y0221786D01*
X0079477Y0221958D01*
X0079453Y0222131D01*
X0079434Y0222304D01*
X0079419Y0222478D01*
X0079409Y0222652D01*
X0079402Y0222826D01*
X0079400Y0223000D01*
X0141800Y0170705D02*
X0141800Y0165368D01*
X0142868Y0164300D01*
X0145003Y0164300D01*
X0146070Y0165368D01*
X0146070Y0170705D01*
X0148245Y0169638D02*
X0148245Y0168570D01*
X0149313Y0167503D01*
X0151448Y0167503D01*
X0152516Y0166435D01*
X0152516Y0165368D01*
X0151448Y0164300D01*
X0149313Y0164300D01*
X0148245Y0165368D01*
X0150381Y0163232D02*
X0150381Y0171773D01*
X0151448Y0170705D02*
X0152516Y0169638D01*
X0151448Y0170705D02*
X0149313Y0170705D01*
X0148245Y0169638D01*
X0154691Y0168570D02*
X0156826Y0170705D01*
X0156826Y0164300D01*
X0154691Y0164300D02*
X0158961Y0164300D01*
X0194000Y0168000D02*
X0194000Y0175000D01*
X0194002Y0175060D01*
X0194007Y0175121D01*
X0194016Y0175180D01*
X0194029Y0175239D01*
X0194045Y0175298D01*
X0194065Y0175355D01*
X0194088Y0175410D01*
X0194115Y0175465D01*
X0194144Y0175517D01*
X0194177Y0175568D01*
X0194213Y0175617D01*
X0194251Y0175663D01*
X0194293Y0175707D01*
X0194337Y0175749D01*
X0194383Y0175787D01*
X0194432Y0175823D01*
X0194483Y0175856D01*
X0194535Y0175885D01*
X0194590Y0175912D01*
X0194645Y0175935D01*
X0194702Y0175955D01*
X0194761Y0175971D01*
X0194820Y0175984D01*
X0194879Y0175993D01*
X0194940Y0175998D01*
X0195000Y0176000D01*
X0196500Y0176000D01*
X0197000Y0175500D01*
X0216000Y0175500D01*
X0216500Y0176000D01*
X0218000Y0176000D01*
X0218060Y0175998D01*
X0218121Y0175993D01*
X0218180Y0175984D01*
X0218239Y0175971D01*
X0218298Y0175955D01*
X0218355Y0175935D01*
X0218410Y0175912D01*
X0218465Y0175885D01*
X0218517Y0175856D01*
X0218568Y0175823D01*
X0218617Y0175787D01*
X0218663Y0175749D01*
X0218707Y0175707D01*
X0218749Y0175663D01*
X0218787Y0175617D01*
X0218823Y0175568D01*
X0218856Y0175517D01*
X0218885Y0175465D01*
X0218912Y0175410D01*
X0218935Y0175355D01*
X0218955Y0175298D01*
X0218971Y0175239D01*
X0218984Y0175180D01*
X0218993Y0175121D01*
X0218998Y0175060D01*
X0219000Y0175000D01*
X0219000Y0168000D01*
X0218998Y0167940D01*
X0218993Y0167879D01*
X0218984Y0167820D01*
X0218971Y0167761D01*
X0218955Y0167702D01*
X0218935Y0167645D01*
X0218912Y0167590D01*
X0218885Y0167535D01*
X0218856Y0167483D01*
X0218823Y0167432D01*
X0218787Y0167383D01*
X0218749Y0167337D01*
X0218707Y0167293D01*
X0218663Y0167251D01*
X0218617Y0167213D01*
X0218568Y0167177D01*
X0218517Y0167144D01*
X0218465Y0167115D01*
X0218410Y0167088D01*
X0218355Y0167065D01*
X0218298Y0167045D01*
X0218239Y0167029D01*
X0218180Y0167016D01*
X0218121Y0167007D01*
X0218060Y0167002D01*
X0218000Y0167000D01*
X0216500Y0167000D01*
X0216000Y0167500D01*
X0197000Y0167500D01*
X0196500Y0167000D01*
X0195000Y0167000D01*
X0194940Y0167002D01*
X0194879Y0167007D01*
X0194820Y0167016D01*
X0194761Y0167029D01*
X0194702Y0167045D01*
X0194645Y0167065D01*
X0194590Y0167088D01*
X0194535Y0167115D01*
X0194483Y0167144D01*
X0194432Y0167177D01*
X0194383Y0167213D01*
X0194337Y0167251D01*
X0194293Y0167293D01*
X0194251Y0167337D01*
X0194213Y0167383D01*
X0194177Y0167432D01*
X0194144Y0167483D01*
X0194115Y0167535D01*
X0194088Y0167590D01*
X0194065Y0167645D01*
X0194045Y0167702D01*
X0194029Y0167761D01*
X0194016Y0167820D01*
X0194007Y0167879D01*
X0194002Y0167940D01*
X0194000Y0168000D01*
X0119500Y0096500D02*
X0117000Y0099000D01*
X0112000Y0099000D01*
X0109500Y0096500D01*
X0109500Y0091500D01*
X0112000Y0089000D01*
X0117000Y0089000D01*
X0119500Y0091500D01*
X0119500Y0096500D01*
X0131500Y0091500D02*
X0134000Y0094000D01*
X0139000Y0094000D01*
X0141500Y0091500D01*
X0141500Y0086500D01*
X0139000Y0084000D01*
X0134000Y0084000D01*
X0131500Y0086500D01*
X0131500Y0091500D01*
X0126500Y0075500D02*
X0126500Y0068000D01*
X0126626Y0067998D01*
X0126751Y0067992D01*
X0126876Y0067982D01*
X0127001Y0067968D01*
X0127126Y0067951D01*
X0127250Y0067929D01*
X0127373Y0067904D01*
X0127495Y0067874D01*
X0127616Y0067841D01*
X0127736Y0067804D01*
X0127855Y0067764D01*
X0127972Y0067719D01*
X0128089Y0067671D01*
X0128203Y0067619D01*
X0128316Y0067564D01*
X0128427Y0067505D01*
X0128536Y0067443D01*
X0128643Y0067377D01*
X0128748Y0067308D01*
X0128851Y0067236D01*
X0128952Y0067161D01*
X0129050Y0067082D01*
X0129145Y0067000D01*
X0129238Y0066916D01*
X0129328Y0066828D01*
X0129416Y0066738D01*
X0129500Y0066645D01*
X0129582Y0066550D01*
X0129661Y0066452D01*
X0129736Y0066351D01*
X0129808Y0066248D01*
X0129877Y0066143D01*
X0129943Y0066036D01*
X0130005Y0065927D01*
X0130064Y0065816D01*
X0130119Y0065703D01*
X0130171Y0065589D01*
X0130219Y0065472D01*
X0130264Y0065355D01*
X0130304Y0065236D01*
X0130341Y0065116D01*
X0130374Y0064995D01*
X0130404Y0064873D01*
X0130429Y0064750D01*
X0130451Y0064626D01*
X0130468Y0064501D01*
X0130482Y0064376D01*
X0130492Y0064251D01*
X0130498Y0064126D01*
X0130500Y0064000D01*
X0130498Y0063874D01*
X0130492Y0063749D01*
X0130482Y0063624D01*
X0130468Y0063499D01*
X0130451Y0063374D01*
X0130429Y0063250D01*
X0130404Y0063127D01*
X0130374Y0063005D01*
X0130341Y0062884D01*
X0130304Y0062764D01*
X0130264Y0062645D01*
X0130219Y0062528D01*
X0130171Y0062411D01*
X0130119Y0062297D01*
X0130064Y0062184D01*
X0130005Y0062073D01*
X0129943Y0061964D01*
X0129877Y0061857D01*
X0129808Y0061752D01*
X0129736Y0061649D01*
X0129661Y0061548D01*
X0129582Y0061450D01*
X0129500Y0061355D01*
X0129416Y0061262D01*
X0129328Y0061172D01*
X0129238Y0061084D01*
X0129145Y0061000D01*
X0129050Y0060918D01*
X0128952Y0060839D01*
X0128851Y0060764D01*
X0128748Y0060692D01*
X0128643Y0060623D01*
X0128536Y0060557D01*
X0128427Y0060495D01*
X0128316Y0060436D01*
X0128203Y0060381D01*
X0128089Y0060329D01*
X0127972Y0060281D01*
X0127855Y0060236D01*
X0127736Y0060196D01*
X0127616Y0060159D01*
X0127495Y0060126D01*
X0127373Y0060096D01*
X0127250Y0060071D01*
X0127126Y0060049D01*
X0127001Y0060032D01*
X0126876Y0060018D01*
X0126751Y0060008D01*
X0126626Y0060002D01*
X0126500Y0060000D01*
X0126500Y0052500D01*
X0206500Y0052500D01*
X0206500Y0075500D01*
X0126500Y0075500D01*
X0094000Y0078000D02*
X0094000Y0085000D01*
X0093998Y0085060D01*
X0093993Y0085121D01*
X0093984Y0085180D01*
X0093971Y0085239D01*
X0093955Y0085298D01*
X0093935Y0085355D01*
X0093912Y0085410D01*
X0093885Y0085465D01*
X0093856Y0085517D01*
X0093823Y0085568D01*
X0093787Y0085617D01*
X0093749Y0085663D01*
X0093707Y0085707D01*
X0093663Y0085749D01*
X0093617Y0085787D01*
X0093568Y0085823D01*
X0093517Y0085856D01*
X0093465Y0085885D01*
X0093410Y0085912D01*
X0093355Y0085935D01*
X0093298Y0085955D01*
X0093239Y0085971D01*
X0093180Y0085984D01*
X0093121Y0085993D01*
X0093060Y0085998D01*
X0093000Y0086000D01*
X0091500Y0086000D01*
X0091000Y0085500D01*
X0072000Y0085500D01*
X0071500Y0086000D01*
X0070000Y0086000D01*
X0069940Y0085998D01*
X0069879Y0085993D01*
X0069820Y0085984D01*
X0069761Y0085971D01*
X0069702Y0085955D01*
X0069645Y0085935D01*
X0069590Y0085912D01*
X0069535Y0085885D01*
X0069483Y0085856D01*
X0069432Y0085823D01*
X0069383Y0085787D01*
X0069337Y0085749D01*
X0069293Y0085707D01*
X0069251Y0085663D01*
X0069213Y0085617D01*
X0069177Y0085568D01*
X0069144Y0085517D01*
X0069115Y0085465D01*
X0069088Y0085410D01*
X0069065Y0085355D01*
X0069045Y0085298D01*
X0069029Y0085239D01*
X0069016Y0085180D01*
X0069007Y0085121D01*
X0069002Y0085060D01*
X0069000Y0085000D01*
X0069000Y0078000D01*
X0069002Y0077940D01*
X0069007Y0077879D01*
X0069016Y0077820D01*
X0069029Y0077761D01*
X0069045Y0077702D01*
X0069065Y0077645D01*
X0069088Y0077590D01*
X0069115Y0077535D01*
X0069144Y0077483D01*
X0069177Y0077432D01*
X0069213Y0077383D01*
X0069251Y0077337D01*
X0069293Y0077293D01*
X0069337Y0077251D01*
X0069383Y0077213D01*
X0069432Y0077177D01*
X0069483Y0077144D01*
X0069535Y0077115D01*
X0069590Y0077088D01*
X0069645Y0077065D01*
X0069702Y0077045D01*
X0069761Y0077029D01*
X0069820Y0077016D01*
X0069879Y0077007D01*
X0069940Y0077002D01*
X0070000Y0077000D01*
X0071500Y0077000D01*
X0072000Y0077500D01*
X0091000Y0077500D01*
X0091500Y0077000D01*
X0093000Y0077000D01*
X0093060Y0077002D01*
X0093121Y0077007D01*
X0093180Y0077016D01*
X0093239Y0077029D01*
X0093298Y0077045D01*
X0093355Y0077065D01*
X0093410Y0077088D01*
X0093465Y0077115D01*
X0093517Y0077144D01*
X0093568Y0077177D01*
X0093617Y0077213D01*
X0093663Y0077251D01*
X0093707Y0077293D01*
X0093749Y0077337D01*
X0093787Y0077383D01*
X0093823Y0077432D01*
X0093856Y0077483D01*
X0093885Y0077535D01*
X0093912Y0077590D01*
X0093935Y0077645D01*
X0093955Y0077702D01*
X0093971Y0077761D01*
X0093984Y0077820D01*
X0093993Y0077879D01*
X0093998Y0077940D01*
X0094000Y0078000D01*
X0093000Y0073500D02*
X0091500Y0073500D01*
X0091000Y0073000D01*
X0072000Y0073000D01*
X0071500Y0073500D01*
X0070000Y0073500D01*
X0069940Y0073498D01*
X0069879Y0073493D01*
X0069820Y0073484D01*
X0069761Y0073471D01*
X0069702Y0073455D01*
X0069645Y0073435D01*
X0069590Y0073412D01*
X0069535Y0073385D01*
X0069483Y0073356D01*
X0069432Y0073323D01*
X0069383Y0073287D01*
X0069337Y0073249D01*
X0069293Y0073207D01*
X0069251Y0073163D01*
X0069213Y0073117D01*
X0069177Y0073068D01*
X0069144Y0073017D01*
X0069115Y0072965D01*
X0069088Y0072910D01*
X0069065Y0072855D01*
X0069045Y0072798D01*
X0069029Y0072739D01*
X0069016Y0072680D01*
X0069007Y0072621D01*
X0069002Y0072560D01*
X0069000Y0072500D01*
X0069000Y0065500D01*
X0069002Y0065440D01*
X0069007Y0065379D01*
X0069016Y0065320D01*
X0069029Y0065261D01*
X0069045Y0065202D01*
X0069065Y0065145D01*
X0069088Y0065090D01*
X0069115Y0065035D01*
X0069144Y0064983D01*
X0069177Y0064932D01*
X0069213Y0064883D01*
X0069251Y0064837D01*
X0069293Y0064793D01*
X0069337Y0064751D01*
X0069383Y0064713D01*
X0069432Y0064677D01*
X0069483Y0064644D01*
X0069535Y0064615D01*
X0069590Y0064588D01*
X0069645Y0064565D01*
X0069702Y0064545D01*
X0069761Y0064529D01*
X0069820Y0064516D01*
X0069879Y0064507D01*
X0069940Y0064502D01*
X0070000Y0064500D01*
X0071500Y0064500D01*
X0072000Y0065000D01*
X0091000Y0065000D01*
X0091500Y0064500D01*
X0093000Y0064500D01*
X0093060Y0064502D01*
X0093121Y0064507D01*
X0093180Y0064516D01*
X0093239Y0064529D01*
X0093298Y0064545D01*
X0093355Y0064565D01*
X0093410Y0064588D01*
X0093465Y0064615D01*
X0093517Y0064644D01*
X0093568Y0064677D01*
X0093617Y0064713D01*
X0093663Y0064751D01*
X0093707Y0064793D01*
X0093749Y0064837D01*
X0093787Y0064883D01*
X0093823Y0064932D01*
X0093856Y0064983D01*
X0093885Y0065035D01*
X0093912Y0065090D01*
X0093935Y0065145D01*
X0093955Y0065202D01*
X0093971Y0065261D01*
X0093984Y0065320D01*
X0093993Y0065379D01*
X0093998Y0065440D01*
X0094000Y0065500D01*
X0094000Y0072500D01*
X0093998Y0072560D01*
X0093993Y0072621D01*
X0093984Y0072680D01*
X0093971Y0072739D01*
X0093955Y0072798D01*
X0093935Y0072855D01*
X0093912Y0072910D01*
X0093885Y0072965D01*
X0093856Y0073017D01*
X0093823Y0073068D01*
X0093787Y0073117D01*
X0093749Y0073163D01*
X0093707Y0073207D01*
X0093663Y0073249D01*
X0093617Y0073287D01*
X0093568Y0073323D01*
X0093517Y0073356D01*
X0093465Y0073385D01*
X0093410Y0073412D01*
X0093355Y0073435D01*
X0093298Y0073455D01*
X0093239Y0073471D01*
X0093180Y0073484D01*
X0093121Y0073493D01*
X0093060Y0073498D01*
X0093000Y0073500D01*
X0093000Y0061000D02*
X0091500Y0061000D01*
X0091000Y0060500D01*
X0072000Y0060500D01*
X0071500Y0061000D01*
X0070000Y0061000D01*
X0069940Y0060998D01*
X0069879Y0060993D01*
X0069820Y0060984D01*
X0069761Y0060971D01*
X0069702Y0060955D01*
X0069645Y0060935D01*
X0069590Y0060912D01*
X0069535Y0060885D01*
X0069483Y0060856D01*
X0069432Y0060823D01*
X0069383Y0060787D01*
X0069337Y0060749D01*
X0069293Y0060707D01*
X0069251Y0060663D01*
X0069213Y0060617D01*
X0069177Y0060568D01*
X0069144Y0060517D01*
X0069115Y0060465D01*
X0069088Y0060410D01*
X0069065Y0060355D01*
X0069045Y0060298D01*
X0069029Y0060239D01*
X0069016Y0060180D01*
X0069007Y0060121D01*
X0069002Y0060060D01*
X0069000Y0060000D01*
X0069000Y0053000D01*
X0069002Y0052940D01*
X0069007Y0052879D01*
X0069016Y0052820D01*
X0069029Y0052761D01*
X0069045Y0052702D01*
X0069065Y0052645D01*
X0069088Y0052590D01*
X0069115Y0052535D01*
X0069144Y0052483D01*
X0069177Y0052432D01*
X0069213Y0052383D01*
X0069251Y0052337D01*
X0069293Y0052293D01*
X0069337Y0052251D01*
X0069383Y0052213D01*
X0069432Y0052177D01*
X0069483Y0052144D01*
X0069535Y0052115D01*
X0069590Y0052088D01*
X0069645Y0052065D01*
X0069702Y0052045D01*
X0069761Y0052029D01*
X0069820Y0052016D01*
X0069879Y0052007D01*
X0069940Y0052002D01*
X0070000Y0052000D01*
X0071500Y0052000D01*
X0072000Y0052500D01*
X0091000Y0052500D01*
X0091500Y0052000D01*
X0093000Y0052000D01*
X0093060Y0052002D01*
X0093121Y0052007D01*
X0093180Y0052016D01*
X0093239Y0052029D01*
X0093298Y0052045D01*
X0093355Y0052065D01*
X0093410Y0052088D01*
X0093465Y0052115D01*
X0093517Y0052144D01*
X0093568Y0052177D01*
X0093617Y0052213D01*
X0093663Y0052251D01*
X0093707Y0052293D01*
X0093749Y0052337D01*
X0093787Y0052383D01*
X0093823Y0052432D01*
X0093856Y0052483D01*
X0093885Y0052535D01*
X0093912Y0052590D01*
X0093935Y0052645D01*
X0093955Y0052702D01*
X0093971Y0052761D01*
X0093984Y0052820D01*
X0093993Y0052879D01*
X0093998Y0052940D01*
X0094000Y0053000D01*
X0094000Y0060000D01*
X0093998Y0060060D01*
X0093993Y0060121D01*
X0093984Y0060180D01*
X0093971Y0060239D01*
X0093955Y0060298D01*
X0093935Y0060355D01*
X0093912Y0060410D01*
X0093885Y0060465D01*
X0093856Y0060517D01*
X0093823Y0060568D01*
X0093787Y0060617D01*
X0093749Y0060663D01*
X0093707Y0060707D01*
X0093663Y0060749D01*
X0093617Y0060787D01*
X0093568Y0060823D01*
X0093517Y0060856D01*
X0093465Y0060885D01*
X0093410Y0060912D01*
X0093355Y0060935D01*
X0093298Y0060955D01*
X0093239Y0060971D01*
X0093180Y0060984D01*
X0093121Y0060993D01*
X0093060Y0060998D01*
X0093000Y0061000D01*
X0093000Y0048500D02*
X0091500Y0048500D01*
X0091000Y0048000D01*
X0072000Y0048000D01*
X0071500Y0048500D01*
X0070000Y0048500D01*
X0069940Y0048498D01*
X0069879Y0048493D01*
X0069820Y0048484D01*
X0069761Y0048471D01*
X0069702Y0048455D01*
X0069645Y0048435D01*
X0069590Y0048412D01*
X0069535Y0048385D01*
X0069483Y0048356D01*
X0069432Y0048323D01*
X0069383Y0048287D01*
X0069337Y0048249D01*
X0069293Y0048207D01*
X0069251Y0048163D01*
X0069213Y0048117D01*
X0069177Y0048068D01*
X0069144Y0048017D01*
X0069115Y0047965D01*
X0069088Y0047910D01*
X0069065Y0047855D01*
X0069045Y0047798D01*
X0069029Y0047739D01*
X0069016Y0047680D01*
X0069007Y0047621D01*
X0069002Y0047560D01*
X0069000Y0047500D01*
X0069000Y0040500D01*
X0069002Y0040440D01*
X0069007Y0040379D01*
X0069016Y0040320D01*
X0069029Y0040261D01*
X0069045Y0040202D01*
X0069065Y0040145D01*
X0069088Y0040090D01*
X0069115Y0040035D01*
X0069144Y0039983D01*
X0069177Y0039932D01*
X0069213Y0039883D01*
X0069251Y0039837D01*
X0069293Y0039793D01*
X0069337Y0039751D01*
X0069383Y0039713D01*
X0069432Y0039677D01*
X0069483Y0039644D01*
X0069535Y0039615D01*
X0069590Y0039588D01*
X0069645Y0039565D01*
X0069702Y0039545D01*
X0069761Y0039529D01*
X0069820Y0039516D01*
X0069879Y0039507D01*
X0069940Y0039502D01*
X0070000Y0039500D01*
X0071500Y0039500D01*
X0072000Y0040000D01*
X0091000Y0040000D01*
X0091500Y0039500D01*
X0093000Y0039500D01*
X0093060Y0039502D01*
X0093121Y0039507D01*
X0093180Y0039516D01*
X0093239Y0039529D01*
X0093298Y0039545D01*
X0093355Y0039565D01*
X0093410Y0039588D01*
X0093465Y0039615D01*
X0093517Y0039644D01*
X0093568Y0039677D01*
X0093617Y0039713D01*
X0093663Y0039751D01*
X0093707Y0039793D01*
X0093749Y0039837D01*
X0093787Y0039883D01*
X0093823Y0039932D01*
X0093856Y0039983D01*
X0093885Y0040035D01*
X0093912Y0040090D01*
X0093935Y0040145D01*
X0093955Y0040202D01*
X0093971Y0040261D01*
X0093984Y0040320D01*
X0093993Y0040379D01*
X0093998Y0040440D01*
X0094000Y0040500D01*
X0094000Y0047500D01*
X0093998Y0047560D01*
X0093993Y0047621D01*
X0093984Y0047680D01*
X0093971Y0047739D01*
X0093955Y0047798D01*
X0093935Y0047855D01*
X0093912Y0047910D01*
X0093885Y0047965D01*
X0093856Y0048017D01*
X0093823Y0048068D01*
X0093787Y0048117D01*
X0093749Y0048163D01*
X0093707Y0048207D01*
X0093663Y0048249D01*
X0093617Y0048287D01*
X0093568Y0048323D01*
X0093517Y0048356D01*
X0093465Y0048385D01*
X0093410Y0048412D01*
X0093355Y0048435D01*
X0093298Y0048455D01*
X0093239Y0048471D01*
X0093180Y0048484D01*
X0093121Y0048493D01*
X0093060Y0048498D01*
X0093000Y0048500D01*
X0093000Y0036000D02*
X0091500Y0036000D01*
X0091000Y0035500D01*
X0072000Y0035500D01*
X0071500Y0036000D01*
X0070000Y0036000D01*
X0069940Y0035998D01*
X0069879Y0035993D01*
X0069820Y0035984D01*
X0069761Y0035971D01*
X0069702Y0035955D01*
X0069645Y0035935D01*
X0069590Y0035912D01*
X0069535Y0035885D01*
X0069483Y0035856D01*
X0069432Y0035823D01*
X0069383Y0035787D01*
X0069337Y0035749D01*
X0069293Y0035707D01*
X0069251Y0035663D01*
X0069213Y0035617D01*
X0069177Y0035568D01*
X0069144Y0035517D01*
X0069115Y0035465D01*
X0069088Y0035410D01*
X0069065Y0035355D01*
X0069045Y0035298D01*
X0069029Y0035239D01*
X0069016Y0035180D01*
X0069007Y0035121D01*
X0069002Y0035060D01*
X0069000Y0035000D01*
X0069000Y0028000D01*
X0069002Y0027940D01*
X0069007Y0027879D01*
X0069016Y0027820D01*
X0069029Y0027761D01*
X0069045Y0027702D01*
X0069065Y0027645D01*
X0069088Y0027590D01*
X0069115Y0027535D01*
X0069144Y0027483D01*
X0069177Y0027432D01*
X0069213Y0027383D01*
X0069251Y0027337D01*
X0069293Y0027293D01*
X0069337Y0027251D01*
X0069383Y0027213D01*
X0069432Y0027177D01*
X0069483Y0027144D01*
X0069535Y0027115D01*
X0069590Y0027088D01*
X0069645Y0027065D01*
X0069702Y0027045D01*
X0069761Y0027029D01*
X0069820Y0027016D01*
X0069879Y0027007D01*
X0069940Y0027002D01*
X0070000Y0027000D01*
X0071500Y0027000D01*
X0072000Y0027500D01*
X0091000Y0027500D01*
X0091500Y0027000D01*
X0093000Y0027000D01*
X0093060Y0027002D01*
X0093121Y0027007D01*
X0093180Y0027016D01*
X0093239Y0027029D01*
X0093298Y0027045D01*
X0093355Y0027065D01*
X0093410Y0027088D01*
X0093465Y0027115D01*
X0093517Y0027144D01*
X0093568Y0027177D01*
X0093617Y0027213D01*
X0093663Y0027251D01*
X0093707Y0027293D01*
X0093749Y0027337D01*
X0093787Y0027383D01*
X0093823Y0027432D01*
X0093856Y0027483D01*
X0093885Y0027535D01*
X0093912Y0027590D01*
X0093935Y0027645D01*
X0093955Y0027702D01*
X0093971Y0027761D01*
X0093984Y0027820D01*
X0093993Y0027879D01*
X0093998Y0027940D01*
X0094000Y0028000D01*
X0094000Y0035000D01*
X0093998Y0035060D01*
X0093993Y0035121D01*
X0093984Y0035180D01*
X0093971Y0035239D01*
X0093955Y0035298D01*
X0093935Y0035355D01*
X0093912Y0035410D01*
X0093885Y0035465D01*
X0093856Y0035517D01*
X0093823Y0035568D01*
X0093787Y0035617D01*
X0093749Y0035663D01*
X0093707Y0035707D01*
X0093663Y0035749D01*
X0093617Y0035787D01*
X0093568Y0035823D01*
X0093517Y0035856D01*
X0093465Y0035885D01*
X0093410Y0035912D01*
X0093355Y0035935D01*
X0093298Y0035955D01*
X0093239Y0035971D01*
X0093180Y0035984D01*
X0093121Y0035993D01*
X0093060Y0035998D01*
X0093000Y0036000D01*
X0101500Y0026500D02*
X0104000Y0029000D01*
X0109000Y0029000D01*
X0111500Y0026500D01*
X0111500Y0021500D01*
X0109000Y0019000D01*
X0111500Y0016500D01*
X0111500Y0011500D01*
X0109000Y0009000D01*
X0104000Y0009000D01*
X0101500Y0011500D01*
X0101500Y0016500D01*
X0104000Y0019000D01*
X0101500Y0021500D01*
X0101500Y0026500D01*
X0104000Y0019000D02*
X0109000Y0019000D01*
X0124000Y0015500D02*
X0124000Y0022500D01*
X0124002Y0022560D01*
X0124007Y0022621D01*
X0124016Y0022680D01*
X0124029Y0022739D01*
X0124045Y0022798D01*
X0124065Y0022855D01*
X0124088Y0022910D01*
X0124115Y0022965D01*
X0124144Y0023017D01*
X0124177Y0023068D01*
X0124213Y0023117D01*
X0124251Y0023163D01*
X0124293Y0023207D01*
X0124337Y0023249D01*
X0124383Y0023287D01*
X0124432Y0023323D01*
X0124483Y0023356D01*
X0124535Y0023385D01*
X0124590Y0023412D01*
X0124645Y0023435D01*
X0124702Y0023455D01*
X0124761Y0023471D01*
X0124820Y0023484D01*
X0124879Y0023493D01*
X0124940Y0023498D01*
X0125000Y0023500D01*
X0126500Y0023500D01*
X0127000Y0023000D01*
X0146000Y0023000D01*
X0146500Y0023500D01*
X0148000Y0023500D01*
X0148060Y0023498D01*
X0148121Y0023493D01*
X0148180Y0023484D01*
X0148239Y0023471D01*
X0148298Y0023455D01*
X0148355Y0023435D01*
X0148410Y0023412D01*
X0148465Y0023385D01*
X0148517Y0023356D01*
X0148568Y0023323D01*
X0148617Y0023287D01*
X0148663Y0023249D01*
X0148707Y0023207D01*
X0148749Y0023163D01*
X0148787Y0023117D01*
X0148823Y0023068D01*
X0148856Y0023017D01*
X0148885Y0022965D01*
X0148912Y0022910D01*
X0148935Y0022855D01*
X0148955Y0022798D01*
X0148971Y0022739D01*
X0148984Y0022680D01*
X0148993Y0022621D01*
X0148998Y0022560D01*
X0149000Y0022500D01*
X0149000Y0015500D01*
X0148998Y0015440D01*
X0148993Y0015379D01*
X0148984Y0015320D01*
X0148971Y0015261D01*
X0148955Y0015202D01*
X0148935Y0015145D01*
X0148912Y0015090D01*
X0148885Y0015035D01*
X0148856Y0014983D01*
X0148823Y0014932D01*
X0148787Y0014883D01*
X0148749Y0014837D01*
X0148707Y0014793D01*
X0148663Y0014751D01*
X0148617Y0014713D01*
X0148568Y0014677D01*
X0148517Y0014644D01*
X0148465Y0014615D01*
X0148410Y0014588D01*
X0148355Y0014565D01*
X0148298Y0014545D01*
X0148239Y0014529D01*
X0148180Y0014516D01*
X0148121Y0014507D01*
X0148060Y0014502D01*
X0148000Y0014500D01*
X0146500Y0014500D01*
X0146000Y0015000D01*
X0127000Y0015000D01*
X0126500Y0014500D01*
X0125000Y0014500D01*
X0124940Y0014502D01*
X0124879Y0014507D01*
X0124820Y0014516D01*
X0124761Y0014529D01*
X0124702Y0014545D01*
X0124645Y0014565D01*
X0124590Y0014588D01*
X0124535Y0014615D01*
X0124483Y0014644D01*
X0124432Y0014677D01*
X0124383Y0014713D01*
X0124337Y0014751D01*
X0124293Y0014793D01*
X0124251Y0014837D01*
X0124213Y0014883D01*
X0124177Y0014932D01*
X0124144Y0014983D01*
X0124115Y0015035D01*
X0124088Y0015090D01*
X0124065Y0015145D01*
X0124045Y0015202D01*
X0124029Y0015261D01*
X0124016Y0015320D01*
X0124007Y0015379D01*
X0124002Y0015440D01*
X0124000Y0015500D01*
X0141500Y0031500D02*
X0144000Y0029000D01*
X0149000Y0029000D01*
X0151500Y0031500D01*
X0151500Y0036500D01*
X0149000Y0039000D01*
X0144000Y0039000D01*
X0141500Y0036500D01*
X0141500Y0031500D01*
X0169000Y0030500D02*
X0169000Y0037500D01*
X0169002Y0037560D01*
X0169007Y0037621D01*
X0169016Y0037680D01*
X0169029Y0037739D01*
X0169045Y0037798D01*
X0169065Y0037855D01*
X0169088Y0037910D01*
X0169115Y0037965D01*
X0169144Y0038017D01*
X0169177Y0038068D01*
X0169213Y0038117D01*
X0169251Y0038163D01*
X0169293Y0038207D01*
X0169337Y0038249D01*
X0169383Y0038287D01*
X0169432Y0038323D01*
X0169483Y0038356D01*
X0169535Y0038385D01*
X0169590Y0038412D01*
X0169645Y0038435D01*
X0169702Y0038455D01*
X0169761Y0038471D01*
X0169820Y0038484D01*
X0169879Y0038493D01*
X0169940Y0038498D01*
X0170000Y0038500D01*
X0171500Y0038500D01*
X0172000Y0038000D01*
X0191000Y0038000D01*
X0191500Y0038500D01*
X0193000Y0038500D01*
X0193060Y0038498D01*
X0193121Y0038493D01*
X0193180Y0038484D01*
X0193239Y0038471D01*
X0193298Y0038455D01*
X0193355Y0038435D01*
X0193410Y0038412D01*
X0193465Y0038385D01*
X0193517Y0038356D01*
X0193568Y0038323D01*
X0193617Y0038287D01*
X0193663Y0038249D01*
X0193707Y0038207D01*
X0193749Y0038163D01*
X0193787Y0038117D01*
X0193823Y0038068D01*
X0193856Y0038017D01*
X0193885Y0037965D01*
X0193912Y0037910D01*
X0193935Y0037855D01*
X0193955Y0037798D01*
X0193971Y0037739D01*
X0193984Y0037680D01*
X0193993Y0037621D01*
X0193998Y0037560D01*
X0194000Y0037500D01*
X0194000Y0030500D01*
X0193998Y0030440D01*
X0193993Y0030379D01*
X0193984Y0030320D01*
X0193971Y0030261D01*
X0193955Y0030202D01*
X0193935Y0030145D01*
X0193912Y0030090D01*
X0193885Y0030035D01*
X0193856Y0029983D01*
X0193823Y0029932D01*
X0193787Y0029883D01*
X0193749Y0029837D01*
X0193707Y0029793D01*
X0193663Y0029751D01*
X0193617Y0029713D01*
X0193568Y0029677D01*
X0193517Y0029644D01*
X0193465Y0029615D01*
X0193410Y0029588D01*
X0193355Y0029565D01*
X0193298Y0029545D01*
X0193239Y0029529D01*
X0193180Y0029516D01*
X0193121Y0029507D01*
X0193060Y0029502D01*
X0193000Y0029500D01*
X0191500Y0029500D01*
X0191000Y0030000D01*
X0172000Y0030000D01*
X0171500Y0029500D01*
X0170000Y0029500D01*
X0169940Y0029502D01*
X0169879Y0029507D01*
X0169820Y0029516D01*
X0169761Y0029529D01*
X0169702Y0029545D01*
X0169645Y0029565D01*
X0169590Y0029588D01*
X0169535Y0029615D01*
X0169483Y0029644D01*
X0169432Y0029677D01*
X0169383Y0029713D01*
X0169337Y0029751D01*
X0169293Y0029793D01*
X0169251Y0029837D01*
X0169213Y0029883D01*
X0169177Y0029932D01*
X0169144Y0029983D01*
X0169115Y0030035D01*
X0169088Y0030090D01*
X0169065Y0030145D01*
X0169045Y0030202D01*
X0169029Y0030261D01*
X0169016Y0030320D01*
X0169007Y0030379D01*
X0169002Y0030440D01*
X0169000Y0030500D01*
X0170000Y0023500D02*
X0171500Y0023500D01*
X0172000Y0023000D01*
X0191000Y0023000D01*
X0191500Y0023500D01*
X0193000Y0023500D01*
X0193060Y0023498D01*
X0193121Y0023493D01*
X0193180Y0023484D01*
X0193239Y0023471D01*
X0193298Y0023455D01*
X0193355Y0023435D01*
X0193410Y0023412D01*
X0193465Y0023385D01*
X0193517Y0023356D01*
X0193568Y0023323D01*
X0193617Y0023287D01*
X0193663Y0023249D01*
X0193707Y0023207D01*
X0193749Y0023163D01*
X0193787Y0023117D01*
X0193823Y0023068D01*
X0193856Y0023017D01*
X0193885Y0022965D01*
X0193912Y0022910D01*
X0193935Y0022855D01*
X0193955Y0022798D01*
X0193971Y0022739D01*
X0193984Y0022680D01*
X0193993Y0022621D01*
X0193998Y0022560D01*
X0194000Y0022500D01*
X0194000Y0015500D01*
X0193998Y0015440D01*
X0193993Y0015379D01*
X0193984Y0015320D01*
X0193971Y0015261D01*
X0193955Y0015202D01*
X0193935Y0015145D01*
X0193912Y0015090D01*
X0193885Y0015035D01*
X0193856Y0014983D01*
X0193823Y0014932D01*
X0193787Y0014883D01*
X0193749Y0014837D01*
X0193707Y0014793D01*
X0193663Y0014751D01*
X0193617Y0014713D01*
X0193568Y0014677D01*
X0193517Y0014644D01*
X0193465Y0014615D01*
X0193410Y0014588D01*
X0193355Y0014565D01*
X0193298Y0014545D01*
X0193239Y0014529D01*
X0193180Y0014516D01*
X0193121Y0014507D01*
X0193060Y0014502D01*
X0193000Y0014500D01*
X0191500Y0014500D01*
X0191000Y0015000D01*
X0172000Y0015000D01*
X0171500Y0014500D01*
X0170000Y0014500D01*
X0169940Y0014502D01*
X0169879Y0014507D01*
X0169820Y0014516D01*
X0169761Y0014529D01*
X0169702Y0014545D01*
X0169645Y0014565D01*
X0169590Y0014588D01*
X0169535Y0014615D01*
X0169483Y0014644D01*
X0169432Y0014677D01*
X0169383Y0014713D01*
X0169337Y0014751D01*
X0169293Y0014793D01*
X0169251Y0014837D01*
X0169213Y0014883D01*
X0169177Y0014932D01*
X0169144Y0014983D01*
X0169115Y0015035D01*
X0169088Y0015090D01*
X0169065Y0015145D01*
X0169045Y0015202D01*
X0169029Y0015261D01*
X0169016Y0015320D01*
X0169007Y0015379D01*
X0169002Y0015440D01*
X0169000Y0015500D01*
X0169000Y0022500D01*
X0169002Y0022560D01*
X0169007Y0022621D01*
X0169016Y0022680D01*
X0169029Y0022739D01*
X0169045Y0022798D01*
X0169065Y0022855D01*
X0169088Y0022910D01*
X0169115Y0022965D01*
X0169144Y0023017D01*
X0169177Y0023068D01*
X0169213Y0023117D01*
X0169251Y0023163D01*
X0169293Y0023207D01*
X0169337Y0023249D01*
X0169383Y0023287D01*
X0169432Y0023323D01*
X0169483Y0023356D01*
X0169535Y0023385D01*
X0169590Y0023412D01*
X0169645Y0023435D01*
X0169702Y0023455D01*
X0169761Y0023471D01*
X0169820Y0023484D01*
X0169879Y0023493D01*
X0169940Y0023498D01*
X0170000Y0023500D01*
X0219000Y0048000D02*
X0219000Y0055000D01*
X0219002Y0055060D01*
X0219007Y0055121D01*
X0219016Y0055180D01*
X0219029Y0055239D01*
X0219045Y0055298D01*
X0219065Y0055355D01*
X0219088Y0055410D01*
X0219115Y0055465D01*
X0219144Y0055517D01*
X0219177Y0055568D01*
X0219213Y0055617D01*
X0219251Y0055663D01*
X0219293Y0055707D01*
X0219337Y0055749D01*
X0219383Y0055787D01*
X0219432Y0055823D01*
X0219483Y0055856D01*
X0219535Y0055885D01*
X0219590Y0055912D01*
X0219645Y0055935D01*
X0219702Y0055955D01*
X0219761Y0055971D01*
X0219820Y0055984D01*
X0219879Y0055993D01*
X0219940Y0055998D01*
X0220000Y0056000D01*
X0221500Y0056000D01*
X0222000Y0055500D01*
X0241000Y0055500D01*
X0241500Y0056000D01*
X0243000Y0056000D01*
X0243060Y0055998D01*
X0243121Y0055993D01*
X0243180Y0055984D01*
X0243239Y0055971D01*
X0243298Y0055955D01*
X0243355Y0055935D01*
X0243410Y0055912D01*
X0243465Y0055885D01*
X0243517Y0055856D01*
X0243568Y0055823D01*
X0243617Y0055787D01*
X0243663Y0055749D01*
X0243707Y0055707D01*
X0243749Y0055663D01*
X0243787Y0055617D01*
X0243823Y0055568D01*
X0243856Y0055517D01*
X0243885Y0055465D01*
X0243912Y0055410D01*
X0243935Y0055355D01*
X0243955Y0055298D01*
X0243971Y0055239D01*
X0243984Y0055180D01*
X0243993Y0055121D01*
X0243998Y0055060D01*
X0244000Y0055000D01*
X0244000Y0048000D01*
X0243998Y0047940D01*
X0243993Y0047879D01*
X0243984Y0047820D01*
X0243971Y0047761D01*
X0243955Y0047702D01*
X0243935Y0047645D01*
X0243912Y0047590D01*
X0243885Y0047535D01*
X0243856Y0047483D01*
X0243823Y0047432D01*
X0243787Y0047383D01*
X0243749Y0047337D01*
X0243707Y0047293D01*
X0243663Y0047251D01*
X0243617Y0047213D01*
X0243568Y0047177D01*
X0243517Y0047144D01*
X0243465Y0047115D01*
X0243410Y0047088D01*
X0243355Y0047065D01*
X0243298Y0047045D01*
X0243239Y0047029D01*
X0243180Y0047016D01*
X0243121Y0047007D01*
X0243060Y0047002D01*
X0243000Y0047000D01*
X0241500Y0047000D01*
X0241000Y0047500D01*
X0222000Y0047500D01*
X0221500Y0047000D01*
X0220000Y0047000D01*
X0219940Y0047002D01*
X0219879Y0047007D01*
X0219820Y0047016D01*
X0219761Y0047029D01*
X0219702Y0047045D01*
X0219645Y0047065D01*
X0219590Y0047088D01*
X0219535Y0047115D01*
X0219483Y0047144D01*
X0219432Y0047177D01*
X0219383Y0047213D01*
X0219337Y0047251D01*
X0219293Y0047293D01*
X0219251Y0047337D01*
X0219213Y0047383D01*
X0219177Y0047432D01*
X0219144Y0047483D01*
X0219115Y0047535D01*
X0219088Y0047590D01*
X0219065Y0047645D01*
X0219045Y0047702D01*
X0219029Y0047761D01*
X0219016Y0047820D01*
X0219007Y0047879D01*
X0219002Y0047940D01*
X0219000Y0048000D01*
X0220000Y0062000D02*
X0221500Y0062000D01*
X0222000Y0062500D01*
X0241000Y0062500D01*
X0241500Y0062000D01*
X0243000Y0062000D01*
X0243060Y0062002D01*
X0243121Y0062007D01*
X0243180Y0062016D01*
X0243239Y0062029D01*
X0243298Y0062045D01*
X0243355Y0062065D01*
X0243410Y0062088D01*
X0243465Y0062115D01*
X0243517Y0062144D01*
X0243568Y0062177D01*
X0243617Y0062213D01*
X0243663Y0062251D01*
X0243707Y0062293D01*
X0243749Y0062337D01*
X0243787Y0062383D01*
X0243823Y0062432D01*
X0243856Y0062483D01*
X0243885Y0062535D01*
X0243912Y0062590D01*
X0243935Y0062645D01*
X0243955Y0062702D01*
X0243971Y0062761D01*
X0243984Y0062820D01*
X0243993Y0062879D01*
X0243998Y0062940D01*
X0244000Y0063000D01*
X0244000Y0070000D01*
X0243998Y0070060D01*
X0243993Y0070121D01*
X0243984Y0070180D01*
X0243971Y0070239D01*
X0243955Y0070298D01*
X0243935Y0070355D01*
X0243912Y0070410D01*
X0243885Y0070465D01*
X0243856Y0070517D01*
X0243823Y0070568D01*
X0243787Y0070617D01*
X0243749Y0070663D01*
X0243707Y0070707D01*
X0243663Y0070749D01*
X0243617Y0070787D01*
X0243568Y0070823D01*
X0243517Y0070856D01*
X0243465Y0070885D01*
X0243410Y0070912D01*
X0243355Y0070935D01*
X0243298Y0070955D01*
X0243239Y0070971D01*
X0243180Y0070984D01*
X0243121Y0070993D01*
X0243060Y0070998D01*
X0243000Y0071000D01*
X0241500Y0071000D01*
X0241000Y0070500D01*
X0222000Y0070500D01*
X0221500Y0071000D01*
X0220000Y0071000D01*
X0219940Y0070998D01*
X0219879Y0070993D01*
X0219820Y0070984D01*
X0219761Y0070971D01*
X0219702Y0070955D01*
X0219645Y0070935D01*
X0219590Y0070912D01*
X0219535Y0070885D01*
X0219483Y0070856D01*
X0219432Y0070823D01*
X0219383Y0070787D01*
X0219337Y0070749D01*
X0219293Y0070707D01*
X0219251Y0070663D01*
X0219213Y0070617D01*
X0219177Y0070568D01*
X0219144Y0070517D01*
X0219115Y0070465D01*
X0219088Y0070410D01*
X0219065Y0070355D01*
X0219045Y0070298D01*
X0219029Y0070239D01*
X0219016Y0070180D01*
X0219007Y0070121D01*
X0219002Y0070060D01*
X0219000Y0070000D01*
X0219000Y0063000D01*
X0219002Y0062940D01*
X0219007Y0062879D01*
X0219016Y0062820D01*
X0219029Y0062761D01*
X0219045Y0062702D01*
X0219065Y0062645D01*
X0219088Y0062590D01*
X0219115Y0062535D01*
X0219144Y0062483D01*
X0219177Y0062432D01*
X0219213Y0062383D01*
X0219251Y0062337D01*
X0219293Y0062293D01*
X0219337Y0062251D01*
X0219383Y0062213D01*
X0219432Y0062177D01*
X0219483Y0062144D01*
X0219535Y0062115D01*
X0219590Y0062088D01*
X0219645Y0062065D01*
X0219702Y0062045D01*
X0219761Y0062029D01*
X0219820Y0062016D01*
X0219879Y0062007D01*
X0219940Y0062002D01*
X0220000Y0062000D01*
X0224000Y0079000D02*
X0229000Y0079000D01*
X0231500Y0081500D01*
X0234000Y0079000D01*
X0239000Y0079000D01*
X0241500Y0081500D01*
X0241500Y0086500D01*
X0239000Y0089000D01*
X0234000Y0089000D01*
X0231500Y0086500D01*
X0231500Y0081500D01*
X0231500Y0086500D02*
X0229000Y0089000D01*
X0224000Y0089000D01*
X0221500Y0086500D01*
X0221500Y0081500D01*
X0224000Y0079000D01*
X0241500Y0081500D02*
X0244000Y0079000D01*
X0249000Y0079000D01*
X0251500Y0081500D01*
X0254000Y0079000D01*
X0259000Y0079000D01*
X0261500Y0081500D01*
X0264000Y0079000D01*
X0269000Y0079000D01*
X0271500Y0081500D01*
X0274000Y0079000D01*
X0279000Y0079000D01*
X0281500Y0081500D01*
X0281500Y0086500D01*
X0279000Y0089000D01*
X0274000Y0089000D01*
X0271500Y0086500D01*
X0271500Y0081500D01*
X0271500Y0086500D02*
X0269000Y0089000D01*
X0264000Y0089000D01*
X0261500Y0086500D01*
X0261500Y0081500D01*
X0261500Y0086500D01*
X0259000Y0089000D01*
X0254000Y0089000D01*
X0251500Y0086500D01*
X0251500Y0081500D01*
X0251500Y0086500D02*
X0249000Y0089000D01*
X0244000Y0089000D01*
X0241500Y0086500D01*
X0281500Y0086500D02*
X0284000Y0089000D01*
X0289000Y0089000D01*
X0291500Y0086500D01*
X0294000Y0089000D01*
X0299000Y0089000D01*
X0301500Y0086500D01*
X0301500Y0081500D01*
X0299000Y0079000D01*
X0294000Y0079000D01*
X0291500Y0081500D01*
X0289000Y0079000D01*
X0284000Y0079000D01*
X0281500Y0081500D01*
X0291500Y0081500D02*
X0291500Y0086500D01*
X0292000Y0069000D02*
X0280500Y0068500D01*
X0279500Y0067500D01*
X0279500Y0030500D01*
X0280500Y0029500D01*
X0292000Y0029000D01*
X0256500Y0026500D02*
X0254000Y0024000D01*
X0256500Y0021500D01*
X0256500Y0016500D01*
X0254000Y0014000D01*
X0249000Y0014000D01*
X0246500Y0016500D01*
X0246500Y0021500D01*
X0249000Y0024000D01*
X0246500Y0026500D01*
X0246500Y0031500D01*
X0249000Y0034000D01*
X0254000Y0034000D01*
X0256500Y0031500D01*
X0256500Y0026500D01*
X0254000Y0024000D02*
X0249000Y0024000D01*
X0101500Y0120500D02*
X0101500Y0147500D01*
X0101498Y0147560D01*
X0101493Y0147621D01*
X0101484Y0147680D01*
X0101471Y0147739D01*
X0101455Y0147798D01*
X0101435Y0147855D01*
X0101412Y0147910D01*
X0101385Y0147965D01*
X0101356Y0148017D01*
X0101323Y0148068D01*
X0101287Y0148117D01*
X0101249Y0148163D01*
X0101207Y0148207D01*
X0101163Y0148249D01*
X0101117Y0148287D01*
X0101068Y0148323D01*
X0101017Y0148356D01*
X0100965Y0148385D01*
X0100910Y0148412D01*
X0100855Y0148435D01*
X0100798Y0148455D01*
X0100739Y0148471D01*
X0100680Y0148484D01*
X0100621Y0148493D01*
X0100560Y0148498D01*
X0100500Y0148500D01*
X0092500Y0148500D01*
X0092440Y0148498D01*
X0092379Y0148493D01*
X0092320Y0148484D01*
X0092261Y0148471D01*
X0092202Y0148455D01*
X0092145Y0148435D01*
X0092090Y0148412D01*
X0092035Y0148385D01*
X0091983Y0148356D01*
X0091932Y0148323D01*
X0091883Y0148287D01*
X0091837Y0148249D01*
X0091793Y0148207D01*
X0091751Y0148163D01*
X0091713Y0148117D01*
X0091677Y0148068D01*
X0091644Y0148017D01*
X0091615Y0147965D01*
X0091588Y0147910D01*
X0091565Y0147855D01*
X0091545Y0147798D01*
X0091529Y0147739D01*
X0091516Y0147680D01*
X0091507Y0147621D01*
X0091502Y0147560D01*
X0091500Y0147500D01*
X0091500Y0120500D01*
X0091502Y0120440D01*
X0091507Y0120379D01*
X0091516Y0120320D01*
X0091529Y0120261D01*
X0091545Y0120202D01*
X0091565Y0120145D01*
X0091588Y0120090D01*
X0091615Y0120035D01*
X0091644Y0119983D01*
X0091677Y0119932D01*
X0091713Y0119883D01*
X0091751Y0119837D01*
X0091793Y0119793D01*
X0091837Y0119751D01*
X0091883Y0119713D01*
X0091932Y0119677D01*
X0091983Y0119644D01*
X0092035Y0119615D01*
X0092090Y0119588D01*
X0092145Y0119565D01*
X0092202Y0119545D01*
X0092261Y0119529D01*
X0092320Y0119516D01*
X0092379Y0119507D01*
X0092440Y0119502D01*
X0092500Y0119500D01*
X0100500Y0119500D01*
X0100560Y0119502D01*
X0100621Y0119507D01*
X0100680Y0119516D01*
X0100739Y0119529D01*
X0100798Y0119545D01*
X0100855Y0119565D01*
X0100910Y0119588D01*
X0100965Y0119615D01*
X0101017Y0119644D01*
X0101068Y0119677D01*
X0101117Y0119713D01*
X0101163Y0119751D01*
X0101207Y0119793D01*
X0101249Y0119837D01*
X0101287Y0119883D01*
X0101323Y0119932D01*
X0101356Y0119983D01*
X0101385Y0120035D01*
X0101412Y0120090D01*
X0101435Y0120145D01*
X0101455Y0120202D01*
X0101471Y0120261D01*
X0101484Y0120320D01*
X0101493Y0120379D01*
X0101498Y0120440D01*
X0101500Y0120500D01*
X0096500Y0128000D02*
X0096500Y0132700D01*
X0096500Y0135200D02*
X0096500Y0140000D01*
X0081500Y0147500D02*
X0081500Y0120500D01*
X0081498Y0120440D01*
X0081493Y0120379D01*
X0081484Y0120320D01*
X0081471Y0120261D01*
X0081455Y0120202D01*
X0081435Y0120145D01*
X0081412Y0120090D01*
X0081385Y0120035D01*
X0081356Y0119983D01*
X0081323Y0119932D01*
X0081287Y0119883D01*
X0081249Y0119837D01*
X0081207Y0119793D01*
X0081163Y0119751D01*
X0081117Y0119713D01*
X0081068Y0119677D01*
X0081017Y0119644D01*
X0080965Y0119615D01*
X0080910Y0119588D01*
X0080855Y0119565D01*
X0080798Y0119545D01*
X0080739Y0119529D01*
X0080680Y0119516D01*
X0080621Y0119507D01*
X0080560Y0119502D01*
X0080500Y0119500D01*
X0072500Y0119500D01*
X0072440Y0119502D01*
X0072379Y0119507D01*
X0072320Y0119516D01*
X0072261Y0119529D01*
X0072202Y0119545D01*
X0072145Y0119565D01*
X0072090Y0119588D01*
X0072035Y0119615D01*
X0071983Y0119644D01*
X0071932Y0119677D01*
X0071883Y0119713D01*
X0071837Y0119751D01*
X0071793Y0119793D01*
X0071751Y0119837D01*
X0071713Y0119883D01*
X0071677Y0119932D01*
X0071644Y0119983D01*
X0071615Y0120035D01*
X0071588Y0120090D01*
X0071565Y0120145D01*
X0071545Y0120202D01*
X0071529Y0120261D01*
X0071516Y0120320D01*
X0071507Y0120379D01*
X0071502Y0120440D01*
X0071500Y0120500D01*
X0071500Y0147500D01*
X0071502Y0147560D01*
X0071507Y0147621D01*
X0071516Y0147680D01*
X0071529Y0147739D01*
X0071545Y0147798D01*
X0071565Y0147855D01*
X0071588Y0147910D01*
X0071615Y0147965D01*
X0071644Y0148017D01*
X0071677Y0148068D01*
X0071713Y0148117D01*
X0071751Y0148163D01*
X0071793Y0148207D01*
X0071837Y0148249D01*
X0071883Y0148287D01*
X0071932Y0148323D01*
X0071983Y0148356D01*
X0072035Y0148385D01*
X0072090Y0148412D01*
X0072145Y0148435D01*
X0072202Y0148455D01*
X0072261Y0148471D01*
X0072320Y0148484D01*
X0072379Y0148493D01*
X0072440Y0148498D01*
X0072500Y0148500D01*
X0080500Y0148500D01*
X0080560Y0148498D01*
X0080621Y0148493D01*
X0080680Y0148484D01*
X0080739Y0148471D01*
X0080798Y0148455D01*
X0080855Y0148435D01*
X0080910Y0148412D01*
X0080965Y0148385D01*
X0081017Y0148356D01*
X0081068Y0148323D01*
X0081117Y0148287D01*
X0081163Y0148249D01*
X0081207Y0148207D01*
X0081249Y0148163D01*
X0081287Y0148117D01*
X0081323Y0148068D01*
X0081356Y0148017D01*
X0081385Y0147965D01*
X0081412Y0147910D01*
X0081435Y0147855D01*
X0081455Y0147798D01*
X0081471Y0147739D01*
X0081484Y0147680D01*
X0081493Y0147621D01*
X0081498Y0147560D01*
X0081500Y0147500D01*
X0076500Y0140000D02*
X0076500Y0135200D01*
X0076500Y0132700D02*
X0076500Y0128000D01*
X0071500Y0098500D02*
X0070000Y0098500D01*
X0069940Y0098498D01*
X0069879Y0098493D01*
X0069820Y0098484D01*
X0069761Y0098471D01*
X0069702Y0098455D01*
X0069645Y0098435D01*
X0069590Y0098412D01*
X0069535Y0098385D01*
X0069483Y0098356D01*
X0069432Y0098323D01*
X0069383Y0098287D01*
X0069337Y0098249D01*
X0069293Y0098207D01*
X0069251Y0098163D01*
X0069213Y0098117D01*
X0069177Y0098068D01*
X0069144Y0098017D01*
X0069115Y0097965D01*
X0069088Y0097910D01*
X0069065Y0097855D01*
X0069045Y0097798D01*
X0069029Y0097739D01*
X0069016Y0097680D01*
X0069007Y0097621D01*
X0069002Y0097560D01*
X0069000Y0097500D01*
X0069000Y0090500D01*
X0069002Y0090440D01*
X0069007Y0090379D01*
X0069016Y0090320D01*
X0069029Y0090261D01*
X0069045Y0090202D01*
X0069065Y0090145D01*
X0069088Y0090090D01*
X0069115Y0090035D01*
X0069144Y0089983D01*
X0069177Y0089932D01*
X0069213Y0089883D01*
X0069251Y0089837D01*
X0069293Y0089793D01*
X0069337Y0089751D01*
X0069383Y0089713D01*
X0069432Y0089677D01*
X0069483Y0089644D01*
X0069535Y0089615D01*
X0069590Y0089588D01*
X0069645Y0089565D01*
X0069702Y0089545D01*
X0069761Y0089529D01*
X0069820Y0089516D01*
X0069879Y0089507D01*
X0069940Y0089502D01*
X0070000Y0089500D01*
X0071500Y0089500D01*
X0072000Y0090000D01*
X0091000Y0090000D01*
X0091500Y0089500D01*
X0093000Y0089500D01*
X0093060Y0089502D01*
X0093121Y0089507D01*
X0093180Y0089516D01*
X0093239Y0089529D01*
X0093298Y0089545D01*
X0093355Y0089565D01*
X0093410Y0089588D01*
X0093465Y0089615D01*
X0093517Y0089644D01*
X0093568Y0089677D01*
X0093617Y0089713D01*
X0093663Y0089751D01*
X0093707Y0089793D01*
X0093749Y0089837D01*
X0093787Y0089883D01*
X0093823Y0089932D01*
X0093856Y0089983D01*
X0093885Y0090035D01*
X0093912Y0090090D01*
X0093935Y0090145D01*
X0093955Y0090202D01*
X0093971Y0090261D01*
X0093984Y0090320D01*
X0093993Y0090379D01*
X0093998Y0090440D01*
X0094000Y0090500D01*
X0094000Y0097500D01*
X0093998Y0097560D01*
X0093993Y0097621D01*
X0093984Y0097680D01*
X0093971Y0097739D01*
X0093955Y0097798D01*
X0093935Y0097855D01*
X0093912Y0097910D01*
X0093885Y0097965D01*
X0093856Y0098017D01*
X0093823Y0098068D01*
X0093787Y0098117D01*
X0093749Y0098163D01*
X0093707Y0098207D01*
X0093663Y0098249D01*
X0093617Y0098287D01*
X0093568Y0098323D01*
X0093517Y0098356D01*
X0093465Y0098385D01*
X0093410Y0098412D01*
X0093355Y0098435D01*
X0093298Y0098455D01*
X0093239Y0098471D01*
X0093180Y0098484D01*
X0093121Y0098493D01*
X0093060Y0098498D01*
X0093000Y0098500D01*
X0091500Y0098500D01*
X0091000Y0098000D01*
X0072000Y0098000D01*
X0071500Y0098500D01*
X0069000Y0019000D02*
X0064000Y0019000D01*
X0061500Y0016500D01*
X0061500Y0011500D01*
X0064000Y0009000D01*
X0069000Y0009000D01*
X0071500Y0011500D01*
X0074000Y0009000D01*
X0079000Y0009000D01*
X0081500Y0011500D01*
X0081500Y0016500D01*
X0079000Y0019000D01*
X0074000Y0019000D01*
X0071500Y0016500D01*
X0071500Y0011500D01*
X0071500Y0016500D02*
X0069000Y0019000D01*
D12*
X0069874Y0021450D02*
X0069123Y0022201D01*
X0069874Y0021450D02*
X0071375Y0021450D01*
X0072126Y0022201D01*
X0072126Y0022951D01*
X0071375Y0023702D01*
X0070624Y0023702D01*
X0071375Y0023702D02*
X0072126Y0024453D01*
X0072126Y0025203D01*
X0071375Y0025954D01*
X0069874Y0025954D01*
X0069123Y0025203D01*
X0067555Y0022201D02*
X0066805Y0022201D01*
X0066805Y0021450D01*
X0067555Y0021450D01*
X0067555Y0022201D01*
X0067555Y0021450D02*
X0066054Y0019949D01*
X0064453Y0022201D02*
X0063702Y0021450D01*
X0062201Y0021450D01*
X0061450Y0022201D01*
X0062951Y0023702D02*
X0063702Y0023702D01*
X0064453Y0022951D01*
X0064453Y0022201D01*
X0063702Y0023702D02*
X0064453Y0024453D01*
X0064453Y0025203D01*
X0063702Y0025954D01*
X0062201Y0025954D01*
X0061450Y0025203D01*
X0073727Y0025954D02*
X0073727Y0022951D01*
X0075228Y0021450D01*
X0076730Y0022951D01*
X0076730Y0025954D01*
X0084542Y0025254D02*
X0084542Y0020750D01*
X0084542Y0022251D02*
X0086794Y0022251D01*
X0087545Y0023002D01*
X0087545Y0024503D01*
X0086794Y0025254D01*
X0084542Y0025254D01*
X0086043Y0022251D02*
X0087545Y0020750D01*
X0089146Y0021501D02*
X0089146Y0022251D01*
X0089897Y0023002D01*
X0091398Y0023002D01*
X0092149Y0022251D01*
X0092149Y0021501D01*
X0091398Y0020750D01*
X0089897Y0020750D01*
X0089146Y0021501D01*
X0089897Y0023002D02*
X0089146Y0023753D01*
X0089146Y0024503D01*
X0089897Y0025254D01*
X0091398Y0025254D01*
X0092149Y0024503D01*
X0092149Y0023753D01*
X0091398Y0023002D01*
X0094546Y0024230D02*
X0099050Y0024230D01*
X0094546Y0021227D01*
X0099050Y0021227D01*
X0099050Y0019659D02*
X0099050Y0018158D01*
X0099050Y0018908D02*
X0094546Y0018908D01*
X0094546Y0018158D02*
X0094546Y0019659D01*
X0096798Y0016556D02*
X0096798Y0013554D01*
X0096798Y0011953D02*
X0095297Y0011953D01*
X0094546Y0011202D01*
X0094546Y0008950D01*
X0099050Y0008950D01*
X0097549Y0008950D02*
X0097549Y0011202D01*
X0096798Y0011953D01*
X0095297Y0025831D02*
X0094546Y0026582D01*
X0094546Y0028083D01*
X0095297Y0028834D01*
X0096047Y0028834D01*
X0099050Y0025831D01*
X0099050Y0028834D01*
X0092149Y0037003D02*
X0089146Y0034001D01*
X0089146Y0033250D01*
X0087545Y0033250D02*
X0086043Y0034751D01*
X0086794Y0034751D02*
X0084542Y0034751D01*
X0084542Y0033250D02*
X0084542Y0037754D01*
X0086794Y0037754D01*
X0087545Y0037003D01*
X0087545Y0035502D01*
X0086794Y0034751D01*
X0089146Y0037754D02*
X0092149Y0037754D01*
X0092149Y0037003D01*
X0092149Y0045750D02*
X0089146Y0045750D01*
X0090647Y0045750D02*
X0090647Y0050254D01*
X0089146Y0048753D01*
X0087545Y0049503D02*
X0087545Y0048002D01*
X0086794Y0047251D01*
X0084542Y0047251D01*
X0084542Y0045750D02*
X0084542Y0050254D01*
X0086794Y0050254D01*
X0087545Y0049503D01*
X0086043Y0047251D02*
X0087545Y0045750D01*
X0087545Y0058250D02*
X0086043Y0059751D01*
X0086794Y0059751D02*
X0084542Y0059751D01*
X0084542Y0058250D02*
X0084542Y0062754D01*
X0086794Y0062754D01*
X0087545Y0062003D01*
X0087545Y0060502D01*
X0086794Y0059751D01*
X0089146Y0058250D02*
X0092149Y0061253D01*
X0092149Y0062003D01*
X0091398Y0062754D01*
X0089897Y0062754D01*
X0089146Y0062003D01*
X0089146Y0058250D02*
X0092149Y0058250D01*
X0091398Y0070750D02*
X0089897Y0070750D01*
X0089146Y0071501D01*
X0087545Y0070750D02*
X0086043Y0072251D01*
X0086794Y0072251D02*
X0084542Y0072251D01*
X0084542Y0070750D02*
X0084542Y0075254D01*
X0086794Y0075254D01*
X0087545Y0074503D01*
X0087545Y0073002D01*
X0086794Y0072251D01*
X0089146Y0074503D02*
X0089897Y0075254D01*
X0091398Y0075254D01*
X0092149Y0074503D01*
X0092149Y0073753D01*
X0091398Y0073002D01*
X0092149Y0072251D01*
X0092149Y0071501D01*
X0091398Y0070750D01*
X0091398Y0073002D02*
X0090647Y0073002D01*
X0091398Y0083250D02*
X0091398Y0087754D01*
X0089146Y0085502D01*
X0092149Y0085502D01*
X0087545Y0085502D02*
X0086794Y0084751D01*
X0084542Y0084751D01*
X0084542Y0083250D02*
X0084542Y0087754D01*
X0086794Y0087754D01*
X0087545Y0087003D01*
X0087545Y0085502D01*
X0086043Y0084751D02*
X0087545Y0083250D01*
X0109450Y0102201D02*
X0110201Y0101450D01*
X0110951Y0101450D01*
X0111702Y0102201D01*
X0111702Y0105954D01*
X0110951Y0105954D02*
X0112453Y0105954D01*
X0114054Y0105954D02*
X0116306Y0105954D01*
X0117056Y0105203D01*
X0117056Y0103702D01*
X0116306Y0102951D01*
X0114054Y0102951D01*
X0114054Y0101450D02*
X0114054Y0105954D01*
X0118658Y0105203D02*
X0119408Y0105954D01*
X0120910Y0105954D01*
X0121660Y0105203D01*
X0121660Y0104453D01*
X0120910Y0103702D01*
X0121660Y0102951D01*
X0121660Y0102201D01*
X0120910Y0101450D01*
X0119408Y0101450D01*
X0118658Y0102201D01*
X0120159Y0103702D02*
X0120910Y0103702D01*
X0131450Y0097201D02*
X0132201Y0096450D01*
X0132951Y0096450D01*
X0133702Y0097201D01*
X0133702Y0100954D01*
X0132951Y0100954D02*
X0134453Y0100954D01*
X0136054Y0100954D02*
X0138306Y0100954D01*
X0139056Y0100203D01*
X0139056Y0098702D01*
X0138306Y0097951D01*
X0136054Y0097951D01*
X0136054Y0096450D02*
X0136054Y0100954D01*
X0140658Y0100203D02*
X0141408Y0100954D01*
X0142910Y0100954D01*
X0143660Y0100203D01*
X0143660Y0099453D01*
X0140658Y0096450D01*
X0143660Y0096450D01*
X0124750Y0063426D02*
X0124750Y0060423D01*
X0124750Y0061924D02*
X0120246Y0061924D01*
X0121747Y0060423D01*
X0120997Y0058822D02*
X0120246Y0058071D01*
X0120246Y0056570D01*
X0120997Y0055819D01*
X0123999Y0055819D01*
X0124750Y0056570D01*
X0124750Y0058071D01*
X0123999Y0058822D01*
X0124750Y0054251D02*
X0124750Y0052750D01*
X0124750Y0053501D02*
X0120246Y0053501D01*
X0120246Y0054251D02*
X0120246Y0052750D01*
X0141450Y0042201D02*
X0142201Y0041450D01*
X0142951Y0041450D01*
X0143702Y0042201D01*
X0143702Y0045954D01*
X0142951Y0045954D02*
X0144453Y0045954D01*
X0146054Y0045954D02*
X0148306Y0045954D01*
X0149056Y0045203D01*
X0149056Y0043702D01*
X0148306Y0042951D01*
X0146054Y0042951D01*
X0146054Y0041450D02*
X0146054Y0045954D01*
X0150658Y0045954D02*
X0153660Y0045954D01*
X0153660Y0045203D01*
X0150658Y0042201D01*
X0150658Y0041450D01*
X0135459Y0029754D02*
X0133958Y0028253D01*
X0135459Y0029754D02*
X0135459Y0025250D01*
X0133958Y0025250D02*
X0136960Y0025250D01*
X0132356Y0025250D02*
X0129354Y0025250D01*
X0130855Y0025250D02*
X0130855Y0029754D01*
X0129354Y0028253D01*
X0127753Y0029003D02*
X0127753Y0027502D01*
X0127002Y0026751D01*
X0124750Y0026751D01*
X0124750Y0025250D02*
X0124750Y0029754D01*
X0127002Y0029754D01*
X0127753Y0029003D01*
X0126251Y0026751D02*
X0127753Y0025250D01*
X0169750Y0025250D02*
X0169750Y0029754D01*
X0172002Y0029754D01*
X0172753Y0029003D01*
X0172753Y0027502D01*
X0172002Y0026751D01*
X0169750Y0026751D01*
X0171251Y0026751D02*
X0172753Y0025250D01*
X0174354Y0025250D02*
X0177356Y0025250D01*
X0175855Y0025250D02*
X0175855Y0029754D01*
X0174354Y0028253D01*
X0178958Y0029003D02*
X0179708Y0029754D01*
X0181210Y0029754D01*
X0181960Y0029003D01*
X0181960Y0028253D01*
X0178958Y0025250D01*
X0181960Y0025250D01*
X0184542Y0024751D02*
X0186794Y0024751D01*
X0187545Y0025502D01*
X0187545Y0027003D01*
X0186794Y0027754D01*
X0184542Y0027754D01*
X0184542Y0023250D01*
X0186043Y0024751D02*
X0187545Y0023250D01*
X0189146Y0024001D02*
X0189897Y0023250D01*
X0191398Y0023250D01*
X0192149Y0024001D01*
X0192149Y0024751D01*
X0191398Y0025502D01*
X0189146Y0025502D01*
X0189146Y0024001D01*
X0189146Y0025502D02*
X0190647Y0027003D01*
X0192149Y0027754D01*
X0234542Y0040750D02*
X0234542Y0045254D01*
X0236794Y0045254D01*
X0237545Y0044503D01*
X0237545Y0043002D01*
X0236794Y0042251D01*
X0234542Y0042251D01*
X0236043Y0042251D02*
X0237545Y0040750D01*
X0239146Y0041501D02*
X0239897Y0040750D01*
X0241398Y0040750D01*
X0242149Y0041501D01*
X0242149Y0043002D01*
X0241398Y0043753D01*
X0240647Y0043753D01*
X0239146Y0043002D01*
X0239146Y0045254D01*
X0242149Y0045254D01*
X0258946Y0032949D02*
X0258946Y0029946D01*
X0258946Y0031447D02*
X0263450Y0031447D01*
X0263450Y0028345D02*
X0260447Y0028345D01*
X0258946Y0026843D01*
X0260447Y0025342D01*
X0263450Y0025342D01*
X0263450Y0023741D02*
X0263450Y0020738D01*
X0258946Y0020738D01*
X0258946Y0023741D01*
X0261198Y0022239D02*
X0261198Y0020738D01*
X0261198Y0019137D02*
X0261198Y0016134D01*
X0263450Y0016134D02*
X0258946Y0016134D01*
X0258946Y0019137D02*
X0263450Y0019137D01*
X0261198Y0025342D02*
X0261198Y0028345D01*
X0273697Y0060042D02*
X0272946Y0060793D01*
X0272946Y0062294D01*
X0273697Y0063045D01*
X0276699Y0063045D01*
X0277450Y0062294D01*
X0277450Y0060793D01*
X0276699Y0060042D01*
X0273697Y0060042D01*
X0275949Y0061543D02*
X0277450Y0063045D01*
X0277450Y0064646D02*
X0277450Y0067649D01*
X0277450Y0066147D02*
X0272946Y0066147D01*
X0274447Y0064646D01*
X0272910Y0091450D02*
X0270658Y0091450D01*
X0270658Y0095954D01*
X0272910Y0095954D01*
X0273660Y0095203D01*
X0273660Y0092201D01*
X0272910Y0091450D01*
X0269056Y0092201D02*
X0268306Y0091450D01*
X0266805Y0091450D01*
X0266054Y0092201D01*
X0266054Y0095203D01*
X0266805Y0095954D01*
X0268306Y0095954D01*
X0269056Y0095203D01*
X0264453Y0091450D02*
X0261450Y0091450D01*
X0261450Y0095954D01*
X0252076Y0095203D02*
X0251325Y0095954D01*
X0249824Y0095954D01*
X0249074Y0095203D01*
X0249074Y0094453D01*
X0249824Y0093702D01*
X0251325Y0093702D01*
X0252076Y0092951D01*
X0252076Y0092201D01*
X0251325Y0091450D01*
X0249824Y0091450D01*
X0249074Y0092201D01*
X0247472Y0091450D02*
X0247472Y0095954D01*
X0244470Y0095954D02*
X0244470Y0091450D01*
X0242868Y0092201D02*
X0242868Y0095203D01*
X0242118Y0095954D01*
X0240616Y0095954D01*
X0239866Y0095203D01*
X0239866Y0092201D01*
X0240616Y0091450D01*
X0242118Y0091450D01*
X0242868Y0092201D01*
X0244470Y0095954D02*
X0247472Y0091450D01*
X0238264Y0095954D02*
X0235262Y0095954D01*
X0236763Y0095954D02*
X0236763Y0091450D01*
X0232159Y0091450D02*
X0232159Y0095954D01*
X0230658Y0095954D02*
X0233660Y0095954D01*
X0229056Y0095954D02*
X0229056Y0092201D01*
X0228306Y0091450D01*
X0226805Y0091450D01*
X0226054Y0092201D01*
X0226054Y0095954D01*
X0224453Y0095203D02*
X0224453Y0094453D01*
X0223702Y0093702D01*
X0221450Y0093702D01*
X0221450Y0091450D02*
X0221450Y0095954D01*
X0223702Y0095954D01*
X0224453Y0095203D01*
X0223702Y0093702D02*
X0224453Y0092951D01*
X0224453Y0092201D01*
X0223702Y0091450D01*
X0221450Y0091450D01*
X0222002Y0077254D02*
X0219750Y0077254D01*
X0219750Y0072750D01*
X0219750Y0074251D02*
X0222002Y0074251D01*
X0222753Y0075002D01*
X0222753Y0076503D01*
X0222002Y0077254D01*
X0224354Y0076503D02*
X0224354Y0075753D01*
X0225105Y0075002D01*
X0227356Y0075002D01*
X0227356Y0073501D02*
X0227356Y0076503D01*
X0226606Y0077254D01*
X0225105Y0077254D01*
X0224354Y0076503D01*
X0224354Y0073501D02*
X0225105Y0072750D01*
X0226606Y0072750D01*
X0227356Y0073501D01*
X0222753Y0072750D02*
X0221251Y0074251D01*
X0107250Y0133793D02*
X0107250Y0135294D01*
X0106499Y0136045D01*
X0107250Y0137646D02*
X0104247Y0140649D01*
X0103497Y0140649D01*
X0102746Y0139898D01*
X0102746Y0138397D01*
X0103497Y0137646D01*
X0103497Y0136045D02*
X0102746Y0135294D01*
X0102746Y0133793D01*
X0103497Y0133042D01*
X0106499Y0133042D01*
X0107250Y0133793D01*
X0107250Y0137646D02*
X0107250Y0140649D01*
X0087250Y0140649D02*
X0087250Y0137646D01*
X0087250Y0139147D02*
X0082746Y0139147D01*
X0084247Y0137646D01*
X0083497Y0136045D02*
X0082746Y0135294D01*
X0082746Y0133793D01*
X0083497Y0133042D01*
X0086499Y0133042D01*
X0087250Y0133793D01*
X0087250Y0135294D01*
X0086499Y0136045D01*
X0194750Y0177750D02*
X0194750Y0182254D01*
X0197002Y0182254D01*
X0197753Y0181503D01*
X0197753Y0180002D01*
X0197002Y0179251D01*
X0194750Y0179251D01*
X0196251Y0179251D02*
X0197753Y0177750D01*
X0199354Y0177750D02*
X0202356Y0177750D01*
X0200855Y0177750D02*
X0200855Y0182254D01*
X0199354Y0180753D01*
X0203958Y0181503D02*
X0204708Y0182254D01*
X0206210Y0182254D01*
X0206960Y0181503D01*
X0206960Y0180753D01*
X0206210Y0180002D01*
X0206960Y0179251D01*
X0206960Y0178501D01*
X0206210Y0177750D01*
X0204708Y0177750D01*
X0203958Y0178501D01*
X0205459Y0180002D02*
X0206210Y0180002D01*
X0163660Y0226450D02*
X0160658Y0226450D01*
X0162159Y0226450D02*
X0162159Y0230954D01*
X0160658Y0229453D01*
X0159056Y0230203D02*
X0159056Y0228702D01*
X0158306Y0227951D01*
X0156054Y0227951D01*
X0156054Y0226450D02*
X0156054Y0230954D01*
X0158306Y0230954D01*
X0159056Y0230203D01*
X0154453Y0230954D02*
X0152951Y0230954D01*
X0153702Y0230954D02*
X0153702Y0227201D01*
X0152951Y0226450D01*
X0152201Y0226450D01*
X0151450Y0227201D01*
X0123660Y0227201D02*
X0122910Y0226450D01*
X0120658Y0226450D01*
X0120658Y0230954D01*
X0122910Y0230954D01*
X0123660Y0230203D01*
X0123660Y0227201D01*
X0119056Y0226450D02*
X0119056Y0230954D01*
X0116054Y0230954D02*
X0119056Y0226450D01*
X0116054Y0226450D02*
X0116054Y0230954D01*
X0114453Y0230203D02*
X0113702Y0230954D01*
X0112201Y0230954D01*
X0111450Y0230203D01*
X0111450Y0227201D01*
X0112201Y0226450D01*
X0113702Y0226450D01*
X0114453Y0227201D01*
X0114453Y0228702D01*
X0112951Y0228702D01*
X0236750Y0229250D02*
X0239753Y0229250D01*
X0238251Y0229250D02*
X0238251Y0233754D01*
X0236750Y0232253D01*
X0242501Y0238250D02*
X0241750Y0239001D01*
X0242501Y0238250D02*
X0244002Y0238250D01*
X0244753Y0239001D01*
X0244753Y0239751D01*
X0244002Y0240502D01*
X0242501Y0240502D01*
X0241750Y0241253D01*
X0241750Y0242003D01*
X0242501Y0242754D01*
X0244002Y0242754D01*
X0244753Y0242003D01*
X0246354Y0242754D02*
X0246354Y0239751D01*
X0247855Y0238250D01*
X0249356Y0239751D01*
X0249356Y0242754D01*
X0250958Y0241253D02*
X0252459Y0242754D01*
X0252459Y0238250D01*
X0250958Y0238250D02*
X0253960Y0238250D01*
D13*
X0220700Y0171500D03*
X0192300Y0171500D03*
X0095700Y0094000D03*
X0095700Y0081500D03*
X0095700Y0069000D03*
X0095700Y0056500D03*
X0095700Y0044000D03*
X0095700Y0031500D03*
X0122300Y0019000D03*
X0150700Y0019000D03*
X0167300Y0019000D03*
X0167300Y0034000D03*
X0195700Y0034000D03*
X0195700Y0019000D03*
X0217300Y0051500D03*
X0217300Y0066500D03*
X0245700Y0066500D03*
X0245700Y0051500D03*
X0067300Y0056500D03*
X0067300Y0044000D03*
X0067300Y0031500D03*
X0067300Y0069000D03*
X0067300Y0081500D03*
X0067300Y0094000D03*
D14*
X0068500Y0176500D02*
X0068500Y0209000D01*
X0104500Y0209000D01*
X0104500Y0176500D01*
X0068500Y0176500D01*
D15*
X0064650Y0176296D02*
X0064650Y0172092D01*
X0060446Y0176296D01*
X0059396Y0176296D01*
X0058345Y0175245D01*
X0058345Y0173143D01*
X0059396Y0172092D01*
X0059396Y0169851D02*
X0058345Y0168800D01*
X0058345Y0166698D01*
X0059396Y0165647D01*
X0063599Y0165647D01*
X0064650Y0166698D01*
X0064650Y0168800D01*
X0063599Y0169851D01*
X0064650Y0163452D02*
X0064650Y0161350D01*
X0064650Y0162401D02*
X0058345Y0162401D01*
X0058345Y0161350D02*
X0058345Y0163452D01*
D16*
X0076500Y0161750D03*
X0086500Y0161750D03*
X0096500Y0161750D03*
D17*
X0096500Y0168500D03*
X0086500Y0168500D03*
X0076500Y0168500D03*
D18*
X0076500Y0135200D02*
X0074000Y0135200D01*
X0074000Y0132700D02*
X0076500Y0132700D01*
X0079000Y0132700D01*
X0079000Y0135200D02*
X0076500Y0135200D01*
X0094000Y0135200D02*
X0096500Y0135200D01*
X0099000Y0135200D01*
X0099000Y0132700D02*
X0096500Y0132700D01*
X0094000Y0132700D01*
D19*
X0059354Y0212071D02*
X0053055Y0212071D01*
X0059354Y0212071D02*
X0059354Y0218370D01*
X0034354Y0212071D02*
X0003055Y0212071D01*
X0003055Y0245929D01*
X0059354Y0245929D01*
X0059354Y0239630D01*
D20*
X0010339Y0208804D02*
X0010339Y0204200D01*
X0011873Y0204200D02*
X0008804Y0204200D01*
X0006502Y0204967D02*
X0006502Y0208804D01*
X0005735Y0208804D02*
X0007269Y0208804D01*
X0008804Y0207269D02*
X0010339Y0208804D01*
X0006502Y0204967D02*
X0005735Y0204200D01*
X0004967Y0204200D01*
X0004200Y0204967D01*
D21*
X0002130Y0190417D02*
X0002130Y0170535D01*
X0051343Y0170535D01*
X0051343Y0190220D01*
X0002130Y0190220D01*
X0009602Y0180378D02*
X0009604Y0180475D01*
X0009610Y0180572D01*
X0009620Y0180669D01*
X0009634Y0180766D01*
X0009652Y0180861D01*
X0009674Y0180956D01*
X0009699Y0181050D01*
X0009729Y0181143D01*
X0009762Y0181234D01*
X0009799Y0181324D01*
X0009840Y0181413D01*
X0009884Y0181499D01*
X0009932Y0181584D01*
X0009983Y0181667D01*
X0010038Y0181747D01*
X0010095Y0181826D01*
X0010156Y0181901D01*
X0010221Y0181975D01*
X0010288Y0182045D01*
X0010357Y0182113D01*
X0010430Y0182178D01*
X0010505Y0182240D01*
X0010583Y0182298D01*
X0010663Y0182354D01*
X0010745Y0182406D01*
X0010829Y0182454D01*
X0010916Y0182500D01*
X0011004Y0182541D01*
X0011093Y0182579D01*
X0011184Y0182613D01*
X0011277Y0182644D01*
X0011370Y0182670D01*
X0011465Y0182693D01*
X0011560Y0182712D01*
X0011657Y0182727D01*
X0011753Y0182738D01*
X0011850Y0182745D01*
X0011948Y0182748D01*
X0012045Y0182747D01*
X0012142Y0182742D01*
X0012239Y0182733D01*
X0012336Y0182720D01*
X0012431Y0182703D01*
X0012526Y0182682D01*
X0012621Y0182658D01*
X0012714Y0182629D01*
X0012805Y0182597D01*
X0012896Y0182561D01*
X0012985Y0182521D01*
X0013072Y0182477D01*
X0013157Y0182430D01*
X0013240Y0182380D01*
X0013321Y0182326D01*
X0013400Y0182269D01*
X0013477Y0182209D01*
X0013551Y0182146D01*
X0013622Y0182079D01*
X0013690Y0182010D01*
X0013756Y0181938D01*
X0013818Y0181864D01*
X0013878Y0181787D01*
X0013934Y0181707D01*
X0013987Y0181626D01*
X0014037Y0181542D01*
X0014083Y0181456D01*
X0014125Y0181369D01*
X0014164Y0181279D01*
X0014199Y0181189D01*
X0014230Y0181096D01*
X0014258Y0181003D01*
X0014282Y0180909D01*
X0014302Y0180813D01*
X0014318Y0180717D01*
X0014330Y0180621D01*
X0014338Y0180524D01*
X0014342Y0180427D01*
X0014342Y0180329D01*
X0014338Y0180232D01*
X0014330Y0180135D01*
X0014318Y0180039D01*
X0014302Y0179943D01*
X0014282Y0179847D01*
X0014258Y0179753D01*
X0014230Y0179660D01*
X0014199Y0179567D01*
X0014164Y0179477D01*
X0014125Y0179387D01*
X0014083Y0179300D01*
X0014037Y0179214D01*
X0013987Y0179130D01*
X0013934Y0179049D01*
X0013878Y0178969D01*
X0013818Y0178892D01*
X0013756Y0178818D01*
X0013690Y0178746D01*
X0013622Y0178677D01*
X0013551Y0178610D01*
X0013477Y0178547D01*
X0013400Y0178487D01*
X0013321Y0178430D01*
X0013240Y0178376D01*
X0013157Y0178326D01*
X0013072Y0178279D01*
X0012985Y0178235D01*
X0012896Y0178195D01*
X0012805Y0178159D01*
X0012714Y0178127D01*
X0012621Y0178098D01*
X0012526Y0178074D01*
X0012431Y0178053D01*
X0012336Y0178036D01*
X0012239Y0178023D01*
X0012142Y0178014D01*
X0012045Y0178009D01*
X0011948Y0178008D01*
X0011850Y0178011D01*
X0011753Y0178018D01*
X0011657Y0178029D01*
X0011560Y0178044D01*
X0011465Y0178063D01*
X0011370Y0178086D01*
X0011277Y0178112D01*
X0011184Y0178143D01*
X0011093Y0178177D01*
X0011004Y0178215D01*
X0010916Y0178256D01*
X0010829Y0178302D01*
X0010745Y0178350D01*
X0010663Y0178402D01*
X0010583Y0178458D01*
X0010505Y0178516D01*
X0010430Y0178578D01*
X0010357Y0178643D01*
X0010288Y0178711D01*
X0010221Y0178781D01*
X0010156Y0178855D01*
X0010095Y0178930D01*
X0010038Y0179009D01*
X0009983Y0179089D01*
X0009932Y0179172D01*
X0009884Y0179257D01*
X0009840Y0179343D01*
X0009799Y0179432D01*
X0009762Y0179522D01*
X0009729Y0179613D01*
X0009699Y0179706D01*
X0009674Y0179800D01*
X0009652Y0179895D01*
X0009634Y0179990D01*
X0009620Y0180087D01*
X0009610Y0180184D01*
X0009604Y0180281D01*
X0009602Y0180378D01*
X0002130Y0140417D02*
X0002130Y0120535D01*
X0051343Y0120535D01*
X0051343Y0140220D01*
X0002130Y0140220D01*
X0009602Y0130378D02*
X0009604Y0130475D01*
X0009610Y0130572D01*
X0009620Y0130669D01*
X0009634Y0130766D01*
X0009652Y0130861D01*
X0009674Y0130956D01*
X0009699Y0131050D01*
X0009729Y0131143D01*
X0009762Y0131234D01*
X0009799Y0131324D01*
X0009840Y0131413D01*
X0009884Y0131499D01*
X0009932Y0131584D01*
X0009983Y0131667D01*
X0010038Y0131747D01*
X0010095Y0131826D01*
X0010156Y0131901D01*
X0010221Y0131975D01*
X0010288Y0132045D01*
X0010357Y0132113D01*
X0010430Y0132178D01*
X0010505Y0132240D01*
X0010583Y0132298D01*
X0010663Y0132354D01*
X0010745Y0132406D01*
X0010829Y0132454D01*
X0010916Y0132500D01*
X0011004Y0132541D01*
X0011093Y0132579D01*
X0011184Y0132613D01*
X0011277Y0132644D01*
X0011370Y0132670D01*
X0011465Y0132693D01*
X0011560Y0132712D01*
X0011657Y0132727D01*
X0011753Y0132738D01*
X0011850Y0132745D01*
X0011948Y0132748D01*
X0012045Y0132747D01*
X0012142Y0132742D01*
X0012239Y0132733D01*
X0012336Y0132720D01*
X0012431Y0132703D01*
X0012526Y0132682D01*
X0012621Y0132658D01*
X0012714Y0132629D01*
X0012805Y0132597D01*
X0012896Y0132561D01*
X0012985Y0132521D01*
X0013072Y0132477D01*
X0013157Y0132430D01*
X0013240Y0132380D01*
X0013321Y0132326D01*
X0013400Y0132269D01*
X0013477Y0132209D01*
X0013551Y0132146D01*
X0013622Y0132079D01*
X0013690Y0132010D01*
X0013756Y0131938D01*
X0013818Y0131864D01*
X0013878Y0131787D01*
X0013934Y0131707D01*
X0013987Y0131626D01*
X0014037Y0131542D01*
X0014083Y0131456D01*
X0014125Y0131369D01*
X0014164Y0131279D01*
X0014199Y0131189D01*
X0014230Y0131096D01*
X0014258Y0131003D01*
X0014282Y0130909D01*
X0014302Y0130813D01*
X0014318Y0130717D01*
X0014330Y0130621D01*
X0014338Y0130524D01*
X0014342Y0130427D01*
X0014342Y0130329D01*
X0014338Y0130232D01*
X0014330Y0130135D01*
X0014318Y0130039D01*
X0014302Y0129943D01*
X0014282Y0129847D01*
X0014258Y0129753D01*
X0014230Y0129660D01*
X0014199Y0129567D01*
X0014164Y0129477D01*
X0014125Y0129387D01*
X0014083Y0129300D01*
X0014037Y0129214D01*
X0013987Y0129130D01*
X0013934Y0129049D01*
X0013878Y0128969D01*
X0013818Y0128892D01*
X0013756Y0128818D01*
X0013690Y0128746D01*
X0013622Y0128677D01*
X0013551Y0128610D01*
X0013477Y0128547D01*
X0013400Y0128487D01*
X0013321Y0128430D01*
X0013240Y0128376D01*
X0013157Y0128326D01*
X0013072Y0128279D01*
X0012985Y0128235D01*
X0012896Y0128195D01*
X0012805Y0128159D01*
X0012714Y0128127D01*
X0012621Y0128098D01*
X0012526Y0128074D01*
X0012431Y0128053D01*
X0012336Y0128036D01*
X0012239Y0128023D01*
X0012142Y0128014D01*
X0012045Y0128009D01*
X0011948Y0128008D01*
X0011850Y0128011D01*
X0011753Y0128018D01*
X0011657Y0128029D01*
X0011560Y0128044D01*
X0011465Y0128063D01*
X0011370Y0128086D01*
X0011277Y0128112D01*
X0011184Y0128143D01*
X0011093Y0128177D01*
X0011004Y0128215D01*
X0010916Y0128256D01*
X0010829Y0128302D01*
X0010745Y0128350D01*
X0010663Y0128402D01*
X0010583Y0128458D01*
X0010505Y0128516D01*
X0010430Y0128578D01*
X0010357Y0128643D01*
X0010288Y0128711D01*
X0010221Y0128781D01*
X0010156Y0128855D01*
X0010095Y0128930D01*
X0010038Y0129009D01*
X0009983Y0129089D01*
X0009932Y0129172D01*
X0009884Y0129257D01*
X0009840Y0129343D01*
X0009799Y0129432D01*
X0009762Y0129522D01*
X0009729Y0129613D01*
X0009699Y0129706D01*
X0009674Y0129800D01*
X0009652Y0129895D01*
X0009634Y0129990D01*
X0009620Y0130087D01*
X0009610Y0130184D01*
X0009604Y0130281D01*
X0009602Y0130378D01*
X0002130Y0090417D02*
X0002130Y0070535D01*
X0051343Y0070535D01*
X0051343Y0090220D01*
X0002130Y0090220D01*
X0009602Y0080378D02*
X0009604Y0080475D01*
X0009610Y0080572D01*
X0009620Y0080669D01*
X0009634Y0080766D01*
X0009652Y0080861D01*
X0009674Y0080956D01*
X0009699Y0081050D01*
X0009729Y0081143D01*
X0009762Y0081234D01*
X0009799Y0081324D01*
X0009840Y0081413D01*
X0009884Y0081499D01*
X0009932Y0081584D01*
X0009983Y0081667D01*
X0010038Y0081747D01*
X0010095Y0081826D01*
X0010156Y0081901D01*
X0010221Y0081975D01*
X0010288Y0082045D01*
X0010357Y0082113D01*
X0010430Y0082178D01*
X0010505Y0082240D01*
X0010583Y0082298D01*
X0010663Y0082354D01*
X0010745Y0082406D01*
X0010829Y0082454D01*
X0010916Y0082500D01*
X0011004Y0082541D01*
X0011093Y0082579D01*
X0011184Y0082613D01*
X0011277Y0082644D01*
X0011370Y0082670D01*
X0011465Y0082693D01*
X0011560Y0082712D01*
X0011657Y0082727D01*
X0011753Y0082738D01*
X0011850Y0082745D01*
X0011948Y0082748D01*
X0012045Y0082747D01*
X0012142Y0082742D01*
X0012239Y0082733D01*
X0012336Y0082720D01*
X0012431Y0082703D01*
X0012526Y0082682D01*
X0012621Y0082658D01*
X0012714Y0082629D01*
X0012805Y0082597D01*
X0012896Y0082561D01*
X0012985Y0082521D01*
X0013072Y0082477D01*
X0013157Y0082430D01*
X0013240Y0082380D01*
X0013321Y0082326D01*
X0013400Y0082269D01*
X0013477Y0082209D01*
X0013551Y0082146D01*
X0013622Y0082079D01*
X0013690Y0082010D01*
X0013756Y0081938D01*
X0013818Y0081864D01*
X0013878Y0081787D01*
X0013934Y0081707D01*
X0013987Y0081626D01*
X0014037Y0081542D01*
X0014083Y0081456D01*
X0014125Y0081369D01*
X0014164Y0081279D01*
X0014199Y0081189D01*
X0014230Y0081096D01*
X0014258Y0081003D01*
X0014282Y0080909D01*
X0014302Y0080813D01*
X0014318Y0080717D01*
X0014330Y0080621D01*
X0014338Y0080524D01*
X0014342Y0080427D01*
X0014342Y0080329D01*
X0014338Y0080232D01*
X0014330Y0080135D01*
X0014318Y0080039D01*
X0014302Y0079943D01*
X0014282Y0079847D01*
X0014258Y0079753D01*
X0014230Y0079660D01*
X0014199Y0079567D01*
X0014164Y0079477D01*
X0014125Y0079387D01*
X0014083Y0079300D01*
X0014037Y0079214D01*
X0013987Y0079130D01*
X0013934Y0079049D01*
X0013878Y0078969D01*
X0013818Y0078892D01*
X0013756Y0078818D01*
X0013690Y0078746D01*
X0013622Y0078677D01*
X0013551Y0078610D01*
X0013477Y0078547D01*
X0013400Y0078487D01*
X0013321Y0078430D01*
X0013240Y0078376D01*
X0013157Y0078326D01*
X0013072Y0078279D01*
X0012985Y0078235D01*
X0012896Y0078195D01*
X0012805Y0078159D01*
X0012714Y0078127D01*
X0012621Y0078098D01*
X0012526Y0078074D01*
X0012431Y0078053D01*
X0012336Y0078036D01*
X0012239Y0078023D01*
X0012142Y0078014D01*
X0012045Y0078009D01*
X0011948Y0078008D01*
X0011850Y0078011D01*
X0011753Y0078018D01*
X0011657Y0078029D01*
X0011560Y0078044D01*
X0011465Y0078063D01*
X0011370Y0078086D01*
X0011277Y0078112D01*
X0011184Y0078143D01*
X0011093Y0078177D01*
X0011004Y0078215D01*
X0010916Y0078256D01*
X0010829Y0078302D01*
X0010745Y0078350D01*
X0010663Y0078402D01*
X0010583Y0078458D01*
X0010505Y0078516D01*
X0010430Y0078578D01*
X0010357Y0078643D01*
X0010288Y0078711D01*
X0010221Y0078781D01*
X0010156Y0078855D01*
X0010095Y0078930D01*
X0010038Y0079009D01*
X0009983Y0079089D01*
X0009932Y0079172D01*
X0009884Y0079257D01*
X0009840Y0079343D01*
X0009799Y0079432D01*
X0009762Y0079522D01*
X0009729Y0079613D01*
X0009699Y0079706D01*
X0009674Y0079800D01*
X0009652Y0079895D01*
X0009634Y0079990D01*
X0009620Y0080087D01*
X0009610Y0080184D01*
X0009604Y0080281D01*
X0009602Y0080378D01*
X0002130Y0040417D02*
X0002130Y0020535D01*
X0051343Y0020535D01*
X0051343Y0040220D01*
X0002130Y0040220D01*
X0009602Y0030378D02*
X0009604Y0030475D01*
X0009610Y0030572D01*
X0009620Y0030669D01*
X0009634Y0030766D01*
X0009652Y0030861D01*
X0009674Y0030956D01*
X0009699Y0031050D01*
X0009729Y0031143D01*
X0009762Y0031234D01*
X0009799Y0031324D01*
X0009840Y0031413D01*
X0009884Y0031499D01*
X0009932Y0031584D01*
X0009983Y0031667D01*
X0010038Y0031747D01*
X0010095Y0031826D01*
X0010156Y0031901D01*
X0010221Y0031975D01*
X0010288Y0032045D01*
X0010357Y0032113D01*
X0010430Y0032178D01*
X0010505Y0032240D01*
X0010583Y0032298D01*
X0010663Y0032354D01*
X0010745Y0032406D01*
X0010829Y0032454D01*
X0010916Y0032500D01*
X0011004Y0032541D01*
X0011093Y0032579D01*
X0011184Y0032613D01*
X0011277Y0032644D01*
X0011370Y0032670D01*
X0011465Y0032693D01*
X0011560Y0032712D01*
X0011657Y0032727D01*
X0011753Y0032738D01*
X0011850Y0032745D01*
X0011948Y0032748D01*
X0012045Y0032747D01*
X0012142Y0032742D01*
X0012239Y0032733D01*
X0012336Y0032720D01*
X0012431Y0032703D01*
X0012526Y0032682D01*
X0012621Y0032658D01*
X0012714Y0032629D01*
X0012805Y0032597D01*
X0012896Y0032561D01*
X0012985Y0032521D01*
X0013072Y0032477D01*
X0013157Y0032430D01*
X0013240Y0032380D01*
X0013321Y0032326D01*
X0013400Y0032269D01*
X0013477Y0032209D01*
X0013551Y0032146D01*
X0013622Y0032079D01*
X0013690Y0032010D01*
X0013756Y0031938D01*
X0013818Y0031864D01*
X0013878Y0031787D01*
X0013934Y0031707D01*
X0013987Y0031626D01*
X0014037Y0031542D01*
X0014083Y0031456D01*
X0014125Y0031369D01*
X0014164Y0031279D01*
X0014199Y0031189D01*
X0014230Y0031096D01*
X0014258Y0031003D01*
X0014282Y0030909D01*
X0014302Y0030813D01*
X0014318Y0030717D01*
X0014330Y0030621D01*
X0014338Y0030524D01*
X0014342Y0030427D01*
X0014342Y0030329D01*
X0014338Y0030232D01*
X0014330Y0030135D01*
X0014318Y0030039D01*
X0014302Y0029943D01*
X0014282Y0029847D01*
X0014258Y0029753D01*
X0014230Y0029660D01*
X0014199Y0029567D01*
X0014164Y0029477D01*
X0014125Y0029387D01*
X0014083Y0029300D01*
X0014037Y0029214D01*
X0013987Y0029130D01*
X0013934Y0029049D01*
X0013878Y0028969D01*
X0013818Y0028892D01*
X0013756Y0028818D01*
X0013690Y0028746D01*
X0013622Y0028677D01*
X0013551Y0028610D01*
X0013477Y0028547D01*
X0013400Y0028487D01*
X0013321Y0028430D01*
X0013240Y0028376D01*
X0013157Y0028326D01*
X0013072Y0028279D01*
X0012985Y0028235D01*
X0012896Y0028195D01*
X0012805Y0028159D01*
X0012714Y0028127D01*
X0012621Y0028098D01*
X0012526Y0028074D01*
X0012431Y0028053D01*
X0012336Y0028036D01*
X0012239Y0028023D01*
X0012142Y0028014D01*
X0012045Y0028009D01*
X0011948Y0028008D01*
X0011850Y0028011D01*
X0011753Y0028018D01*
X0011657Y0028029D01*
X0011560Y0028044D01*
X0011465Y0028063D01*
X0011370Y0028086D01*
X0011277Y0028112D01*
X0011184Y0028143D01*
X0011093Y0028177D01*
X0011004Y0028215D01*
X0010916Y0028256D01*
X0010829Y0028302D01*
X0010745Y0028350D01*
X0010663Y0028402D01*
X0010583Y0028458D01*
X0010505Y0028516D01*
X0010430Y0028578D01*
X0010357Y0028643D01*
X0010288Y0028711D01*
X0010221Y0028781D01*
X0010156Y0028855D01*
X0010095Y0028930D01*
X0010038Y0029009D01*
X0009983Y0029089D01*
X0009932Y0029172D01*
X0009884Y0029257D01*
X0009840Y0029343D01*
X0009799Y0029432D01*
X0009762Y0029522D01*
X0009729Y0029613D01*
X0009699Y0029706D01*
X0009674Y0029800D01*
X0009652Y0029895D01*
X0009634Y0029990D01*
X0009620Y0030087D01*
X0009610Y0030184D01*
X0009604Y0030281D01*
X0009602Y0030378D01*
D22*
X0281900Y0066700D03*
D23*
X0295000Y0049000D03*
D24*
X0292500Y0031750D03*
X0292500Y0066250D03*
D25*
X0292500Y0054000D03*
X0292500Y0044000D03*
M02*
